<svg xmlns="http://www.w3.org/2000/svg" viewBox="0 0 326.09 505.43"><defs><style>.cls-1{fill:#d27133;}.cls-2{fill:#fff;}</style></defs><title>Asset 5</title><g id="Layer_2" data-name="Layer 2"><g id="Layer_1-2" data-name="Layer 1"><path class="cls-1" d="M288.65,150.54v1.31l-3,4.41c1.7,2.24,2,3.17,1.1,5.1-1.34,3-4,3.12-7.45,2.92,3.93,3.16,1.6,6.12.37,8.75-1.88,4-5.34,2-7.9,1.3-.21,2.11-.08,4-.71,5.68a3.87,3.87,0,0,1-3,1.82c-.82,0-1.78-1.32-2.4-2.24a9.46,9.46,0,0,1-.81-2.66c.26,1.72-1.49,3.39-.09,5.21a1.65,1.65,0,0,1-.45,1.54c-2.49,1.25-1.6,4.07-3,5.65,1,1.46,3.93,1,3.31,3.4a2.73,2.73,0,0,1-3.75,2l-2.66,7.13c1.6,1.45.13,3.19-.22,4.8a3.49,3.49,0,0,1-6.18,1.68,34.6,34.6,0,0,1-3.12-5.13,6.53,6.53,0,0,0-1.08-1.8c-1.25-1-2.64-1.89-4-2.82-.61-.43-1.24-.75-1.8-1.17-.72-.55-1.32-1.26-2.07-1.75-2.16-1.44-4.45-2.69-6.49-4.27a4.56,4.56,0,0,1-1.29-2.86,23.3,23.3,0,0,1,.14-4.07h-9.33c1,2.33,4.91.28,5,2.87a30,30,0,0,1,2.45,2.5c.58.76.86,1.76,1.47,2.5,1,1.23,2.18,2.35,3.32,3.48a12,12,0,0,0,1.89,1.62c1.3.84,2.67,1.56,4,2.35a15.66,15.66,0,0,0,2.78,1.67c2,.65,2.8,2.4,1.74,4.22l.85.22c3,.77,3.8,3.19,2,5.58-.73,1-1.23,2.09-1.93,3.08-.84,1.19-1.76,2.33-2.69,3.45a16.75,16.75,0,0,0-2.15,2.44c-.78,1.46-1.43,2.53-3.41,2.85-1.6.26-2.94,1.88-4.52,2.67-1.75.88-2,4.18-5.26,2.77a6.58,6.58,0,0,1,.52,2.12,2.24,2.24,0,0,1-1,1.6c-2.58,1-5.11,1.32-7-1.46a30.92,30.92,0,0,0-2.34-3.19,6,6,0,0,0-2.09-1.67c-1.75-.71-3-2.71-2.52-4.27s1.08-3.16,1.46-4.77A6,6,0,0,0,215,215c-3.9,1.62-7.58,2.2-11.33.51a1.81,1.81,0,0,0-1-.13c-1.17.25-2.31.68-3.49.83-2.68.34-3.79-.71-4.18-3.47a39.21,39.21,0,0,0-1.13-4.43l-.55.13c.17,1.27.27,2.56.51,3.82.43,2.22-1.51,2.74-2.75,3.38-.86.45-2.77.29-3.3-.35-1.3-1.57-3.43-2.66-3.37-5.27,0-.84-1.07-1.71-1.51-2.36-1.94,1.24-3.57,2.26-5.17,3.31a3.88,3.88,0,0,0-1,.85,5.28,5.28,0,0,1-6.69,1.22,2.93,2.93,0,0,0-1.63-.19c-.7,0-1.38.23-2.59.44.36,1.1.83,2.73,1.42,4.33.66,1.79.21,3.74-1.28,4.32a24.08,24.08,0,0,1-4.57,1.34c-2.49.44-3.36-.48-3.93-3.81-2.44,0-3.06-.6-3.13-2.84,0-.58,0-1.17,0-1.75,0-1.46,0-2.88,2.26-2.1.41.14,1.14-.35,1.58-.71a1.17,1.17,0,0,0,0-1.08c-1.35-.76-.93-1.65-.51-2.78a2.24,2.24,0,0,0-1.59-3.11c-1.35-.39-2.73-.32-3.25,1.58a7.52,7.52,0,0,1-1.58,2.51c-.14.17-.79-.07-1.59-.17.34,1.45.23,4,1.17,4.43,2.87,1.47,1.65,4.09,2.39,6.1.12.33,0,1.07-.27,1.18-1.69.83-1.3,2.4-1.58,3.79a5.73,5.73,0,0,1-1.32,2.78,11,11,0,0,1-2.74,1.6,18.31,18.31,0,0,1,.63,2.45c.21,2.07-1.74,4.35-3.49,3.8-2.45-.76-4.24.14-6,1.53-1.94,1.52-3.79,1.21-5.13-.86-.29-.45-.6-.9-1.07-1.61-1.84,2.51-3.59,2-5.47.34a26.92,26.92,0,0,0-3.91-2.68,2,2,0,0,0-1.56-.12c-2.5,1.11-5,2.24-7.4,3.54-1.45.79-2.44.61-3.3-.77-.37,2.52-.87,3.05-3.45,3.21a3.31,3.31,0,0,1-2.4-.63,55.12,55.12,0,0,1-3.52-5c-2.07,1-3.94-.2-5.79-1.86a3.32,3.32,0,0,0-2.5-.91c-3.24.85-6.21-.29-9.21-1-1.4-.34-3.35-.4-3.37-2.7,0-.2-.68-.54-1.05-.57-2-.14-3-1.6-4-3.08a3.57,3.57,0,0,0-1.67-1.4c-2.42-.77-4.41-4.21-3.56-6.59a3,3,0,0,1,1.35-1.26c1.74,1.38,1.69-.67,2.58-1.28-2.66-.23-3.6-2.19-5.09-3.88-2.09-2.38-1.94-4.63-1.45-7.26a5.37,5.37,0,0,0-.32-2.28c-.5-1.8-1.7-3.65-1.5-5.35.31-2.63,2.49-4.42,4.81-5.53.68-.33,2,.59,3,.92a3,3,0,0,0,.63.07l-.34-.52a32,32,0,0,1,4.2-3.22,9,9,0,0,1,4.37-1.22,3.11,3.11,0,0,0,3.23-1.87,20.6,20.6,0,0,1,2.79-3.1c-4.51-1-7.13,1.31-9.76,3.74,1.3-2.94,1.89-6,4.78-8,1.95-1.3,1.6-2.08-.63-3-.52-.21-1.22-.8-1.25-1.24a2.3,2.3,0,0,1,.82-1.84c1.82-1,3.76-1.76,5.87-2.72-.56-.64-.67-.87-.84-.94-3.19-1.24-4.48-3.21-4.54-6.5,0-1.08-.28-2.86-.89-3.09-1.22-.46-.93-1.06-.94-1.87a14.26,14.26,0,0,0-.35-2.17l-1.09.05c-.08.89-.2,1.78-.22,2.67,0,1.41,1.07,3-.88,4,1.71,1.09,2,2.54,1,4.06-.54.79-1.5,1.56-1.54,2.37a4.72,4.72,0,0,1-2.14,3.8,4.34,4.34,0,0,0-1.8,4.15,9.69,9.69,0,0,1-.59,2.6l-.68-.05-1.2-2.17c-1.5,1.58-1.5,1.58-2.29.63l1.94-1.31a37.08,37.08,0,0,1-4.59-3.09c-1.27-1.16-1.82-1.51-2.71.39a4.12,4.12,0,0,1-3,1.64,6.4,6.4,0,0,1-3.32-.92c-1.58-.81-2.41-2.05-1.46-3.95a7.91,7.91,0,0,0,.77-2.65,28.36,28.36,0,0,0,0-3.27,19.12,19.12,0,0,1-1.28-3.92c-.16-1.72,1.53-1.54,2.58-2,2.21-1,4.37-2.06,7.19-3.41a17.75,17.75,0,0,0-4-.2c-1.55.3-3.36,1.81-4.44,1.35-1.74-.75-3,.13-4.5.07a7.08,7.08,0,0,1-5.77-2.59,25,25,0,0,0-3-3c-1.14-1-2.36-2-4-3.38-1.56.06-4.06-1-4.67-2.21-.82-1.71-.28-3.87,1.65-5.72,1.35-1.29,2.88-2.4,4.33-3.59-2-.78-3.76-1.39-5.4-1.23-2,.19-3.14-.78-2.88-2.28.48-2.7-1.34-5.64,1.75-8.26,1.61-1.36,2.88-3.36,4.89-4.53.41-.24.9-1,.78-1.35-.61-1.65-1.05-3.59-2.23-4.75-2.26-2.23-2.65-2.76-1.8-5.09-1.45-2.77-3-5-3.78-7.44-1.21-4,3-7.8,7-6.53,1.18.38,1.68-.06,1.77-1.14,0-.57-.31-1.27-.09-1.72a14.07,14.07,0,0,1,2.34-3.93c1-1,2.38-.63,3.54.35.25.21,1.3-.08,1.57-.45,1.54-2.12,4-2.67,5.95-1.11a27.16,27.16,0,0,1,2.17,2.31c-.26-4,2.06-5.59,5-6.63-5.33-.61-6.6-1.91-7.09-7.12A12.29,12.29,0,0,0,54,67.3c-1.15-3.41-1.48-6.78.36-10.08-1.38-1.37-1.12-3,.33-4.86a7,7,0,0,0,1-3.25,16.66,16.66,0,0,0-.31-2.58c-.1-3,1.06-4.29,4.15-4.55-2.34-1-2.86-2.42-1.24-4.28a.88.88,0,0,0,.24-.5c0-3.58,2.15-5.06,5.72-4.13a1.68,1.68,0,0,0,1.43-.81c.8-3.95,2.22-4.79,6-3.4a2.65,2.65,0,0,0,.85.13c1.74,0,3.73.32,4.16,2a14.29,14.29,0,0,0,1.72,4.39c.13.2-.33.76-.47,1.16s-.26.88-.44,1.53c2.69-1.65,3-1.57,4.38.59h5.18l.21,2c.57.1,1.52.06,1.62.33.76,2.06,2.35,1.09,3,1.17l-2.13-3.78c-1.69.09-3.22-3.1-6-1.64-.1.05-.37-.18-.53-.32-1.46-1.25-2.89-2.55-2.61-4.72S80,27,82.49,25.39a.76.76,0,0,0,.35-.52c-.2-3.23,2.63-4.8,4-7.15a3.25,3.25,0,0,1,2.4-1.31c1.18,0,2.37-1.39,3.7.18.54.64,2.16.37,3.29.51l.26.85a3.32,3.32,0,0,0,.35-.8c.45-3,2.74-3.71,5.23-4.3a3.42,3.42,0,0,0,1.86-1.52,7.69,7.69,0,0,1,6.23-3.88c2.76-.28,5.43-.25,8,1.15,1.49.82,2.69.62,3.24-1.41.84-3.06,6.56-6.21,9.76-5.56,2.78.57,3.86,2.93,2.46,5.36a1.77,1.77,0,0,0-.32,1c.24,2.06.18,4.25.92,6.12a10.5,10.5,0,0,0,3.51,4.41c.62.44,2.35-.66,3.26-1l-.62-3.09c-1-1.44-1.88-2.52-2.6-3.68-1.48-2.37-.7-4.66,1-6.33A16.66,16.66,0,0,1,144.83.24c1.92-.62,4.29.15,6.46.33.54,0,1.06.21,1.59.27,1.37.16,2.88,0,4.07.51a26.12,26.12,0,0,1,4.26,3l-.52.78.18-.38c1.11.24,2,.52,3,.62.71.08,1.45-.12,2.18-.11,3.21.07,3.88.65,4.62,3.73.57,2.38,1.21,4.73,2,7.71l12.92-2.25a18.73,18.73,0,0,1,4-.7c3.44.18,6.86.63,10.29.94a3.64,3.64,0,0,0,1.46-.19,8.44,8.44,0,0,1,7.75,2.09c.85,1,1.69,2.32,3.24,1.48s2.87-.58,3.49.68c1.47-.12,2.72-.53,3.76-.23s2.07,1.35,3.12,2,1.83,1.23.7,2.43c2.53,1.38,2.63,2.95.89,4.56L223,33.37l2.73-.77-.21.57a33,33,0,0,1,3.62,2.16,4.28,4.28,0,0,1,1.74,2.28c.35,2.41,1.47,5.07-1.19,7-.05,0,0,.27.1.71a13,13,0,0,0,1.74.12c1.94-.11,2.71.76,2.17,2.59-.22.77-.71,1.46-.87,2.24-.64,3-.1,6.37,2.27,6.92a31.91,31.91,0,0,0,6.28.88c.58,0,1.26-1.17,1.76-1.9.36-.52.31-1.46.75-1.75,2.08-1.37,4.26-2.6,6.44-3.81a1.34,1.34,0,0,1,1.23.12,30.13,30.13,0,0,1,4.62,4.46c1.36,1.88-.59,3.1-1.56,4.17a15.78,15.78,0,0,1,2.4,2.83c.65,1.29,1.24,2.37,2.8,2.71A8.54,8.54,0,0,1,262.18,66c1.84,1.08,2.48,3.68,1.12,4.82-2,1.67-4.11,3.2-6.13,4.76,1.38.59,3,.89,4,1.81,1.3,1.12,2,2.9,3.26,4.11a14.28,14.28,0,0,0,3.37,1.89c.36.19.73.36,1.33.66l-2.07.74c1.09,1.61,2,3.14,3.07,4.46s2.66,2.51,3.84,3.9c.66.78,1.6,2.32,1.31,2.73-.84,1.17.08,1.33.57,1.82s1.36,1,1.61,1.66a21.92,21.92,0,0,1,1.74,6,17.75,17.75,0,0,1-.93,6.54c-.26.78-2,1.09-2.6,1.4-.23,1.62-.08,3.34-.75,4.62a7.83,7.83,0,0,1-3.37,3.12,13.15,13.15,0,0,1-4.78,1c-3.68.25-4.66-.35-5.81-3-.69.38-1.35.82-2.07,1.13-1.3.56-2.62,1.07-4,1.54a7.08,7.08,0,0,1-2.11.49c-1.38,0-1.71.55-1.08,1.77,1.37,2.63,2.66,5.3,4.1,7.89a2.58,2.58,0,0,0,1.64,1.16c3,.44,5-.84,4.73-5.62.66-.05,1.5-.39,2-.11a16.48,16.48,0,0,1,6.11,6.42c.15.28-.49,1.22-1,1.57a25.47,25.47,0,0,1-2.83,1.63l.86,5.56c1.25-2.67,1.55.62,2.55.05l.94-1.1c1.54.92,2.94,1.83,4.41,2.59a1.71,1.71,0,0,0,1.33-.31c.15-2.52,2.08-1.83,3.45-1.88l1.06-2.36.83-.07c.49,1.36,1,2.71,1.47,4.07a5.31,5.31,0,0,0,.51,1.57C285.48,146.94,287.08,148.73,288.65,150.54ZM143.23,209.2h0ZM129.35,74.81l.05,0,.1.25ZM41.21,111.67l0,.62h3.08l-.05-.92Z"/><path class="cls-2" d="M41.21,111.67l3.05-.3.05.92H41.24Z"/><path class="cls-2" d="M129.36,74.81l.14.23-.1-.25Z"/><path class="cls-2" d="M129.4,74.8l0,0Z"/><path class="cls-2" d="M143.23,209.21h0Z"/><path class="cls-2" d="M143.18,209.22h0Z"/><path class="cls-1" d="M241.68,66.17a20.6,20.6,0,0,1-2.79,3.1c4.51,1,7.13-1.31,9.76-3.74-1.3,2.94-1.89,6-4.78,8-1.95,1.3-1.6,2.08.63,3,.52.21,1.22.8,1.25,1.24a2.3,2.3,0,0,1-.82,1.84c-1.82,1-3.76,1.76-5.87,2.72.56.64.67.87.84.94,3.19,1.24,4.48,3.21,4.54,6.5,0,1.08.28,2.86.89,3.09,1.22.46.93,1.06.94,1.87a14.26,14.26,0,0,0,.35,2.17l1.09-.05c.08-.89.2-1.78.22-2.67,0-1.41-1.07-3,.88-4-1.71-1.09-2-2.54-1-4.06.54-.79,1.5-1.56,1.54-2.37a4.72,4.72,0,0,1,2.14-3.8,4.34,4.34,0,0,0,1.8-4.15,9.69,9.69,0,0,1,.59-2.6l.68.05,1.2,2.17c1.5-1.58,1.5-1.58,2.29-.63L256.12,76a37.08,37.08,0,0,1,4.59,3.09c1.27,1.16,1.82,1.51,2.71-.39a4.12,4.12,0,0,1,3-1.64,6.4,6.4,0,0,1,3.32.92c1.58.81,2.41,2.05,1.46,3.95a7.91,7.91,0,0,0-.77,2.65,28.36,28.36,0,0,0,0,3.27,19.12,19.12,0,0,1,1.28,3.92c.16,1.72-1.53,1.54-2.58,2-2.21,1-4.37,2.06-7.19,3.41a17.75,17.75,0,0,0,4,.2c1.55-.3,3.36-1.81,4.44-1.35,1.74.75,3-.13,4.5-.07a7.08,7.08,0,0,1,5.77,2.59,25,25,0,0,0,3,3c1.14,1,2.36,2,4,3.38,1.56-.06,4.06,1,4.67,2.21.82,1.71.28,3.87-1.65,5.72-1.35,1.29-2.88,2.4-4.33,3.59,2,.78,3.76,1.39,5.4,1.23,2-.19,3.14.78,2.88,2.28-.48,2.7,1.34,5.64-1.75,8.26-1.61,1.36-2.88,3.36-4.89,4.53-.41.24-.9,1-.78,1.35.61,1.65,1.05,3.59,2.23,4.75,2.26,2.23,2.65,2.76,1.8,5.09,1.45,2.77,3,5,3.78,7.44,1.21,4-3,7.8-7,6.53-1.18-.38-1.68.06-1.77,1.14,0,.57.31,1.27.09,1.72a14.07,14.07,0,0,1-2.34,3.93c-1,1-2.38.63-3.54-.35-.25-.21-1.3.08-1.57.45-1.54,2.12-4,2.67-5.95,1.11a27.16,27.16,0,0,1-2.17-2.31c.26,4-2.06,5.59-5,6.63,5.33.61,6.6,1.91,7.09,7.12a12.29,12.29,0,0,0,.55,2.76c1.15,3.41,1.48,6.78-.36,10.08,1.38,1.37,1.12,3-.33,4.86a7,7,0,0,0-1,3.25,16.66,16.66,0,0,0,.31,2.58c.1,3-1.06,4.29-4.15,4.55,2.34,1,2.86,2.42,1.24,4.28a.88.88,0,0,0-.24.5c0,3.58-2.15,5.06-5.72,4.13a1.68,1.68,0,0,0-1.43.81c-.8,3.95-2.22,4.79-6,3.4a2.65,2.65,0,0,0-.85-.13c-1.74,0-3.73-.32-4.16-2a14.29,14.29,0,0,0-1.72-4.39c-.13-.2.33-.76.47-1.16s.26-.88.44-1.53c-2.69,1.65-3,1.57-4.38-.59h-5.18l-.21-2c-.57-.1-1.52-.06-1.62-.33-.76-2.06-2.35-1.09-3-1.17l2.13,3.78c1.69-.09,3.22,3.1,6,1.64.1-.05.37.18.53.32,1.46,1.25,2.89,2.55,2.61,4.72s.74,4.77-1.76,6.36a.76.76,0,0,0-.35.52c.2,3.23-2.63,4.8-4,7.15A3.25,3.25,0,0,1,238,231c-1.18,0-2.37,1.39-3.7-.18-.54-.64-2.16-.37-3.29-.51l-.26-.85a3.32,3.32,0,0,0-.35.8c-.45,3-2.74,3.71-5.23,4.3a3.42,3.42,0,0,0-1.86,1.52,7.69,7.69,0,0,1-6.23,3.88c-2.76.28-5.43.25-8-1.15-1.49-.82-2.69-.62-3.24,1.41-.84,3.06-6.56,6.21-9.76,5.56-2.78-.57-3.86-2.93-2.46-5.36a1.77,1.77,0,0,0,.32-1c-.24-2.06-.18-4.25-.92-6.12a10.5,10.5,0,0,0-3.51-4.41c-.62-.44-2.35.66-3.26,1l.62,3.09c1,1.44,1.88,2.52,2.6,3.68,1.48,2.37.7,4.66-1,6.33a16.66,16.66,0,0,1-6.07,4.17c-1.92.62-4.29-.15-6.46-.33-.54,0-1.06-.21-1.59-.27-1.37-.16-2.88,0-4.07-.51a26.12,26.12,0,0,1-4.26-3l.52-.78-.18.38c-1.11-.24-2-.52-3-.62-.71-.08-1.45.12-2.18.11-3.21-.07-3.88-.65-4.62-3.73-.57-2.38-1.21-4.73-2-7.71L141.71,233a18.73,18.73,0,0,1-4,.7c-3.44-.18-6.86-.63-10.29-.94a3.64,3.64,0,0,0-1.46.19,8.44,8.44,0,0,1-7.75-2.09c-.85-1-1.69-2.32-3.24-1.48s-2.87.58-3.49-.68c-1.47.12-2.72.53-3.76.23s-2.07-1.35-3.12-2-1.83-1.23-.7-2.43c-2.53-1.38-2.63-2.95-.89-4.56l1.3-5.81-2.73.77.21-.57a33,33,0,0,1-3.62-2.16,4.28,4.28,0,0,1-1.74-2.28c-.35-2.41-1.47-5.07,1.19-7,.05,0,0-.27-.1-.71a13,13,0,0,0-1.74-.12c-1.94.11-2.71-.76-2.17-2.59.22-.77.71-1.46.87-2.24.64-3,.1-6.37-2.27-6.92m105.76-17.62-.05,0-.1-.25Zm88.14-36.86,0-.62H283l.05.92Z"/><path class="cls-2" d="M286.07,135.76l-3.05.3-.05-.92h3.08Z"/><path class="cls-2" d="M197.93,172.62l-.14-.23.1.25Z"/><path class="cls-2" d="M197.88,172.63l0,0Z"/><path class="cls-1" d="M205.26,192.09a20.6,20.6,0,0,1-3.1-2.79c-1,4.51,1.31,7.13,3.74,9.76-2.94-1.3-6-1.89-8-4.78-1.3-1.95-2.08-1.6-3,.63-.21.52-.8,1.22-1.24,1.25a2.3,2.3,0,0,1-1.84-.82c-1-1.82-1.76-3.76-2.72-5.87-.64.56-.87.67-.94.84-1.24,3.19-3.21,4.48-6.5,4.54-1.08,0-2.86.28-3.09.89-.46,1.22-1.06.93-1.87.94a14.26,14.26,0,0,0-2.17.35l.05,1.09c.89.08,1.78.2,2.67.22,1.41,0,3-1.07,4,.88,1.09-1.71,2.54-2,4.06-1,.79.54,1.56,1.5,2.37,1.54a4.72,4.72,0,0,1,3.8,2.14,4.34,4.34,0,0,0,4.15,1.8,9.69,9.69,0,0,1,2.6.59l-.05.68-2.17,1.2c1.58,1.5,1.58,1.5.63,2.29l-1.31-1.94a37.08,37.08,0,0,1-3.09,4.59c-1.16,1.27-1.51,1.82.39,2.71a4.12,4.12,0,0,1,1.64,3,6.4,6.4,0,0,1-.92,3.32c-.81,1.58-2.05,2.41-3.95,1.46a7.91,7.91,0,0,0-2.65-.77,28.36,28.36,0,0,0-3.27,0,19.12,19.12,0,0,1-3.92,1.28c-1.72.16-1.54-1.53-2-2.58-1-2.21-2.06-4.37-3.41-7.19a17.75,17.75,0,0,0-.2,4c.3,1.55,1.81,3.36,1.35,4.44-.75,1.74.13,3,.07,4.5a7.08,7.08,0,0,1-2.59,5.77,25,25,0,0,0-3,3c-1,1.14-2,2.36-3.38,4,.06,1.56-1,4.06-2.21,4.67-1.71.82-3.87.28-5.72-1.65-1.29-1.35-2.4-2.88-3.59-4.33-.78,2-1.39,3.76-1.23,5.4.19,2-.78,3.14-2.28,2.88-2.7-.48-5.64,1.34-8.26-1.75-1.36-1.61-3.36-2.88-4.53-4.89-.24-.41-1-.9-1.35-.78-1.65.61-3.59,1.05-4.75,2.23-2.23,2.26-2.76,2.65-5.09,1.8-2.77,1.45-5,3-7.44,3.78-4,1.21-7.8-3-6.53-7,.38-1.18-.06-1.68-1.14-1.77-.57,0-1.27.31-1.72.09a14.07,14.07,0,0,1-3.93-2.34c-1-1-.63-2.38.35-3.54.21-.25-.08-1.3-.45-1.57-2.12-1.54-2.67-4-1.11-5.95A27.16,27.16,0,0,1,107.8,221c-4,.26-5.59-2.06-6.63-5-.61,5.33-1.91,6.6-7.12,7.09a12.29,12.29,0,0,0-2.76.55c-3.41,1.15-6.78,1.48-10.08-.36-1.37,1.38-3,1.12-4.86-.33a7,7,0,0,0-3.25-1,16.66,16.66,0,0,0-2.58.31c-3,.1-4.29-1.06-4.55-4.15-1,2.34-2.42,2.86-4.28,1.24a.88.88,0,0,0-.5-.24c-3.58,0-5.06-2.15-4.13-5.72a1.68,1.68,0,0,0-.81-1.43c-3.95-.8-4.79-2.22-3.4-6a2.65,2.65,0,0,0,.13-.85c0-1.74.32-3.73,2-4.16a14.29,14.29,0,0,0,4.39-1.72c.2-.13.76.33,1.16.47s.88.26,1.53.44c-1.65-2.69-1.57-3,.59-4.38v-5.18l2-.21c.1-.57.06-1.52.33-1.62,2.06-.76,1.09-2.35,1.17-3l-3.78,2.13c.09,1.69-3.1,3.22-1.64,6,.05.1-.18.37-.32.53-1.25,1.46-2.55,2.89-4.72,2.61s-4.77.74-6.36-1.76a.76.76,0,0,0-.52-.35c-3.23.2-4.8-2.63-7.15-4a3.25,3.25,0,0,1-1.31-2.4c0-1.18-1.39-2.37.18-3.7.64-.54.37-2.16.51-3.29l.85-.26a3.32,3.32,0,0,0-.8-.35c-3-.45-3.71-2.74-4.3-5.23a3.42,3.42,0,0,0-1.52-1.86,7.69,7.69,0,0,1-3.88-6.23c-.28-2.76-.25-5.43,1.15-8,.82-1.49.62-2.69-1.41-3.24-3.06-.84-6.21-6.56-5.56-9.76.57-2.78,2.93-3.86,5.36-2.46a1.77,1.77,0,0,0,1,.32c2.06-.24,4.25-.18,6.12-.92A10.5,10.5,0,0,0,42.47,140c.44-.62-.66-2.35-1-3.26l-3.09.62c-1.44,1-2.52,1.88-3.68,2.6-2.37,1.48-4.66.7-6.33-1a16.66,16.66,0,0,1-4.17-6.07c-.62-1.92.15-4.29.33-6.46,0-.54.21-1.06.27-1.59.16-1.37,0-2.88.51-4.07a26.12,26.12,0,0,1,3-4.26l.78.52-.38-.18c.24-1.11.52-2,.62-3,.08-.71-.12-1.45-.11-2.18.07-3.21.65-3.88,3.73-4.62,2.38-.57,4.73-1.21,7.71-2-.74-4.24-1.49-8.58-2.25-12.92a18.73,18.73,0,0,1-.7-4c.18-3.44.63-6.86.94-10.29a3.64,3.64,0,0,0-.19-1.46,8.44,8.44,0,0,1,2.09-7.75c1-.85,2.32-1.69,1.48-3.24s-.58-2.87.68-3.49c-.12-1.47-.53-2.72-.23-3.76s1.35-2.07,2-3.12,1.23-1.83,2.43-.7c1.38-2.53,2.95-2.63,4.56-.89l5.81,1.3L56.6,52l.57.21a33,33,0,0,1,2.16-3.62,4.28,4.28,0,0,1,2.28-1.74c2.41-.35,5.07-1.47,7,1.19,0,.05.27,0,.71-.1a13,13,0,0,0,.12-1.74c-.11-1.94.76-2.71,2.59-2.17.77.22,1.46.71,2.24.87,3,.64,6.37.1,6.92-2.27M98.81,148.35l0-.05.25-.1Zm36.86,88.14.62,0v-3.08l-.92.05Z"/><path class="cls-2" d="M135.67,236.49l-.3-3.05.92-.05v3.08Z"/><path class="cls-2" d="M98.81,148.35l.23-.14-.25.1Z"/><path class="cls-2" d="M98.8,148.3l0,0Z"/><path class="cls-1" d="M319.65,262.54v1.31l-3,4.41c1.7,2.24,2,3.17,1.1,5.1-1.34,3-4,3.12-7.45,2.92,3.93,3.16,1.6,6.12.37,8.75-1.88,4-5.34,2-7.9,1.3-.21,2.11-.08,4-.71,5.68a3.87,3.87,0,0,1-3,1.82c-.82,0-1.78-1.32-2.4-2.24a9.46,9.46,0,0,1-.81-2.66c.26,1.72-1.49,3.39-.09,5.21a1.65,1.65,0,0,1-.45,1.54c-2.49,1.25-1.6,4.07-3,5.65,1,1.46,3.93,1,3.31,3.4a2.73,2.73,0,0,1-3.75,2l-2.66,7.13c1.6,1.45.13,3.19-.22,4.8a3.49,3.49,0,0,1-6.18,1.68,34.6,34.6,0,0,1-3.12-5.13,6.53,6.53,0,0,0-1.08-1.8c-1.25-1-2.64-1.89-4-2.82-.61-.43-1.24-.75-1.8-1.17-.72-.55-1.32-1.26-2.07-1.75-2.16-1.44-4.45-2.69-6.49-4.27a4.56,4.56,0,0,1-1.29-2.86,23.3,23.3,0,0,1,.14-4.07h-9.33c1,2.33,4.91.28,5,2.87a30,30,0,0,1,2.45,2.5c.58.76.86,1.76,1.47,2.5,1,1.23,2.18,2.35,3.32,3.48a12,12,0,0,0,1.89,1.62c1.3.84,2.67,1.56,4,2.35a15.66,15.66,0,0,0,2.78,1.67c2,.65,2.8,2.4,1.74,4.22l.85.22c3,.77,3.8,3.19,2,5.58-.73,1-1.23,2.09-1.93,3.08-.84,1.19-1.76,2.33-2.69,3.45a16.75,16.75,0,0,0-2.15,2.44c-.78,1.46-1.43,2.53-3.41,2.85-1.6.26-2.94,1.88-4.52,2.67-1.75.88-2,4.18-5.26,2.77a6.58,6.58,0,0,1,.52,2.12,2.24,2.24,0,0,1-1,1.6c-2.58,1-5.11,1.32-7-1.46a30.92,30.92,0,0,0-2.34-3.19,6,6,0,0,0-2.09-1.67c-1.75-.71-3-2.71-2.52-4.27s1.08-3.16,1.46-4.77A6,6,0,0,0,246,327c-3.9,1.62-7.58,2.2-11.33.51a1.81,1.81,0,0,0-1-.13c-1.17.25-2.31.68-3.49.83-2.68.34-3.79-.71-4.18-3.47a39.21,39.21,0,0,0-1.13-4.43l-.55.13c.17,1.27.27,2.56.51,3.82.43,2.22-1.51,2.74-2.75,3.38-.86.45-2.77.29-3.3-.35-1.3-1.57-3.43-2.66-3.37-5.27,0-.84-1.07-1.71-1.51-2.36-1.94,1.24-3.57,2.26-5.17,3.31a3.88,3.88,0,0,0-1,.85,5.28,5.28,0,0,1-6.69,1.22,2.93,2.93,0,0,0-1.63-.19c-.7,0-1.38.23-2.59.44.36,1.1.83,2.73,1.42,4.33.66,1.79.21,3.74-1.28,4.32a24.08,24.08,0,0,1-4.57,1.34c-2.49.44-3.36-.48-3.93-3.81-2.44,0-3.06-.6-3.13-2.84,0-.58,0-1.17,0-1.75,0-1.46,0-2.88,2.26-2.1.41.14,1.14-.35,1.58-.71a1.17,1.17,0,0,0,0-1.08c-1.35-.76-.93-1.65-.51-2.78a2.24,2.24,0,0,0-1.59-3.11c-1.35-.39-2.73-.32-3.25,1.58a7.52,7.52,0,0,1-1.58,2.51c-.14.17-.79-.07-1.59-.17.34,1.45.23,4,1.17,4.43,2.87,1.47,1.65,4.09,2.39,6.1.12.33,0,1.07-.27,1.18-1.69.83-1.3,2.4-1.58,3.79a5.73,5.73,0,0,1-1.32,2.78,11,11,0,0,1-2.74,1.6,18.31,18.31,0,0,1,.63,2.45c.21,2.07-1.74,4.35-3.49,3.8-2.45-.76-4.24.14-6,1.53-1.94,1.52-3.79,1.21-5.13-.86-.29-.45-.6-.9-1.07-1.61-1.84,2.51-3.59,2-5.47.34a26.92,26.92,0,0,0-3.91-2.68,2,2,0,0,0-1.56-.12c-2.5,1.11-5,2.24-7.4,3.54-1.45.79-2.44.61-3.3-.77-.37,2.52-.87,3.05-3.45,3.21a3.31,3.31,0,0,1-2.4-.63,55.12,55.12,0,0,1-3.52-5c-2.07,1-3.94-.2-5.79-1.86a3.32,3.32,0,0,0-2.5-.91c-3.24.85-6.21-.29-9.21-1-1.4-.34-3.35-.4-3.37-2.7,0-.2-.68-.54-1.05-.57-2-.14-3-1.6-4-3.08a3.57,3.57,0,0,0-1.67-1.4c-2.42-.77-4.41-4.21-3.56-6.59a3,3,0,0,1,1.35-1.26c1.74,1.38,1.69-.67,2.58-1.28-2.66-.23-3.6-2.19-5.09-3.88-2.09-2.38-1.94-4.63-1.45-7.26a5.37,5.37,0,0,0-.32-2.28c-.5-1.8-1.7-3.65-1.5-5.35.31-2.63,2.49-4.42,4.81-5.53.68-.33,2,.59,3,.92a3,3,0,0,0,.63.07l-.34-.52a32,32,0,0,1,4.2-3.22,9,9,0,0,1,4.37-1.22,3.11,3.11,0,0,0,3.23-1.87,20.6,20.6,0,0,1,2.79-3.1c-4.51-1-7.13,1.31-9.76,3.74,1.3-2.94,1.89-6,4.78-8,1.95-1.3,1.6-2.08-.63-3-.52-.21-1.22-.8-1.25-1.24a2.3,2.3,0,0,1,.82-1.84c1.82-1,3.76-1.76,5.87-2.72-.56-.64-.67-.87-.84-.94-3.19-1.24-4.48-3.21-4.54-6.5,0-1.08-.28-2.86-.89-3.09-1.22-.46-.93-1.06-.94-1.87a14.26,14.26,0,0,0-.35-2.17l-1.09.05c-.08.89-.2,1.78-.22,2.67,0,1.41,1.07,3-.88,4,1.71,1.09,2,2.54,1,4.06-.54.79-1.5,1.56-1.54,2.37a4.72,4.72,0,0,1-2.14,3.8,4.34,4.34,0,0,0-1.8,4.15,9.69,9.69,0,0,1-.59,2.6l-.68-.05-1.2-2.17c-1.5,1.58-1.5,1.58-2.29.63l1.94-1.31a37.08,37.08,0,0,1-4.59-3.09c-1.27-1.16-1.82-1.51-2.71.39a4.12,4.12,0,0,1-3,1.64,6.4,6.4,0,0,1-3.32-.92c-1.58-.81-2.41-2.05-1.46-3.95a7.91,7.91,0,0,0,.77-2.65,28.36,28.36,0,0,0,0-3.27,19.12,19.12,0,0,1-1.28-3.92c-.16-1.72,1.53-1.54,2.58-2,2.21-1,4.37-2.06,7.19-3.41a17.75,17.75,0,0,0-4-.2c-1.55.3-3.36,1.81-4.44,1.35-1.74-.75-3,.13-4.5.07a7.08,7.08,0,0,1-5.77-2.59,25,25,0,0,0-3-3c-1.14-1-2.36-2-4-3.38-1.56.06-4.06-1-4.67-2.21-.82-1.71-.28-3.87,1.65-5.72,1.35-1.29,2.88-2.4,4.33-3.59-2-.78-3.76-1.39-5.4-1.23-2,.19-3.14-.78-2.88-2.28.48-2.7-1.34-5.64,1.75-8.26,1.61-1.36,2.88-3.36,4.89-4.53.41-.24.9-1,.78-1.35-.61-1.65-1.05-3.59-2.23-4.75-2.26-2.23-2.65-2.76-1.8-5.09-1.45-2.77-3-5-3.78-7.44-1.21-4,3-7.8,7-6.53,1.18.38,1.68-.06,1.77-1.14,0-.57-.31-1.27-.09-1.72a14.07,14.07,0,0,1,2.34-3.93c1-1,2.38-.63,3.54.35.25.21,1.3-.08,1.57-.45,1.54-2.12,4-2.67,5.95-1.11a27.16,27.16,0,0,1,2.17,2.31c-.26-4,2.06-5.59,5-6.63-5.33-.61-6.6-1.91-7.09-7.12A12.29,12.29,0,0,0,85,179.3c-1.15-3.41-1.48-6.78.36-10.08-1.38-1.37-1.12-3,.33-4.86a7,7,0,0,0,1-3.25,16.66,16.66,0,0,0-.31-2.58c-.1-3,1.06-4.29,4.15-4.55-2.34-1-2.86-2.42-1.24-4.28a.88.88,0,0,0,.24-.5c0-3.58,2.15-5.06,5.72-4.13a1.68,1.68,0,0,0,1.43-.81c.8-3.95,2.22-4.79,6-3.4a2.65,2.65,0,0,0,.85.13c1.74,0,3.73.32,4.16,2a14.29,14.29,0,0,0,1.72,4.39c.13.2-.33.76-.47,1.16s-.26.88-.44,1.53c2.69-1.65,3-1.57,4.38.59h5.18l.21,2c.57.1,1.52.06,1.62.33.76,2.06,2.35,1.09,3,1.17l-2.13-3.78c-1.69.09-3.22-3.1-6-1.64-.1.05-.37-.18-.53-.32-1.46-1.25-2.89-2.55-2.61-4.72s-.74-4.77,1.76-6.36a.76.76,0,0,0,.35-.52c-.2-3.23,2.63-4.8,4-7.15a3.25,3.25,0,0,1,2.4-1.31c1.18,0,2.37-1.39,3.7.18.54.64,2.16.37,3.29.51l.26.85a3.32,3.32,0,0,0,.35-.8c.45-3,2.74-3.71,5.23-4.3a3.42,3.42,0,0,0,1.86-1.52,7.69,7.69,0,0,1,6.23-3.88c2.76-.28,5.43-.25,8,1.15,1.49.82,2.69.62,3.24-1.41.84-3.06,6.56-6.21,9.76-5.56,2.78.57,3.86,2.93,2.46,5.36a1.77,1.77,0,0,0-.32,1c.24,2.06.18,4.25.92,6.12a10.5,10.5,0,0,0,3.51,4.41c.62.44,2.35-.66,3.26-1l-.62-3.09c-1-1.44-1.88-2.52-2.6-3.68-1.48-2.37-.7-4.66,1-6.33a16.66,16.66,0,0,1,6.07-4.17c1.92-.62,4.29.15,6.46.33.54,0,1.06.21,1.59.27,1.37.16,2.88,0,4.07.51a26.12,26.12,0,0,1,4.26,3l-.52.78.18-.38c1.11.24,2,.52,3,.62.71.08,1.45-.12,2.18-.11,3.21.07,3.88.65,4.62,3.73.57,2.38,1.21,4.73,2,7.71l12.92-2.25a18.73,18.73,0,0,1,4-.7c3.44.18,6.86.63,10.29.94a3.64,3.64,0,0,0,1.46-.19,8.44,8.44,0,0,1,7.75,2.09c.85,1,1.69,2.32,3.24,1.48s2.87-.58,3.49.68c1.47-.12,2.72-.53,3.76-.23s2.07,1.35,3.12,2,1.83,1.23.7,2.43c2.53,1.38,2.63,2.95.89,4.56l-1.3,5.81,2.73-.77-.21.57a33,33,0,0,1,3.62,2.16,4.28,4.28,0,0,1,1.74,2.28c.35,2.41,1.47,5.07-1.19,7-.05,0,0,.27.1.71a13,13,0,0,0,1.74.12c1.94-.11,2.71.76,2.17,2.59-.22.77-.71,1.46-.87,2.24-.64,3-.1,6.37,2.27,6.92a31.91,31.91,0,0,0,6.28.88c.58,0,1.26-1.17,1.76-1.9.36-.52.31-1.46.75-1.75,2.08-1.37,4.26-2.6,6.44-3.81a1.34,1.34,0,0,1,1.23.12,30.13,30.13,0,0,1,4.62,4.46c1.36,1.88-.59,3.1-1.56,4.17a15.78,15.78,0,0,1,2.4,2.83c.65,1.29,1.24,2.37,2.8,2.71a8.54,8.54,0,0,1,2.35,1.12c1.84,1.08,2.48,3.68,1.12,4.82-2,1.67-4.11,3.2-6.13,4.76,1.38.59,3,.89,4,1.81,1.3,1.12,2,2.9,3.26,4.11a14.28,14.28,0,0,0,3.37,1.89c.36.19.73.36,1.33.66l-2.07.74c1.09,1.61,2,3.14,3.07,4.46s2.66,2.51,3.84,3.9c.66.78,1.6,2.32,1.31,2.73-.84,1.17.08,1.33.57,1.82s1.36,1,1.61,1.66a21.92,21.92,0,0,1,1.74,6,17.75,17.75,0,0,1-.93,6.54c-.26.78-2,1.09-2.6,1.4-.23,1.62-.08,3.34-.75,4.62a7.83,7.83,0,0,1-3.37,3.12,13.15,13.15,0,0,1-4.78,1c-3.68.25-4.66-.35-5.81-3-.69.38-1.35.82-2.07,1.13-1.3.56-2.62,1.07-4,1.54a7.08,7.08,0,0,1-2.11.49c-1.38,0-1.71.55-1.08,1.77,1.37,2.63,2.66,5.3,4.1,7.89a2.58,2.58,0,0,0,1.64,1.16c3,.44,5-.84,4.73-5.62.66-.05,1.5-.39,2-.11a16.48,16.48,0,0,1,6.11,6.42c.15.28-.49,1.22-1,1.57a25.47,25.47,0,0,1-2.83,1.63l.86,5.56c1.25-2.67,1.55.62,2.55.05l.94-1.1c1.54.92,2.94,1.83,4.41,2.59a1.71,1.71,0,0,0,1.33-.31c.15-2.52,2.08-1.83,3.45-1.88l1.06-2.36.83-.07c.49,1.36,1,2.71,1.47,4.07a5.31,5.31,0,0,0,.51,1.57C316.48,258.94,318.08,260.73,319.65,262.54ZM174.23,321.2h0ZM160.35,186.81l.05,0,.1.25ZM72.21,223.67l0,.62h3.08l-.05-.92Z"/><path class="cls-2" d="M72.21,223.67l3.05-.3.05.92H72.24Z"/><path class="cls-2" d="M160.36,186.81l.14.23-.1-.25Z"/><path class="cls-2" d="M160.4,186.8l0,0Z"/><path class="cls-2" d="M174.23,321.21h0Z"/><path class="cls-2" d="M174.18,321.22h0Z"/><path class="cls-1" d="M272.68,178.17a20.6,20.6,0,0,1-2.79,3.1c4.51,1,7.13-1.31,9.76-3.74-1.3,2.94-1.89,6-4.78,8-1.95,1.3-1.6,2.08.63,3,.52.21,1.22.8,1.25,1.24a2.3,2.3,0,0,1-.82,1.84c-1.82,1-3.76,1.76-5.87,2.72.56.64.67.87.84.94,3.19,1.24,4.48,3.21,4.54,6.5,0,1.08.28,2.86.89,3.09,1.22.46.93,1.06.94,1.87a14.26,14.26,0,0,0,.35,2.17l1.09-.05c.08-.89.2-1.78.22-2.67,0-1.41-1.07-3,.88-4-1.71-1.09-2-2.54-1-4.06.54-.79,1.5-1.56,1.54-2.37a4.72,4.72,0,0,1,2.14-3.8,4.34,4.34,0,0,0,1.8-4.15,9.69,9.69,0,0,1,.59-2.6l.68.05,1.2,2.17c1.5-1.58,1.5-1.58,2.29-.63L287.12,188a37.08,37.08,0,0,1,4.59,3.09c1.27,1.16,1.82,1.51,2.71-.39a4.12,4.12,0,0,1,3-1.64,6.4,6.4,0,0,1,3.32.92c1.58.81,2.41,2.05,1.46,3.95a7.91,7.91,0,0,0-.77,2.65,28.36,28.36,0,0,0,0,3.27,19.12,19.12,0,0,1,1.28,3.92c.16,1.72-1.53,1.54-2.58,2-2.21,1-4.37,2.06-7.19,3.41a17.75,17.75,0,0,0,4,.2c1.55-.3,3.36-1.81,4.44-1.35,1.74.75,3-.13,4.5-.07a7.08,7.08,0,0,1,5.77,2.59,25,25,0,0,0,3,3c1.14,1,2.36,2,4,3.38,1.56-.06,4.06,1,4.67,2.21.82,1.71.28,3.87-1.65,5.72-1.35,1.29-2.88,2.4-4.33,3.59,2,.78,3.76,1.39,5.4,1.23,2-.19,3.14.78,2.88,2.28-.48,2.7,1.34,5.64-1.75,8.26-1.61,1.36-2.88,3.36-4.89,4.53-.41.24-.9,1-.78,1.35.61,1.65,1.05,3.59,2.23,4.75,2.26,2.23,2.65,2.76,1.8,5.09,1.45,2.77,3,5,3.78,7.44,1.21,4-3,7.8-7,6.53-1.18-.38-1.68.06-1.77,1.14,0,.57.31,1.27.09,1.72a14.07,14.07,0,0,1-2.34,3.93c-1,1-2.38.63-3.54-.35-.25-.21-1.3.08-1.57.45-1.54,2.12-4,2.67-5.95,1.11a27.16,27.16,0,0,1-2.17-2.31c.26,4-2.06,5.59-5,6.63,5.33.61,6.6,1.91,7.09,7.12a12.29,12.29,0,0,0,.55,2.76c1.15,3.41,1.48,6.78-.36,10.08,1.38,1.37,1.12,3-.33,4.86a7,7,0,0,0-1,3.25,16.66,16.66,0,0,0,.31,2.58c.1,3-1.06,4.29-4.15,4.55,2.34,1,2.86,2.42,1.24,4.28a.88.88,0,0,0-.24.5c0,3.58-2.15,5.06-5.72,4.13a1.68,1.68,0,0,0-1.43.81c-.8,3.95-2.22,4.79-6,3.4a2.65,2.65,0,0,0-.85-.13c-1.74,0-3.73-.32-4.16-2a14.29,14.29,0,0,0-1.72-4.39c-.13-.2.33-.76.47-1.16s.26-.88.44-1.53c-2.69,1.65-3,1.57-4.38-.59h-5.18l-.21-2c-.57-.1-1.52-.06-1.62-.33-.76-2.06-2.35-1.09-3-1.17l2.13,3.78c1.69-.09,3.22,3.1,6,1.64.1-.05.37.18.53.32,1.46,1.25,2.89,2.55,2.61,4.72s.74,4.77-1.76,6.36a.76.76,0,0,0-.35.52c.2,3.23-2.63,4.8-4,7.15A3.25,3.25,0,0,1,269,343c-1.18,0-2.37,1.39-3.7-.18-.54-.64-2.16-.37-3.29-.51l-.26-.85a3.32,3.32,0,0,0-.35.8c-.45,3-2.74,3.71-5.23,4.3a3.42,3.42,0,0,0-1.86,1.52,7.69,7.69,0,0,1-6.23,3.88c-2.76.28-5.43.25-8-1.15-1.49-.82-2.69-.62-3.24,1.41-.84,3.06-6.56,6.21-9.76,5.56-2.78-.57-3.86-2.93-2.46-5.36a1.77,1.77,0,0,0,.32-1c-.24-2.06-.18-4.25-.92-6.12a10.5,10.5,0,0,0-3.51-4.41c-.62-.44-2.35.66-3.26,1l.62,3.09c1,1.44,1.88,2.52,2.6,3.68,1.48,2.37.7,4.66-1,6.33a16.66,16.66,0,0,1-6.07,4.17c-1.92.62-4.29-.15-6.46-.33-.54,0-1.06-.21-1.59-.27-1.37-.16-2.88,0-4.07-.51a26.12,26.12,0,0,1-4.26-3l.52-.78-.18.38c-1.11-.24-2-.52-3-.62-.71-.08-1.45.12-2.18.11-3.21-.07-3.88-.65-4.62-3.73-.57-2.38-1.21-4.73-2-7.71L172.71,345a18.73,18.73,0,0,1-4,.7c-3.44-.18-6.86-.63-10.29-.94a3.64,3.64,0,0,0-1.46.19,8.44,8.44,0,0,1-7.75-2.09c-.85-1-1.69-2.32-3.24-1.48s-2.87.58-3.49-.68c-1.47.12-2.72.53-3.76.23s-2.07-1.35-3.12-2-1.83-1.23-.7-2.43c-2.53-1.38-2.63-2.95-.89-4.56l1.3-5.81-2.73.77.21-.57a33,33,0,0,1-3.62-2.16,4.28,4.28,0,0,1-1.74-2.28c-.35-2.41-1.47-5.07,1.19-7,.05,0,0-.27-.1-.71a13,13,0,0,0-1.74-.12c-1.94.11-2.71-.76-2.17-2.59.22-.77.71-1.46.87-2.24.64-3,.1-6.37-2.27-6.92m105.76-17.62-.05,0-.1-.25Zm88.14-36.86,0-.62H314l.05.92Z"/><path class="cls-2" d="M317.07,247.76l-3.05.3-.05-.92h3.08Z"/><path class="cls-2" d="M228.93,284.62l-.14-.23.1.25Z"/><path class="cls-2" d="M228.88,284.63l0,0Z"/><path class="cls-1" d="M236.26,304.09a20.6,20.6,0,0,1-3.1-2.79c-1,4.51,1.31,7.13,3.74,9.76-2.94-1.3-6-1.89-8-4.78-1.3-1.95-2.08-1.6-3,.63-.21.52-.8,1.22-1.24,1.25a2.3,2.3,0,0,1-1.84-.82c-1-1.82-1.76-3.76-2.72-5.87-.64.56-.87.67-.94.84-1.24,3.19-3.21,4.48-6.5,4.54-1.08,0-2.86.28-3.09.89-.46,1.22-1.06.93-1.87.94a14.26,14.26,0,0,0-2.17.35l.05,1.09c.89.08,1.78.2,2.67.22,1.41,0,3-1.07,4,.88,1.09-1.71,2.54-2,4.06-1,.79.54,1.56,1.5,2.37,1.54a4.72,4.72,0,0,1,3.8,2.14,4.34,4.34,0,0,0,4.15,1.8,9.69,9.69,0,0,1,2.6.59l-.05.68-2.17,1.2c1.58,1.5,1.58,1.5.63,2.29l-1.31-1.94a37.08,37.08,0,0,1-3.09,4.59c-1.16,1.27-1.51,1.82.39,2.71a4.12,4.12,0,0,1,1.64,3,6.4,6.4,0,0,1-.92,3.32c-.81,1.58-2.05,2.41-3.95,1.46a7.91,7.91,0,0,0-2.65-.77,28.36,28.36,0,0,0-3.27,0,19.12,19.12,0,0,1-3.92,1.28c-1.72.16-1.54-1.53-2-2.58-1-2.21-2.06-4.37-3.41-7.19a17.75,17.75,0,0,0-.2,4c.3,1.55,1.81,3.36,1.35,4.44-.75,1.74.13,3,.07,4.5a7.08,7.08,0,0,1-2.59,5.77,25,25,0,0,0-3,3c-1,1.14-2,2.36-3.38,4,.06,1.56-1,4.06-2.21,4.67-1.71.82-3.87.28-5.72-1.65-1.29-1.35-2.4-2.88-3.59-4.33-.78,2-1.39,3.76-1.23,5.4.19,2-.78,3.14-2.28,2.88-2.7-.48-5.64,1.34-8.26-1.75-1.36-1.61-3.36-2.88-4.53-4.89-.24-.41-1-.9-1.35-.78-1.65.61-3.59,1.05-4.75,2.23-2.23,2.26-2.76,2.65-5.09,1.8-2.77,1.45-5,3-7.44,3.78-4,1.21-7.8-3-6.53-7,.38-1.18-.06-1.68-1.14-1.77-.57,0-1.27.31-1.72.09a14.07,14.07,0,0,1-3.93-2.34c-1-1-.63-2.38.35-3.54.21-.25-.08-1.3-.45-1.57-2.12-1.54-2.67-4-1.11-5.95A27.16,27.16,0,0,1,138.8,333c-4,.26-5.59-2.06-6.63-5-.61,5.33-1.91,6.6-7.12,7.09a12.29,12.29,0,0,0-2.76.55c-3.41,1.15-6.78,1.48-10.08-.36-1.37,1.38-3,1.12-4.86-.33a7,7,0,0,0-3.25-1,16.66,16.66,0,0,0-2.58.31c-3,.1-4.29-1.06-4.55-4.15-1,2.34-2.42,2.86-4.28,1.24a.88.88,0,0,0-.5-.24c-3.58,0-5.06-2.15-4.13-5.72a1.68,1.68,0,0,0-.81-1.43c-3.95-.8-4.79-2.22-3.4-6a2.65,2.65,0,0,0,.13-.85c0-1.74.32-3.73,2-4.16a14.29,14.29,0,0,0,4.39-1.72c.2-.13.76.33,1.16.47s.88.26,1.53.44c-1.65-2.69-1.57-3,.59-4.38v-5.18l2-.21c.1-.57.06-1.52.33-1.62,2.06-.76,1.09-2.35,1.17-3l-3.78,2.13c.09,1.69-3.1,3.22-1.64,6,.05.1-.18.37-.32.53-1.25,1.46-2.55,2.89-4.72,2.61s-4.77.74-6.36-1.76a.76.76,0,0,0-.52-.35c-3.23.2-4.8-2.63-7.15-4a3.25,3.25,0,0,1-1.31-2.4c0-1.18-1.39-2.37.18-3.7.64-.54.37-2.16.51-3.29l.85-.26a3.32,3.32,0,0,0-.8-.35c-3-.45-3.71-2.74-4.3-5.23a3.42,3.42,0,0,0-1.52-1.86,7.69,7.69,0,0,1-3.88-6.23c-.28-2.76-.25-5.43,1.15-8,.82-1.49.62-2.69-1.41-3.24-3.06-.84-6.21-6.56-5.56-9.76.57-2.78,2.93-3.86,5.36-2.46a1.77,1.77,0,0,0,1,.32c2.06-.24,4.25-.18,6.12-.92A10.5,10.5,0,0,0,73.47,252c.44-.62-.66-2.35-1-3.26l-3.09.62c-1.44,1-2.52,1.88-3.68,2.6-2.37,1.48-4.66.7-6.33-1a16.66,16.66,0,0,1-4.17-6.07c-.62-1.92.15-4.29.33-6.46,0-.54.21-1.06.27-1.59.16-1.37,0-2.88.51-4.07a26.12,26.12,0,0,1,3-4.26l.78.52-.38-.18c.24-1.11.52-2,.62-3,.08-.71-.12-1.45-.11-2.18.07-3.21.65-3.88,3.73-4.62,2.38-.57,4.73-1.21,7.71-2-.74-4.24-1.49-8.58-2.25-12.92a18.73,18.73,0,0,1-.7-4c.18-3.44.63-6.86.94-10.29a3.64,3.64,0,0,0-.19-1.46,8.44,8.44,0,0,1,2.09-7.75c1-.85,2.32-1.69,1.48-3.24s-.58-2.87.68-3.49c-.12-1.47-.53-2.72-.23-3.76s1.35-2.07,2-3.12,1.23-1.83,2.43-.7c1.38-2.53,2.95-2.63,4.56-.89l5.81,1.3L87.6,164l.57.21a33,33,0,0,1,2.16-3.62,4.28,4.28,0,0,1,2.28-1.74c2.41-.35,5.07-1.47,7,1.19,0,.05.27,0,.71-.1a13,13,0,0,0,.12-1.74c-.11-1.94.76-2.71,2.59-2.17.77.22,1.46.71,2.24.87,3,.64,6.37.1,6.92-2.27m17.62,105.76,0-.05.25-.1Zm36.86,88.14.62,0v-3.08l-.92.05Z"/><path class="cls-2" d="M166.67,348.49l-.3-3.05.92-.05v3.08Z"/><path class="cls-2" d="M129.81,260.35l.23-.14-.25.1Z"/><path class="cls-2" d="M129.8,260.3l0,0Z"/><path class="cls-1" d="M264.65,286.54v1.31l-3,4.41c1.7,2.24,2,3.17,1.1,5.1-1.34,3-4,3.12-7.45,2.92,3.93,3.16,1.6,6.12.37,8.75-1.88,4-5.34,2-7.9,1.3-.21,2.11-.08,4-.71,5.68a3.87,3.87,0,0,1-3,1.82c-.82,0-1.78-1.32-2.4-2.24a9.46,9.46,0,0,1-.81-2.66c.26,1.72-1.49,3.39-.09,5.21a1.65,1.65,0,0,1-.45,1.54c-2.49,1.25-1.6,4.07-3,5.65,1,1.46,3.93,1,3.31,3.4a2.73,2.73,0,0,1-3.75,2l-2.66,7.13c1.6,1.45.13,3.19-.22,4.8a3.49,3.49,0,0,1-6.18,1.68,34.6,34.6,0,0,1-3.12-5.13,6.53,6.53,0,0,0-1.08-1.8c-1.25-1-2.64-1.89-4-2.82-.61-.43-1.24-.75-1.8-1.17-.72-.55-1.32-1.26-2.07-1.75-2.16-1.44-4.45-2.69-6.49-4.27a4.56,4.56,0,0,1-1.29-2.86,23.3,23.3,0,0,1,.14-4.07h-9.33c1,2.33,4.91.28,5,2.87a30,30,0,0,1,2.45,2.5c.58.76.86,1.76,1.47,2.5,1,1.23,2.18,2.35,3.32,3.48a12,12,0,0,0,1.89,1.62c1.3.84,2.67,1.56,4,2.35a15.66,15.66,0,0,0,2.78,1.67c2,.65,2.8,2.4,1.74,4.22l.85.22c3,.77,3.8,3.19,2,5.58-.73,1-1.23,2.09-1.93,3.08-.84,1.19-1.76,2.33-2.69,3.45a16.75,16.75,0,0,0-2.15,2.44c-.78,1.46-1.43,2.53-3.41,2.85-1.6.26-2.94,1.88-4.52,2.67-1.75.88-2,4.18-5.26,2.77a6.58,6.58,0,0,1,.52,2.12,2.24,2.24,0,0,1-1,1.6c-2.58,1-5.11,1.32-7-1.46a30.92,30.92,0,0,0-2.34-3.19,6,6,0,0,0-2.09-1.67c-1.75-.71-3-2.71-2.52-4.27s1.08-3.16,1.46-4.77A6,6,0,0,0,191,351c-3.9,1.62-7.58,2.2-11.33.51a1.81,1.81,0,0,0-1-.13c-1.17.25-2.31.68-3.49.83-2.68.34-3.79-.71-4.18-3.47a39.21,39.21,0,0,0-1.13-4.43l-.55.13c.17,1.27.27,2.56.51,3.82.43,2.22-1.51,2.74-2.75,3.38-.86.45-2.77.29-3.3-.35-1.3-1.57-3.43-2.66-3.37-5.27,0-.84-1.07-1.71-1.51-2.36-1.94,1.24-3.57,2.26-5.17,3.31a3.88,3.88,0,0,0-1,.85,5.28,5.28,0,0,1-6.69,1.22,2.93,2.93,0,0,0-1.63-.19c-.7,0-1.38.23-2.59.44.36,1.1.83,2.73,1.42,4.33.66,1.79.21,3.74-1.28,4.32a24.08,24.08,0,0,1-4.57,1.34c-2.49.44-3.36-.48-3.93-3.81-2.44,0-3.06-.6-3.13-2.84,0-.58,0-1.17,0-1.75,0-1.46,0-2.88,2.26-2.1.41.14,1.14-.35,1.58-.71a1.17,1.17,0,0,0,0-1.08c-1.35-.76-.93-1.65-.51-2.78a2.24,2.24,0,0,0-1.59-3.11c-1.35-.39-2.73-.32-3.25,1.58a7.52,7.52,0,0,1-1.58,2.51c-.14.17-.79-.07-1.59-.17.34,1.45.23,4,1.17,4.43,2.87,1.47,1.65,4.09,2.39,6.1.12.33,0,1.07-.27,1.18-1.69.83-1.3,2.4-1.58,3.79a5.73,5.73,0,0,1-1.32,2.78,11,11,0,0,1-2.74,1.6,18.31,18.31,0,0,1,.63,2.45c.21,2.07-1.74,4.35-3.49,3.8-2.45-.76-4.24.14-6,1.53-1.94,1.52-3.79,1.21-5.13-.86-.29-.45-.6-.9-1.07-1.61-1.84,2.51-3.59,2-5.47.34a26.92,26.92,0,0,0-3.91-2.68,2,2,0,0,0-1.56-.12c-2.5,1.11-5,2.24-7.4,3.54-1.45.79-2.44.61-3.3-.77-.37,2.52-.87,3.05-3.45,3.21a3.31,3.31,0,0,1-2.4-.63,55.12,55.12,0,0,1-3.52-5c-2.07,1-3.94-.2-5.79-1.86a3.32,3.32,0,0,0-2.5-.91c-3.24.85-6.21-.29-9.21-1-1.4-.34-3.35-.4-3.37-2.7,0-.2-.68-.54-1.05-.57-2-.14-3-1.6-4-3.08a3.57,3.57,0,0,0-1.67-1.4c-2.42-.77-4.41-4.21-3.56-6.59a3,3,0,0,1,1.35-1.26c1.74,1.38,1.69-.67,2.58-1.28-2.66-.23-3.6-2.19-5.09-3.88-2.09-2.38-1.94-4.63-1.45-7.26a5.37,5.37,0,0,0-.32-2.28c-.5-1.8-1.7-3.65-1.5-5.35.31-2.63,2.49-4.42,4.81-5.53.68-.33,2,.59,3,.92a3,3,0,0,0,.63.07l-.34-.52a32,32,0,0,1,4.2-3.22,9,9,0,0,1,4.37-1.22,3.11,3.11,0,0,0,3.23-1.87,20.6,20.6,0,0,1,2.79-3.1c-4.51-1-7.13,1.31-9.76,3.74,1.3-2.94,1.89-6,4.78-8,1.95-1.3,1.6-2.08-.63-3-.52-.21-1.22-.8-1.25-1.24a2.3,2.3,0,0,1,.82-1.84c1.82-1,3.76-1.76,5.87-2.72-.56-.64-.67-.87-.84-.94-3.19-1.24-4.48-3.21-4.54-6.5,0-1.08-.28-2.86-.89-3.09-1.22-.46-.93-1.06-.94-1.87a14.26,14.26,0,0,0-.35-2.17l-1.09.05c-.08.89-.2,1.78-.22,2.67,0,1.41,1.07,3-.88,4,1.71,1.09,2,2.54,1,4.06-.54.79-1.5,1.56-1.54,2.37a4.72,4.72,0,0,1-2.14,3.8,4.34,4.34,0,0,0-1.8,4.15,9.69,9.69,0,0,1-.59,2.6l-.68-.05-1.2-2.17c-1.5,1.58-1.5,1.58-2.29.63l1.94-1.31a37.08,37.08,0,0,1-4.59-3.09c-1.27-1.16-1.82-1.51-2.71.39a4.12,4.12,0,0,1-3,1.64,6.4,6.4,0,0,1-3.32-.92c-1.58-.81-2.41-2.05-1.46-3.95a7.91,7.91,0,0,0,.77-2.65,28.36,28.36,0,0,0,0-3.27,19.12,19.12,0,0,1-1.28-3.92c-.16-1.72,1.53-1.54,2.58-2,2.21-1,4.37-2.06,7.19-3.41a17.75,17.75,0,0,0-4-.2c-1.55.3-3.36,1.81-4.44,1.35-1.74-.75-3,.13-4.5.07a7.08,7.08,0,0,1-5.77-2.59,25,25,0,0,0-3-3c-1.14-1-2.36-2-4-3.38-1.56.06-4.06-1-4.67-2.21-.82-1.71-.28-3.87,1.65-5.72,1.35-1.29,2.88-2.4,4.33-3.59-2-.78-3.76-1.39-5.4-1.23-2,.19-3.14-.78-2.88-2.28.48-2.7-1.34-5.64,1.75-8.26,1.61-1.36,2.88-3.36,4.89-4.53.41-.24.9-1,.78-1.35-.61-1.65-1.05-3.59-2.23-4.75-2.26-2.23-2.65-2.76-1.8-5.09-1.45-2.77-3-5-3.78-7.44-1.21-4,3-7.8,7-6.53,1.18.38,1.68-.06,1.77-1.14,0-.57-.31-1.27-.09-1.72a14.07,14.07,0,0,1,2.34-3.93c1-1,2.38-.63,3.54.35.25.21,1.3-.08,1.57-.45,1.54-2.12,4-2.67,5.95-1.11a27.16,27.16,0,0,1,2.17,2.31c-.26-4,2.06-5.59,5-6.63-5.33-.61-6.6-1.91-7.09-7.12A12.29,12.29,0,0,0,30,203.3c-1.15-3.41-1.48-6.78.36-10.08-1.38-1.37-1.12-3,.33-4.86a7,7,0,0,0,1-3.25,16.66,16.66,0,0,0-.31-2.58c-.1-3,1.06-4.29,4.15-4.55-2.34-1-2.86-2.42-1.24-4.28a.88.88,0,0,0,.24-.5c0-3.58,2.15-5.06,5.72-4.13a1.68,1.68,0,0,0,1.43-.81c.8-3.95,2.22-4.79,6-3.4a2.65,2.65,0,0,0,.85.13c1.74,0,3.73.32,4.16,2a14.29,14.29,0,0,0,1.72,4.39c.13.2-.33.76-.47,1.16s-.26.88-.44,1.53c2.69-1.65,3-1.57,4.38.59h5.18l.21,2c.57.1,1.52.06,1.62.33.76,2.06,2.35,1.09,3,1.17l-2.13-3.78c-1.69.09-3.22-3.1-6-1.64-.1.05-.37-.18-.53-.32-1.46-1.25-2.89-2.55-2.61-4.72S56,163,58.49,161.39a.76.76,0,0,0,.35-.52c-.2-3.23,2.63-4.8,4-7.15a3.25,3.25,0,0,1,2.4-1.31c1.18,0,2.37-1.39,3.7.18.54.64,2.16.37,3.29.51l.26.85a3.32,3.32,0,0,0,.35-.8c.45-3,2.74-3.71,5.23-4.3a3.42,3.42,0,0,0,1.86-1.52,7.69,7.69,0,0,1,6.23-3.88c2.76-.28,5.43-.25,8,1.15,1.49.82,2.69.62,3.24-1.41.84-3.06,6.56-6.21,9.76-5.56,2.78.57,3.86,2.93,2.46,5.36a1.77,1.77,0,0,0-.32,1c.24,2.06.18,4.25.92,6.12a10.5,10.5,0,0,0,3.51,4.41c.62.44,2.35-.66,3.26-1l-.62-3.09c-1-1.44-1.88-2.52-2.6-3.68-1.48-2.37-.7-4.66,1-6.33a16.66,16.66,0,0,1,6.07-4.17c1.92-.62,4.29.15,6.46.33.54,0,1.06.21,1.59.27,1.37.16,2.88,0,4.07.51a26.12,26.12,0,0,1,4.26,3l-.52.78.18-.38c1.11.24,2,.52,3,.62.71.08,1.45-.12,2.18-.11,3.21.07,3.88.65,4.62,3.73.57,2.38,1.21,4.73,2,7.71l12.92-2.25a18.73,18.73,0,0,1,4-.7c3.44.18,6.86.63,10.29.94a3.64,3.64,0,0,0,1.46-.19,8.44,8.44,0,0,1,7.75,2.09c.85,1,1.69,2.32,3.24,1.48s2.87-.58,3.49.68c1.47-.12,2.72-.53,3.76-.23s2.07,1.35,3.12,2,1.83,1.23.7,2.43c2.53,1.38,2.63,2.95.89,4.56l-1.3,5.81,2.73-.77-.21.57a33,33,0,0,1,3.62,2.16,4.28,4.28,0,0,1,1.74,2.28c.35,2.41,1.47,5.07-1.19,7-.05,0,0,.27.1.71a13,13,0,0,0,1.74.12c1.94-.11,2.71.76,2.17,2.59-.22.77-.71,1.46-.87,2.24-.64,3-.1,6.37,2.27,6.92a31.91,31.91,0,0,0,6.28.88c.58,0,1.26-1.17,1.76-1.9.36-.52.31-1.46.75-1.75,2.08-1.37,4.26-2.6,6.44-3.81a1.34,1.34,0,0,1,1.23.12,30.13,30.13,0,0,1,4.62,4.46c1.36,1.88-.59,3.1-1.56,4.17a15.78,15.78,0,0,1,2.4,2.83c.65,1.29,1.24,2.37,2.8,2.71a8.54,8.54,0,0,1,2.35,1.12c1.84,1.08,2.48,3.68,1.12,4.82-2,1.67-4.11,3.2-6.13,4.76,1.38.59,3,.89,4,1.81,1.3,1.12,2,2.9,3.26,4.11a14.28,14.28,0,0,0,3.37,1.89c.36.19.73.36,1.33.66l-2.07.74c1.09,1.61,2,3.14,3.07,4.46s2.66,2.51,3.84,3.9c.66.78,1.6,2.32,1.31,2.73-.84,1.17.08,1.33.57,1.82s1.36,1,1.61,1.66a21.92,21.92,0,0,1,1.74,6,17.75,17.75,0,0,1-.93,6.54c-.26.78-2,1.09-2.6,1.4-.23,1.62-.08,3.34-.75,4.62a7.83,7.83,0,0,1-3.37,3.12,13.15,13.15,0,0,1-4.78,1c-3.68.25-4.66-.35-5.81-3-.69.38-1.35.82-2.07,1.13-1.3.56-2.62,1.07-4,1.54a7.08,7.08,0,0,1-2.11.49c-1.38,0-1.71.55-1.08,1.77,1.37,2.63,2.66,5.3,4.1,7.89a2.58,2.58,0,0,0,1.64,1.16c3,.44,5-.84,4.73-5.62.66-.05,1.5-.39,2-.11a16.48,16.48,0,0,1,6.11,6.42c.15.28-.49,1.22-1,1.57a25.47,25.47,0,0,1-2.83,1.63l.86,5.56c1.25-2.67,1.55.62,2.55.05l.94-1.1c1.54.92,2.94,1.83,4.41,2.59a1.71,1.71,0,0,0,1.33-.31c.15-2.52,2.08-1.83,3.45-1.88l1.06-2.36.83-.07c.49,1.36,1,2.71,1.47,4.07a5.31,5.31,0,0,0,.51,1.57C261.48,282.94,263.08,284.73,264.65,286.54ZM119.23,345.2h0ZM105.35,210.81l.05,0,.1.25ZM17.21,247.67l0,.62h3.08l-.05-.92Z"/><path class="cls-2" d="M17.21,247.67l3.05-.3.05.92H17.24Z"/><path class="cls-2" d="M105.36,210.81l.14.23-.1-.25Z"/><path class="cls-2" d="M105.4,210.8l0,0Z"/><path class="cls-2" d="M119.23,345.21h0Z"/><path class="cls-2" d="M119.18,345.22h0Z"/><path class="cls-1" d="M217.68,202.17a20.6,20.6,0,0,1-2.79,3.1c4.51,1,7.13-1.31,9.76-3.74-1.3,2.94-1.89,6-4.78,8-1.95,1.3-1.6,2.08.63,3,.52.21,1.22.8,1.25,1.24a2.3,2.3,0,0,1-.82,1.84c-1.82,1-3.76,1.76-5.87,2.72.56.64.67.87.84.94,3.19,1.24,4.48,3.21,4.54,6.5,0,1.08.28,2.86.89,3.09,1.22.46.93,1.06.94,1.87a14.26,14.26,0,0,0,.35,2.17l1.09-.05c.08-.89.2-1.78.22-2.67,0-1.41-1.07-3,.88-4-1.71-1.09-2-2.54-1-4.06.54-.79,1.5-1.56,1.54-2.37a4.72,4.72,0,0,1,2.14-3.8,4.34,4.34,0,0,0,1.8-4.15,9.69,9.69,0,0,1,.59-2.6l.68.05,1.2,2.17c1.5-1.58,1.5-1.58,2.29-.63L232.12,212a37.08,37.08,0,0,1,4.59,3.09c1.27,1.16,1.82,1.51,2.71-.39a4.12,4.12,0,0,1,3-1.64,6.4,6.4,0,0,1,3.32.92c1.58.81,2.41,2.05,1.46,3.95a7.91,7.91,0,0,0-.77,2.65,28.36,28.36,0,0,0,0,3.27,19.12,19.12,0,0,1,1.28,3.92c.16,1.72-1.53,1.54-2.58,2-2.21,1-4.37,2.06-7.19,3.41a17.75,17.75,0,0,0,4,.2c1.55-.3,3.36-1.81,4.44-1.35,1.74.75,3-.13,4.5-.07a7.08,7.08,0,0,1,5.77,2.59,25,25,0,0,0,3,3c1.14,1,2.36,2,4,3.38,1.56-.06,4.06,1,4.67,2.21.82,1.71.28,3.87-1.65,5.72-1.35,1.29-2.88,2.4-4.33,3.59,2,.78,3.76,1.39,5.4,1.23,2-.19,3.14.78,2.88,2.28-.48,2.7,1.34,5.64-1.75,8.26-1.61,1.36-2.88,3.36-4.89,4.53-.41.24-.9,1-.78,1.35.61,1.65,1.05,3.59,2.23,4.75,2.26,2.23,2.65,2.76,1.8,5.09,1.45,2.77,3,5,3.78,7.44,1.21,4-3,7.8-7,6.53-1.18-.38-1.68.06-1.77,1.14,0,.57.31,1.27.09,1.72a14.07,14.07,0,0,1-2.34,3.93c-1,1-2.38.63-3.54-.35-.25-.21-1.3.08-1.57.45-1.54,2.12-4,2.67-5.95,1.11a27.16,27.16,0,0,1-2.17-2.31c.26,4-2.06,5.59-5,6.63,5.33.61,6.6,1.91,7.09,7.12a12.29,12.29,0,0,0,.55,2.76c1.15,3.41,1.48,6.78-.36,10.08,1.38,1.37,1.12,3-.33,4.86a7,7,0,0,0-1,3.25,16.66,16.66,0,0,0,.31,2.58c.1,3-1.06,4.29-4.15,4.55,2.34,1,2.86,2.42,1.24,4.28a.88.88,0,0,0-.24.5c0,3.58-2.15,5.06-5.72,4.13a1.68,1.68,0,0,0-1.43.81c-.8,3.95-2.22,4.79-6,3.4a2.65,2.65,0,0,0-.85-.13c-1.74,0-3.73-.32-4.16-2a14.29,14.29,0,0,0-1.72-4.39c-.13-.2.33-.76.47-1.16s.26-.88.44-1.53c-2.69,1.65-3,1.57-4.38-.59h-5.18l-.21-2c-.57-.1-1.52-.06-1.62-.33-.76-2.06-2.35-1.09-3-1.17l2.13,3.78c1.69-.09,3.22,3.1,6,1.64.1-.05.37.18.53.32,1.46,1.25,2.89,2.55,2.61,4.72s.74,4.77-1.76,6.36a.76.76,0,0,0-.35.52c.2,3.23-2.63,4.8-4,7.15A3.25,3.25,0,0,1,214,367c-1.18,0-2.37,1.39-3.7-.18-.54-.64-2.16-.37-3.29-.51l-.26-.85a3.32,3.32,0,0,0-.35.8c-.45,3-2.74,3.71-5.23,4.3a3.42,3.42,0,0,0-1.86,1.52,7.69,7.69,0,0,1-6.23,3.88c-2.76.28-5.43.25-8-1.15-1.49-.82-2.69-.62-3.24,1.41-.84,3.06-6.56,6.21-9.76,5.56-2.78-.57-3.86-2.93-2.46-5.36a1.77,1.77,0,0,0,.32-1c-.24-2.06-.18-4.25-.92-6.12a10.5,10.5,0,0,0-3.51-4.41c-.62-.44-2.35.66-3.26,1l.62,3.09c1,1.44,1.88,2.52,2.6,3.68,1.48,2.37.7,4.66-1,6.33a16.66,16.66,0,0,1-6.07,4.17c-1.92.62-4.29-.15-6.46-.33-.54,0-1.06-.21-1.59-.27-1.37-.16-2.88,0-4.07-.51a26.12,26.12,0,0,1-4.26-3l.52-.78-.18.38c-1.11-.24-2-.52-3-.62-.71-.08-1.45.12-2.18.11-3.21-.07-3.88-.65-4.62-3.73-.57-2.38-1.21-4.73-2-7.71L117.71,369a18.73,18.73,0,0,1-4,.7c-3.44-.18-6.86-.63-10.29-.94a3.64,3.64,0,0,0-1.46.19,8.44,8.44,0,0,1-7.75-2.09c-.85-1-1.69-2.32-3.24-1.48s-2.87.58-3.49-.68c-1.47.12-2.72.53-3.76.23s-2.07-1.35-3.12-2-1.83-1.23-.7-2.43c-2.53-1.38-2.63-2.95-.89-4.56l1.3-5.81-2.73.77.21-.57a33,33,0,0,1-3.62-2.16,4.28,4.28,0,0,1-1.74-2.28c-.35-2.41-1.47-5.07,1.19-7,.05,0,0-.27-.1-.71a13,13,0,0,0-1.74-.12c-1.94.11-2.71-.76-2.17-2.59.22-.77.71-1.46.87-2.24.64-3,.1-6.37-2.27-6.92m105.76-17.62-.05,0-.1-.25Zm88.14-36.86,0-.62H259l.05.92Z"/><path class="cls-2" d="M262.07,271.76l-3.05.3-.05-.92h3.08Z"/><path class="cls-2" d="M173.93,308.62l-.14-.23.1.25Z"/><path class="cls-2" d="M173.88,308.63l0,0Z"/><path class="cls-1" d="M181.26,328.09a20.6,20.6,0,0,1-3.1-2.79c-1,4.51,1.31,7.13,3.74,9.76-2.94-1.3-6-1.89-8-4.78-1.3-1.95-2.08-1.6-3,.63-.21.52-.8,1.22-1.24,1.25a2.3,2.3,0,0,1-1.84-.82c-1-1.82-1.76-3.76-2.72-5.87-.64.56-.87.67-.94.84-1.24,3.19-3.21,4.48-6.5,4.54-1.08,0-2.86.28-3.09.89-.46,1.22-1.06.93-1.87.94a14.26,14.26,0,0,0-2.17.35l.05,1.09c.89.08,1.78.2,2.67.22,1.41,0,3-1.07,4,.88,1.09-1.71,2.54-2,4.06-1,.79.54,1.56,1.5,2.37,1.54a4.72,4.72,0,0,1,3.8,2.14,4.34,4.34,0,0,0,4.15,1.8,9.69,9.69,0,0,1,2.6.59l-.05.68-2.17,1.2c1.58,1.5,1.58,1.5.63,2.29l-1.31-1.94a37.08,37.08,0,0,1-3.09,4.59c-1.16,1.27-1.51,1.82.39,2.71a4.12,4.12,0,0,1,1.64,3,6.4,6.4,0,0,1-.92,3.32c-.81,1.58-2.05,2.41-3.95,1.46a7.91,7.91,0,0,0-2.65-.77,28.36,28.36,0,0,0-3.27,0,19.12,19.12,0,0,1-3.92,1.28c-1.72.16-1.54-1.53-2-2.58-1-2.21-2.06-4.37-3.41-7.19a17.75,17.75,0,0,0-.2,4c.3,1.55,1.81,3.36,1.35,4.44-.75,1.74.13,3,.07,4.5a7.08,7.08,0,0,1-2.59,5.77,25,25,0,0,0-3,3c-1,1.14-2,2.36-3.38,4,.06,1.56-1,4.06-2.21,4.67-1.71.82-3.87.28-5.72-1.65-1.29-1.35-2.4-2.88-3.59-4.33-.78,2-1.39,3.76-1.23,5.4.19,2-.78,3.14-2.28,2.88-2.7-.48-5.64,1.34-8.26-1.75-1.36-1.61-3.36-2.88-4.53-4.89-.24-.41-1-.9-1.35-.78-1.65.61-3.59,1.05-4.75,2.23-2.23,2.26-2.76,2.65-5.09,1.8-2.77,1.45-5,3-7.44,3.78-4,1.21-7.8-3-6.53-7,.38-1.18-.06-1.68-1.14-1.77-.57,0-1.27.31-1.72.09a14.07,14.07,0,0,1-3.93-2.34c-1-1-.63-2.38.35-3.54.21-.25-.08-1.3-.45-1.57-2.12-1.54-2.67-4-1.11-5.95A27.16,27.16,0,0,1,83.8,357c-4,.26-5.59-2.06-6.63-5-.61,5.33-1.91,6.6-7.12,7.09a12.29,12.29,0,0,0-2.76.55c-3.41,1.15-6.78,1.48-10.08-.36-1.37,1.38-3,1.12-4.86-.33a7,7,0,0,0-3.25-1,16.66,16.66,0,0,0-2.58.31c-3,.1-4.29-1.06-4.55-4.15-1,2.34-2.42,2.86-4.28,1.24a.88.88,0,0,0-.5-.24c-3.58,0-5.06-2.15-4.13-5.72a1.68,1.68,0,0,0-.81-1.43c-3.95-.8-4.79-2.22-3.4-6a2.65,2.65,0,0,0,.13-.85c0-1.74.32-3.73,2-4.16a14.29,14.29,0,0,0,4.39-1.72c.2-.13.76.33,1.16.47s.88.26,1.53.44c-1.65-2.69-1.57-3,.59-4.38v-5.18l2-.21c.1-.57.06-1.52.33-1.62,2.06-.76,1.09-2.35,1.17-3l-3.78,2.13c.09,1.69-3.1,3.22-1.64,6,.05.1-.18.37-.32.53-1.25,1.46-2.55,2.89-4.72,2.61s-4.77.74-6.36-1.76a.76.76,0,0,0-.52-.35c-3.23.2-4.8-2.63-7.15-4a3.25,3.25,0,0,1-1.31-2.4c0-1.18-1.39-2.37.18-3.7.64-.54.37-2.16.51-3.29l.85-.26a3.32,3.32,0,0,0-.8-.35c-3-.45-3.71-2.74-4.3-5.23a3.42,3.42,0,0,0-1.52-1.86,7.69,7.69,0,0,1-3.88-6.23c-.28-2.76-.25-5.43,1.15-8,.82-1.49.62-2.69-1.41-3.24-3.06-.84-6.21-6.56-5.56-9.76.57-2.78,2.93-3.86,5.36-2.46a1.77,1.77,0,0,0,1,.32c2.06-.24,4.25-.18,6.12-.92A10.5,10.5,0,0,0,18.47,276c.44-.62-.66-2.35-1-3.26l-3.09.62c-1.44,1-2.52,1.88-3.68,2.6-2.37,1.48-4.66.7-6.33-1a16.66,16.66,0,0,1-4.17-6.07c-.62-1.92.15-4.29.33-6.46,0-.54.21-1.06.27-1.59.16-1.37,0-2.88.51-4.07a26.12,26.12,0,0,1,3-4.26l.78.52-.38-.18c.24-1.11.52-2,.62-3,.08-.71-.12-1.45-.11-2.18.07-3.21.65-3.88,3.73-4.62,2.38-.57,4.73-1.21,7.71-2-.74-4.24-1.49-8.58-2.25-12.92a18.73,18.73,0,0,1-.7-4c.18-3.44.63-6.86.94-10.29a3.64,3.64,0,0,0-.19-1.46,8.44,8.44,0,0,1,2.09-7.75c1-.85,2.32-1.69,1.48-3.24s-.58-2.87.68-3.49c-.12-1.47-.53-2.72-.23-3.76s1.35-2.07,2-3.12,1.23-1.83,2.43-.7c1.38-2.53,2.95-2.63,4.56-.89l5.81,1.3L32.6,188l.57.21a33,33,0,0,1,2.16-3.62,4.28,4.28,0,0,1,2.28-1.74c2.41-.35,5.07-1.47,7,1.19,0,.05.27,0,.71-.1a13,13,0,0,0,.12-1.74c-.11-1.94.76-2.71,2.59-2.17.77.22,1.46.71,2.24.87,3,.64,6.37.1,6.92-2.27M74.81,284.35l0-.05.25-.1Zm36.86,88.14.62,0v-3.08l-.92.05Z"/><path class="cls-2" d="M111.67,372.49l-.3-3.05.92-.05v3.08Z"/><path class="cls-2" d="M74.81,284.35l.23-.14-.25.1Z"/><path class="cls-2" d="M74.8,284.3l0,0Z"/><path class="cls-1" d="M288.65,408.54v1.31l-3,4.41c1.7,2.24,2,3.17,1.1,5.1-1.34,3-4,3.12-7.45,2.92,3.93,3.16,1.6,6.12.37,8.75-1.88,4-5.34,2-7.9,1.3-.21,2.11-.08,4-.71,5.68a3.87,3.87,0,0,1-3,1.82c-.82,0-1.78-1.32-2.4-2.24a9.46,9.46,0,0,1-.81-2.66c.26,1.72-1.49,3.39-.09,5.21a1.65,1.65,0,0,1-.45,1.54c-2.49,1.25-1.6,4.07-3,5.65,1,1.46,3.93,1,3.31,3.4a2.73,2.73,0,0,1-3.75,2l-2.66,7.13c1.6,1.45.13,3.19-.22,4.8a3.49,3.49,0,0,1-6.18,1.68,34.6,34.6,0,0,1-3.12-5.13,6.53,6.53,0,0,0-1.08-1.8c-1.25-1-2.64-1.89-4-2.82-.61-.43-1.24-.75-1.8-1.17-.72-.55-1.32-1.26-2.07-1.75-2.16-1.44-4.45-2.69-6.49-4.27a4.56,4.56,0,0,1-1.29-2.86,23.3,23.3,0,0,1,.14-4.07h-9.33c1,2.33,4.91.28,5,2.87a30,30,0,0,1,2.45,2.5c.58.76.86,1.76,1.47,2.5,1,1.23,2.18,2.35,3.32,3.48a12,12,0,0,0,1.89,1.62c1.3.84,2.67,1.56,4,2.35a15.66,15.66,0,0,0,2.78,1.67c2,.65,2.8,2.4,1.74,4.22l.85.22c3,.77,3.8,3.19,2,5.58-.73,1-1.23,2.09-1.93,3.08-.84,1.19-1.76,2.33-2.69,3.45a16.75,16.75,0,0,0-2.15,2.44c-.78,1.46-1.43,2.53-3.41,2.85-1.6.26-2.94,1.88-4.52,2.67-1.75.88-2,4.18-5.26,2.77a6.58,6.58,0,0,1,.52,2.12,2.24,2.24,0,0,1-1,1.6c-2.58,1-5.11,1.32-7-1.46a30.92,30.92,0,0,0-2.34-3.19,6,6,0,0,0-2.09-1.67c-1.75-.71-3-2.71-2.52-4.27s1.08-3.16,1.46-4.77A6,6,0,0,0,215,473c-3.9,1.62-7.58,2.2-11.33.51a1.81,1.81,0,0,0-1-.13c-1.17.25-2.31.68-3.49.83-2.68.34-3.79-.71-4.18-3.47a39.21,39.21,0,0,0-1.13-4.43l-.55.13c.17,1.27.27,2.56.51,3.82.43,2.22-1.51,2.74-2.75,3.38-.86.45-2.77.29-3.3-.35-1.3-1.57-3.43-2.66-3.37-5.27,0-.84-1.07-1.71-1.51-2.36-1.94,1.24-3.57,2.26-5.17,3.31a3.88,3.88,0,0,0-1,.85,5.28,5.28,0,0,1-6.69,1.22,2.93,2.93,0,0,0-1.63-.19c-.7,0-1.38.23-2.59.44.36,1.1.83,2.73,1.42,4.33.66,1.79.21,3.74-1.28,4.32a24.08,24.08,0,0,1-4.57,1.34c-2.49.44-3.36-.48-3.93-3.81-2.44,0-3.06-.6-3.13-2.84,0-.58,0-1.17,0-1.75,0-1.46,0-2.88,2.26-2.1.41.14,1.14-.35,1.58-.71a1.17,1.17,0,0,0,0-1.08c-1.35-.76-.93-1.65-.51-2.78a2.24,2.24,0,0,0-1.59-3.11c-1.35-.39-2.73-.32-3.25,1.58a7.52,7.52,0,0,1-1.58,2.51c-.14.17-.79-.07-1.59-.17.34,1.45.23,4,1.17,4.43,2.87,1.47,1.65,4.09,2.39,6.1.12.33,0,1.07-.27,1.18-1.69.83-1.3,2.4-1.58,3.79a5.73,5.73,0,0,1-1.32,2.78,11,11,0,0,1-2.74,1.6,18.31,18.31,0,0,1,.63,2.45c.21,2.07-1.74,4.35-3.49,3.8-2.45-.76-4.24.14-6,1.53-1.94,1.52-3.79,1.21-5.13-.86-.29-.45-.6-.9-1.07-1.61-1.84,2.51-3.59,2-5.47.34a26.92,26.92,0,0,0-3.91-2.68,2,2,0,0,0-1.56-.12c-2.5,1.11-5,2.24-7.4,3.54-1.45.79-2.44.61-3.3-.77-.37,2.52-.87,3.05-3.45,3.21a3.31,3.31,0,0,1-2.4-.63,55.12,55.12,0,0,1-3.52-5c-2.07,1-3.94-.2-5.79-1.86a3.32,3.32,0,0,0-2.5-.91c-3.24.85-6.21-.29-9.21-1-1.4-.34-3.35-.4-3.37-2.7,0-.2-.68-.54-1.05-.57-2-.14-3-1.6-4-3.08a3.57,3.57,0,0,0-1.67-1.4c-2.42-.77-4.41-4.21-3.56-6.59a3,3,0,0,1,1.35-1.26c1.74,1.38,1.69-.67,2.58-1.28-2.66-.23-3.6-2.19-5.09-3.88-2.09-2.38-1.94-4.63-1.45-7.26a5.37,5.37,0,0,0-.32-2.28c-.5-1.8-1.7-3.65-1.5-5.35.31-2.63,2.49-4.42,4.81-5.53.68-.33,2,.59,3,.92a3,3,0,0,0,.63.07l-.34-.52a32,32,0,0,1,4.2-3.22,9,9,0,0,1,4.37-1.22,3.11,3.11,0,0,0,3.23-1.87,20.6,20.6,0,0,1,2.79-3.1c-4.51-1-7.13,1.31-9.76,3.74,1.3-2.94,1.89-6,4.78-8,1.95-1.3,1.6-2.08-.63-3-.52-.21-1.22-.8-1.25-1.24a2.3,2.3,0,0,1,.82-1.84c1.82-1,3.76-1.76,5.87-2.72-.56-.64-.67-.87-.84-.94-3.19-1.24-4.48-3.21-4.54-6.5,0-1.08-.28-2.86-.89-3.09-1.22-.46-.93-1.06-.94-1.87a14.26,14.26,0,0,0-.35-2.17l-1.09.05c-.08.89-.2,1.78-.22,2.67,0,1.41,1.07,3-.88,4,1.71,1.09,2,2.54,1,4.06-.54.79-1.5,1.56-1.54,2.37a4.72,4.72,0,0,1-2.14,3.8,4.34,4.34,0,0,0-1.8,4.15,9.69,9.69,0,0,1-.59,2.6l-.68-.05-1.2-2.17c-1.5,1.58-1.5,1.58-2.29.63l1.94-1.31a37.08,37.08,0,0,1-4.59-3.09c-1.27-1.16-1.82-1.51-2.71.39a4.12,4.12,0,0,1-3,1.64,6.4,6.4,0,0,1-3.32-.92c-1.58-.81-2.41-2.05-1.46-3.95a7.91,7.91,0,0,0,.77-2.65,28.36,28.36,0,0,0,0-3.27,19.12,19.12,0,0,1-1.28-3.92c-.16-1.72,1.53-1.54,2.58-2,2.21-1,4.37-2.06,7.19-3.41a17.75,17.75,0,0,0-4-.2c-1.55.3-3.36,1.81-4.44,1.35-1.74-.75-3,.13-4.5.07a7.08,7.08,0,0,1-5.77-2.59,25,25,0,0,0-3-3c-1.14-1-2.36-2-4-3.38-1.56.06-4.06-1-4.67-2.21-.82-1.71-.28-3.87,1.65-5.72,1.35-1.29,2.88-2.4,4.33-3.59-2-.78-3.76-1.39-5.4-1.23-2,.19-3.14-.78-2.88-2.28.48-2.7-1.34-5.64,1.75-8.26,1.61-1.36,2.88-3.36,4.89-4.53.41-.24.9-1,.78-1.35-.61-1.65-1.05-3.59-2.23-4.75-2.26-2.23-2.65-2.76-1.8-5.09-1.45-2.77-3-5-3.78-7.44-1.21-4,3-7.8,7-6.53,1.18.38,1.68-.06,1.77-1.14,0-.57-.31-1.27-.09-1.72a14.07,14.07,0,0,1,2.34-3.93c1-1,2.38-.63,3.54.35.25.21,1.3-.08,1.57-.45,1.54-2.12,4-2.67,5.95-1.11a27.16,27.16,0,0,1,2.17,2.31c-.26-4,2.06-5.59,5-6.63-5.33-.61-6.6-1.91-7.09-7.12A12.29,12.29,0,0,0,54,325.3c-1.15-3.41-1.48-6.78.36-10.08-1.38-1.37-1.12-3,.33-4.86a7,7,0,0,0,1-3.25,16.66,16.66,0,0,0-.31-2.58c-.1-3,1.06-4.29,4.15-4.55-2.34-1-2.86-2.42-1.24-4.28a.88.88,0,0,0,.24-.5c0-3.58,2.15-5.06,5.72-4.13a1.68,1.68,0,0,0,1.43-.81c.8-3.95,2.22-4.79,6-3.4a2.65,2.65,0,0,0,.85.13c1.74,0,3.73.32,4.16,2a14.29,14.29,0,0,0,1.72,4.39c.13.2-.33.76-.47,1.16s-.26.88-.44,1.53c2.69-1.65,3-1.57,4.38.59h5.18l.21,2c.57.1,1.52.06,1.62.33.76,2.06,2.35,1.09,3,1.17l-2.13-3.78c-1.69.09-3.22-3.1-6-1.64-.1.05-.37-.18-.53-.32-1.46-1.25-2.89-2.55-2.61-4.72S80,285,82.49,283.39a.76.76,0,0,0,.35-.52c-.2-3.23,2.63-4.8,4-7.15a3.25,3.25,0,0,1,2.4-1.31c1.18,0,2.37-1.39,3.7.18.54.64,2.16.37,3.29.51l.26.85a3.32,3.32,0,0,0,.35-.8c.45-3,2.74-3.71,5.23-4.3a3.42,3.42,0,0,0,1.86-1.52,7.69,7.69,0,0,1,6.23-3.88c2.76-.28,5.43-.25,8,1.15,1.49.82,2.69.62,3.24-1.41.84-3.06,6.56-6.21,9.76-5.56,2.78.57,3.86,2.93,2.46,5.36a1.77,1.77,0,0,0-.32,1c.24,2.06.18,4.25.92,6.12a10.5,10.5,0,0,0,3.51,4.41c.62.44,2.35-.66,3.26-1l-.62-3.09c-1-1.44-1.88-2.52-2.6-3.68-1.48-2.37-.7-4.66,1-6.33a16.66,16.66,0,0,1,6.07-4.17c1.92-.62,4.29.15,6.46.33.54,0,1.06.21,1.59.27,1.37.16,2.88,0,4.07.51a26.12,26.12,0,0,1,4.26,3l-.52.78.18-.38c1.11.24,2,.52,3,.62.71.08,1.45-.12,2.18-.11,3.21.07,3.88.65,4.62,3.73.57,2.38,1.21,4.73,2,7.71l12.92-2.25a18.73,18.73,0,0,1,4-.7c3.44.18,6.86.63,10.29.94a3.64,3.64,0,0,0,1.46-.19,8.44,8.44,0,0,1,7.75,2.09c.85,1,1.69,2.32,3.24,1.48s2.87-.58,3.49.68c1.47-.12,2.72-.53,3.76-.23s2.07,1.35,3.12,2,1.83,1.23.7,2.43c2.53,1.38,2.63,2.95.89,4.56l-1.3,5.81,2.73-.77-.21.57a33,33,0,0,1,3.62,2.16,4.28,4.28,0,0,1,1.74,2.28c.35,2.41,1.47,5.07-1.19,7-.05,0,0,.27.1.71a13,13,0,0,0,1.74.12c1.94-.11,2.71.76,2.17,2.59-.22.77-.71,1.46-.87,2.24-.64,3-.1,6.37,2.27,6.92a31.91,31.91,0,0,0,6.28.88c.58,0,1.26-1.17,1.76-1.9.36-.52.31-1.46.75-1.75,2.08-1.37,4.26-2.6,6.44-3.81a1.34,1.34,0,0,1,1.23.12,30.13,30.13,0,0,1,4.62,4.46c1.36,1.88-.59,3.1-1.56,4.17a15.78,15.78,0,0,1,2.4,2.83c.65,1.29,1.24,2.37,2.8,2.71a8.54,8.54,0,0,1,2.35,1.12c1.84,1.08,2.48,3.68,1.12,4.82-2,1.67-4.11,3.2-6.13,4.76,1.38.59,3,.89,4,1.81,1.3,1.12,2,2.9,3.26,4.11a14.28,14.28,0,0,0,3.37,1.89c.36.19.73.36,1.33.66l-2.07.74c1.09,1.61,2,3.14,3.07,4.46s2.66,2.51,3.84,3.9c.66.78,1.6,2.32,1.31,2.73-.84,1.17.08,1.33.57,1.82s1.36,1,1.61,1.66a21.92,21.92,0,0,1,1.74,6,17.75,17.75,0,0,1-.93,6.54c-.26.78-2,1.09-2.6,1.4-.23,1.62-.08,3.34-.75,4.62a7.83,7.83,0,0,1-3.37,3.12,13.15,13.15,0,0,1-4.78,1c-3.68.25-4.66-.35-5.81-3-.69.38-1.35.82-2.07,1.13-1.3.56-2.62,1.07-4,1.54a7.08,7.08,0,0,1-2.11.49c-1.38,0-1.71.55-1.08,1.77,1.37,2.63,2.66,5.3,4.1,7.89a2.58,2.58,0,0,0,1.64,1.16c3,.44,5-.84,4.73-5.62.66-.05,1.5-.39,2-.11a16.48,16.48,0,0,1,6.11,6.42c.15.28-.49,1.22-1,1.57a25.47,25.47,0,0,1-2.83,1.63l.86,5.56c1.25-2.67,1.55.62,2.55.05l.94-1.1c1.54.92,2.94,1.83,4.41,2.59a1.71,1.71,0,0,0,1.33-.31c.15-2.52,2.08-1.83,3.45-1.88l1.06-2.36.83-.07c.49,1.36,1,2.71,1.47,4.07a5.31,5.31,0,0,0,.51,1.57C285.48,404.94,287.08,406.73,288.65,408.54ZM143.23,467.2h0ZM129.35,332.81l.05,0,.1.25ZM41.21,369.67l0,.62h3.08l-.05-.92Z"/><path class="cls-2" d="M41.21,369.67l3.05-.3.05.92H41.24Z"/><path class="cls-2" d="M129.36,332.81l.14.23-.1-.25Z"/><path class="cls-2" d="M129.4,332.8l0,0Z"/><path class="cls-2" d="M143.23,467.21h0Z"/><path class="cls-2" d="M143.18,467.22h0Z"/><path class="cls-1" d="M241.68,324.17a20.6,20.6,0,0,1-2.79,3.1c4.51,1,7.13-1.31,9.76-3.74-1.3,2.94-1.89,6-4.78,8-1.95,1.3-1.6,2.08.63,3,.52.21,1.22.8,1.25,1.24a2.3,2.3,0,0,1-.82,1.84c-1.82,1-3.76,1.76-5.87,2.72.56.64.67.87.84.94,3.19,1.24,4.48,3.21,4.54,6.5,0,1.08.28,2.86.89,3.09,1.22.46.93,1.06.94,1.87a14.26,14.26,0,0,0,.35,2.17l1.09-.05c.08-.89.2-1.78.22-2.67,0-1.41-1.07-3,.88-4-1.71-1.09-2-2.54-1-4.06.54-.79,1.5-1.56,1.54-2.37a4.72,4.72,0,0,1,2.14-3.8,4.34,4.34,0,0,0,1.8-4.15,9.69,9.69,0,0,1,.59-2.6l.68.05,1.2,2.17c1.5-1.58,1.5-1.58,2.29-.63L256.12,334a37.08,37.08,0,0,1,4.59,3.09c1.27,1.16,1.82,1.51,2.71-.39a4.12,4.12,0,0,1,3-1.64,6.4,6.4,0,0,1,3.32.92c1.58.81,2.41,2.05,1.46,3.95a7.91,7.91,0,0,0-.77,2.65,28.36,28.36,0,0,0,0,3.27,19.12,19.12,0,0,1,1.28,3.92c.16,1.72-1.53,1.54-2.58,2-2.21,1-4.37,2.06-7.19,3.41a17.75,17.75,0,0,0,4,.2c1.55-.3,3.36-1.81,4.44-1.35,1.74.75,3-.13,4.5-.07a7.08,7.08,0,0,1,5.77,2.59,25,25,0,0,0,3,3c1.14,1,2.36,2,4,3.38,1.56-.06,4.06,1,4.67,2.21.82,1.71.28,3.87-1.65,5.72-1.35,1.29-2.88,2.4-4.33,3.59,2,.78,3.76,1.39,5.4,1.23,2-.19,3.14.78,2.88,2.28-.48,2.7,1.34,5.64-1.75,8.26-1.61,1.36-2.88,3.36-4.89,4.53-.41.24-.9,1-.78,1.35.61,1.65,1.05,3.59,2.23,4.75,2.26,2.23,2.65,2.76,1.8,5.09,1.45,2.77,3,5,3.78,7.44,1.21,4-3,7.8-7,6.53-1.18-.38-1.68.06-1.77,1.14,0,.57.31,1.27.09,1.72a14.07,14.07,0,0,1-2.34,3.93c-1,1-2.38.63-3.54-.35-.25-.21-1.3.08-1.57.45-1.54,2.12-4,2.67-5.95,1.11a27.16,27.16,0,0,1-2.17-2.31c.26,4-2.06,5.59-5,6.63,5.33.61,6.6,1.91,7.09,7.12a12.29,12.29,0,0,0,.55,2.76c1.15,3.41,1.48,6.78-.36,10.08,1.38,1.37,1.12,3-.33,4.86a7,7,0,0,0-1,3.25,16.66,16.66,0,0,0,.31,2.58c.1,3-1.06,4.29-4.15,4.55,2.34,1,2.86,2.42,1.24,4.28a.88.88,0,0,0-.24.5c0,3.58-2.15,5.06-5.72,4.13a1.68,1.68,0,0,0-1.43.81c-.8,3.95-2.22,4.79-6,3.4a2.65,2.65,0,0,0-.85-.13c-1.74,0-3.73-.32-4.16-2a14.29,14.29,0,0,0-1.72-4.39c-.13-.2.33-.76.47-1.16s.26-.88.44-1.53c-2.69,1.65-3,1.57-4.38-.59h-5.18l-.21-2c-.57-.1-1.52-.06-1.62-.33-.76-2.06-2.35-1.09-3-1.17l2.13,3.78c1.69-.09,3.22,3.1,6,1.64.1-.05.37.18.53.32,1.46,1.25,2.89,2.55,2.61,4.72s.74,4.77-1.76,6.36a.76.76,0,0,0-.35.52c.2,3.23-2.63,4.8-4,7.15A3.25,3.25,0,0,1,238,489c-1.18,0-2.37,1.39-3.7-.18-.54-.64-2.16-.37-3.29-.51l-.26-.85a3.32,3.32,0,0,0-.35.8c-.45,3-2.74,3.71-5.23,4.3a3.42,3.42,0,0,0-1.86,1.52,7.69,7.69,0,0,1-6.23,3.88c-2.76.28-5.43.25-8-1.15-1.49-.82-2.69-.62-3.24,1.41-.84,3.06-6.56,6.21-9.76,5.56-2.78-.57-3.86-2.93-2.46-5.36a1.77,1.77,0,0,0,.32-1c-.24-2.06-.18-4.25-.92-6.12a10.5,10.5,0,0,0-3.51-4.41c-.62-.44-2.35.66-3.26,1l.62,3.09c1,1.44,1.88,2.52,2.6,3.68,1.48,2.37.7,4.66-1,6.33a16.66,16.66,0,0,1-6.07,4.17c-1.92.62-4.29-.15-6.46-.33-.54,0-1.06-.21-1.59-.27-1.37-.16-2.88,0-4.07-.51a26.12,26.12,0,0,1-4.26-3l.52-.78-.18.38c-1.11-.24-2-.52-3-.62-.71-.08-1.45.12-2.18.11-3.21-.07-3.88-.65-4.62-3.73-.57-2.38-1.21-4.73-2-7.71L141.71,491a18.73,18.73,0,0,1-4,.7c-3.44-.18-6.86-.63-10.29-.94a3.64,3.64,0,0,0-1.46.19,8.44,8.44,0,0,1-7.75-2.09c-.85-1-1.69-2.32-3.24-1.48s-2.87.58-3.49-.68c-1.47.12-2.72.53-3.76.23s-2.07-1.35-3.12-2-1.83-1.23-.7-2.43c-2.53-1.38-2.63-2.95-.89-4.56l1.3-5.81-2.73.77.21-.57a33,33,0,0,1-3.62-2.16,4.28,4.28,0,0,1-1.74-2.28c-.35-2.41-1.47-5.07,1.19-7,.05,0,0-.27-.1-.71a13,13,0,0,0-1.74-.12c-1.94.11-2.71-.76-2.17-2.59.22-.77.71-1.46.87-2.24.64-3,.1-6.37-2.27-6.92m105.76-17.62-.05,0-.1-.25Zm88.14-36.86,0-.62H283l.05.92Z"/><path class="cls-2" d="M286.07,393.76l-3.05.3-.05-.92h3.08Z"/><path class="cls-2" d="M197.93,430.62l-.14-.23.1.25Z"/><path class="cls-2" d="M197.88,430.63l0,0Z"/><path class="cls-1" d="M205.26,450.09a20.6,20.6,0,0,1-3.1-2.79c-1,4.51,1.31,7.13,3.74,9.76-2.94-1.3-6-1.89-8-4.78-1.3-1.95-2.08-1.6-3,.63-.21.52-.8,1.22-1.24,1.25a2.3,2.3,0,0,1-1.84-.82c-1-1.82-1.76-3.76-2.72-5.87-.64.56-.87.67-.94.84-1.24,3.19-3.21,4.48-6.5,4.54-1.08,0-2.86.28-3.09.89-.46,1.22-1.06.93-1.87.94a14.26,14.26,0,0,0-2.17.35l.05,1.09c.89.08,1.78.2,2.67.22,1.41,0,3-1.07,4,.88,1.09-1.71,2.54-2,4.06-1,.79.54,1.56,1.5,2.37,1.54a4.72,4.72,0,0,1,3.8,2.14,4.34,4.34,0,0,0,4.15,1.8,9.69,9.69,0,0,1,2.6.59l-.05.68-2.17,1.2c1.58,1.5,1.58,1.5.63,2.29l-1.31-1.94a37.08,37.08,0,0,1-3.09,4.59c-1.16,1.27-1.51,1.82.39,2.71a4.12,4.12,0,0,1,1.64,3,6.4,6.4,0,0,1-.92,3.32c-.81,1.58-2.05,2.41-3.95,1.46a7.91,7.91,0,0,0-2.65-.77,28.36,28.36,0,0,0-3.27,0,19.12,19.12,0,0,1-3.92,1.28c-1.72.16-1.54-1.53-2-2.58-1-2.21-2.06-4.37-3.41-7.19a17.75,17.75,0,0,0-.2,4c.3,1.55,1.81,3.36,1.35,4.44-.75,1.74.13,3,.07,4.5a7.08,7.08,0,0,1-2.59,5.77,25,25,0,0,0-3,3c-1,1.14-2,2.36-3.38,4,.06,1.56-1,4.06-2.21,4.67-1.71.82-3.87.28-5.72-1.65-1.29-1.35-2.4-2.88-3.59-4.33-.78,2-1.39,3.76-1.23,5.4.19,2-.78,3.14-2.28,2.88-2.7-.48-5.64,1.34-8.26-1.75-1.36-1.61-3.36-2.88-4.53-4.89-.24-.41-1-.9-1.35-.78-1.65.61-3.59,1.05-4.75,2.23-2.23,2.26-2.76,2.65-5.09,1.8-2.77,1.45-5,3-7.44,3.78-4,1.21-7.8-3-6.53-7,.38-1.18-.06-1.68-1.14-1.77-.57,0-1.27.31-1.72.09a14.07,14.07,0,0,1-3.93-2.34c-1-1-.63-2.38.35-3.54.21-.25-.08-1.3-.45-1.57-2.12-1.54-2.67-4-1.11-5.95A27.16,27.16,0,0,1,107.8,479c-4,.26-5.59-2.06-6.63-5-.61,5.33-1.91,6.6-7.12,7.09a12.29,12.29,0,0,0-2.76.55c-3.41,1.15-6.78,1.48-10.08-.36-1.37,1.38-3,1.12-4.86-.33a7,7,0,0,0-3.25-1,16.66,16.66,0,0,0-2.58.31c-3,.1-4.29-1.06-4.55-4.15-1,2.34-2.42,2.86-4.28,1.24a.88.88,0,0,0-.5-.24c-3.58,0-5.06-2.15-4.13-5.72a1.68,1.68,0,0,0-.81-1.43c-3.95-.8-4.79-2.22-3.4-6a2.65,2.65,0,0,0,.13-.85c0-1.74.32-3.73,2-4.16a14.29,14.29,0,0,0,4.39-1.72c.2-.13.76.33,1.16.47s.88.26,1.53.44c-1.65-2.69-1.57-3,.59-4.38v-5.18l2-.21c.1-.57.06-1.52.33-1.62,2.06-.76,1.09-2.35,1.17-3l-3.78,2.13c.09,1.69-3.1,3.22-1.64,6,.05.1-.18.37-.32.53-1.25,1.46-2.55,2.89-4.72,2.61s-4.77.74-6.36-1.76a.76.76,0,0,0-.52-.35c-3.23.2-4.8-2.63-7.15-4a3.25,3.25,0,0,1-1.31-2.4c0-1.18-1.39-2.37.18-3.7.64-.54.37-2.16.51-3.29l.85-.26a3.32,3.32,0,0,0-.8-.35c-3-.45-3.71-2.74-4.3-5.23a3.42,3.42,0,0,0-1.52-1.86,7.69,7.69,0,0,1-3.88-6.23c-.28-2.76-.25-5.43,1.15-8,.82-1.49.62-2.69-1.41-3.24-3.06-.84-6.21-6.56-5.56-9.76.57-2.78,2.93-3.86,5.36-2.46a1.77,1.77,0,0,0,1,.32c2.06-.24,4.25-.18,6.12-.92A10.5,10.5,0,0,0,42.47,398c.44-.62-.66-2.35-1-3.26l-3.09.62c-1.44,1-2.52,1.88-3.68,2.6-2.37,1.48-4.66.7-6.33-1a16.66,16.66,0,0,1-4.17-6.07c-.62-1.92.15-4.29.33-6.46,0-.54.21-1.06.27-1.59.16-1.37,0-2.88.51-4.07a26.12,26.12,0,0,1,3-4.26l.78.52-.38-.18c.24-1.11.52-2,.62-3,.08-.71-.12-1.45-.11-2.18.07-3.21.65-3.88,3.73-4.62,2.38-.57,4.73-1.21,7.71-2-.74-4.24-1.49-8.58-2.25-12.92a18.73,18.73,0,0,1-.7-4c.18-3.44.63-6.86.94-10.29a3.64,3.64,0,0,0-.19-1.46,8.44,8.44,0,0,1,2.09-7.75c1-.85,2.32-1.69,1.48-3.24s-.58-2.87.68-3.49c-.12-1.47-.53-2.72-.23-3.76s1.35-2.07,2-3.12,1.23-1.83,2.43-.7c1.38-2.53,2.95-2.63,4.56-.89l5.81,1.3L56.6,310l.57.21a33,33,0,0,1,2.16-3.62,4.28,4.28,0,0,1,2.28-1.74c2.41-.35,5.07-1.47,7,1.19,0,.05.27,0,.71-.1a13,13,0,0,0,.12-1.74c-.11-1.94.76-2.71,2.59-2.17.77.22,1.46.71,2.24.87,3,.64,6.37.1,6.92-2.27M98.81,406.35l0-.05.25-.1Zm36.86,88.14.62,0v-3.08l-.92.05Z"/><path class="cls-2" d="M135.67,494.49l-.3-3.05.92-.05v3.08Z"/><path class="cls-2" d="M98.81,406.35l.23-.14-.25.1Z"/><path class="cls-2" d="M98.8,406.3l0,0Z"/></g></g></svg>