<svg xmlns="http://www.w3.org/2000/svg" viewBox="0 0 297.26 538.43"><defs><style>.cls-1{fill:#c9e0dd;}</style></defs><title>Asset 12</title><g id="Layer_2" data-name="Layer 2"><g id="Layer_1-2" data-name="Layer 1"><path class="cls-1" d="M290.82,195.54v1.31l-3,4.41c1.7,2.24,2,3.17,1.1,5.1-1.34,3-4,3.12-7.45,2.92,3.93,3.16,1.6,6.12.37,8.75-1.88,4-5.34,2-7.9,1.3-.21,2.11-.08,4-.71,5.68a3.87,3.87,0,0,1-3,1.82c-.82,0-1.78-1.32-2.4-2.24a9.46,9.46,0,0,1-.81-2.66c.26,1.72-1.49,3.39-.09,5.21a1.65,1.65,0,0,1-.45,1.54c-2.49,1.25-1.6,4.07-3,5.65,1,1.46,3.93,1,3.31,3.4a2.73,2.73,0,0,1-3.75,2l-2.66,7.13c1.6,1.45.13,3.19-.22,4.8a3.49,3.49,0,0,1-6.18,1.68,34.6,34.6,0,0,1-3.12-5.13,6.53,6.53,0,0,0-1.08-1.8c-1.25-1-2.64-1.89-4-2.82-.61-.43-1.24-.75-1.8-1.17-.72-.55-1.32-1.26-2.07-1.75-2.16-1.44-4.45-2.69-6.49-4.27a4.56,4.56,0,0,1-1.29-2.86,23.3,23.3,0,0,1,.14-4.07h-9.33c1,2.33,4.91.28,5,2.87a30,30,0,0,1,2.45,2.5c.58.76.86,1.76,1.47,2.5,1,1.23,2.18,2.35,3.32,3.48a12,12,0,0,0,1.89,1.62c1.3.84,2.67,1.56,4,2.35a15.66,15.66,0,0,0,2.78,1.67c2,.65,2.8,2.4,1.74,4.22l.85.22c3,.77,3.8,3.19,2,5.58-.73,1-1.23,2.09-1.93,3.08-.84,1.19-1.76,2.33-2.69,3.45a16.75,16.75,0,0,0-2.15,2.44c-.78,1.46-1.43,2.53-3.41,2.85-1.6.26-2.94,1.88-4.52,2.67-1.75.88-2,4.18-5.26,2.77a6.58,6.58,0,0,1,.52,2.12,2.24,2.24,0,0,1-1,1.6c-2.58,1-5.11,1.32-7-1.46a30.92,30.92,0,0,0-2.34-3.19,6,6,0,0,0-2.09-1.67c-1.75-.71-3-2.71-2.52-4.27s1.08-3.16,1.46-4.77a6,6,0,0,0-.37-2.1c-3.9,1.62-7.58,2.2-11.33.51a1.81,1.81,0,0,0-1-.13c-1.17.25-2.31.68-3.49.83-2.68.34-3.79-.71-4.18-3.47a39.21,39.21,0,0,0-1.13-4.43l-.55.13c.17,1.27.27,2.56.51,3.82.43,2.22-1.51,2.74-2.75,3.38-.86.45-2.77.29-3.3-.35-1.3-1.57-3.43-2.66-3.37-5.27,0-.84-1.07-1.71-1.51-2.36-1.94,1.24-3.57,2.26-5.17,3.31a3.88,3.88,0,0,0-1,.85,5.28,5.28,0,0,1-6.69,1.22,2.93,2.93,0,0,0-1.63-.19c-.7,0-1.38.23-2.59.44.36,1.1.83,2.73,1.42,4.33.66,1.79.21,3.74-1.28,4.32a24.08,24.08,0,0,1-4.57,1.34c-2.49.44-3.36-.48-3.93-3.81-2.44,0-3.06-.6-3.13-2.84,0-.58,0-1.17,0-1.75,0-1.46,0-2.88,2.26-2.1.41.14,1.14-.35,1.58-.71a1.17,1.17,0,0,0,0-1.08c-1.35-.76-.93-1.65-.51-2.78a2.24,2.24,0,0,0-1.59-3.11c-1.35-.39-2.73-.32-3.25,1.58a7.52,7.52,0,0,1-1.58,2.51c-.14.17-.79-.07-1.59-.17.34,1.45.23,4,1.17,4.43,2.87,1.47,1.65,4.09,2.39,6.1.12.33,0,1.07-.27,1.18-1.69.83-1.3,2.4-1.58,3.79a5.73,5.73,0,0,1-1.32,2.78,11,11,0,0,1-2.74,1.6,18.31,18.31,0,0,1,.63,2.45c.21,2.07-1.74,4.35-3.49,3.8-2.45-.76-4.24.14-6,1.53-1.94,1.52-3.79,1.21-5.13-.86-.29-.45-.6-.9-1.07-1.61-1.84,2.51-3.59,2-5.47.34a26.92,26.92,0,0,0-3.91-2.68,2,2,0,0,0-1.56-.12c-2.5,1.11-5,2.24-7.4,3.54-1.45.79-2.44.61-3.3-.77-.37,2.52-.87,3.05-3.45,3.21a3.31,3.31,0,0,1-2.4-.63,55.12,55.12,0,0,1-3.52-5c-2.07,1-3.94-.2-5.79-1.86a3.32,3.32,0,0,0-2.5-.91c-3.24.85-6.21-.29-9.21-1-1.4-.34-3.35-.4-3.37-2.7,0-.2-.68-.54-1.05-.57-2-.14-3-1.6-4-3.08a3.57,3.57,0,0,0-1.67-1.4c-2.42-.77-4.41-4.21-3.56-6.59a3,3,0,0,1,1.35-1.26c1.74,1.38,1.69-.67,2.58-1.28-2.66-.23-3.6-2.19-5.09-3.88-2.09-2.38-1.94-4.63-1.45-7.26a5.37,5.37,0,0,0-.32-2.28c-.5-1.8-1.7-3.65-1.5-5.35.31-2.63,2.49-4.42,4.81-5.53.68-.33,2,.59,3,.92a3,3,0,0,0,.63.07l-.34-.52a32,32,0,0,1,4.2-3.22,9,9,0,0,1,4.37-1.22,3.11,3.11,0,0,0,3.23-1.87,20.6,20.6,0,0,1,2.79-3.1c-4.51-1-7.13,1.31-9.76,3.74,1.3-2.94,1.89-6,4.78-8,1.95-1.3,1.6-2.08-.63-3-.52-.21-1.22-.8-1.25-1.24a2.3,2.3,0,0,1,.82-1.84c1.82-1,3.76-1.76,5.87-2.72-.56-.64-.67-.87-.84-.94C86.39,208,85.09,206,85,202.73c0-1.08-.28-2.86-.89-3.09-1.22-.46-.93-1.06-.94-1.87a14.26,14.26,0,0,0-.35-2.17l-1.09.05c-.08.89-.2,1.78-.22,2.67,0,1.41,1.07,3-.88,4,1.71,1.09,2,2.54,1,4.06-.54.79-1.5,1.56-1.54,2.37a4.72,4.72,0,0,1-2.14,3.8,4.34,4.34,0,0,0-1.8,4.15,9.69,9.69,0,0,1-.59,2.6l-.68-.05-1.2-2.17c-1.5,1.58-1.5,1.58-2.29.63l1.94-1.31a37.08,37.08,0,0,1-4.59-3.09c-1.27-1.16-1.82-1.51-2.71.39a4.12,4.12,0,0,1-3,1.64,6.4,6.4,0,0,1-3.32-.92c-1.58-.81-2.41-2.05-1.46-3.95a7.91,7.91,0,0,0,.77-2.65,28.36,28.36,0,0,0,0-3.27,19.12,19.12,0,0,1-1.28-3.92c-.16-1.72,1.53-1.54,2.58-2,2.21-1,4.37-2.06,7.19-3.41a17.75,17.75,0,0,0-4-.2c-1.55.3-3.36,1.81-4.44,1.35-1.74-.75-3,.13-4.5.07a7.08,7.08,0,0,1-5.77-2.59,25,25,0,0,0-3-3c-1.14-1-2.36-2-4-3.38-1.56.06-4.06-1-4.67-2.21-.82-1.71-.28-3.87,1.65-5.72,1.35-1.29,2.88-2.4,4.33-3.59-2-.78-3.76-1.39-5.4-1.23-2,.19-3.14-.78-2.88-2.28.48-2.7-1.34-5.64,1.75-8.26,1.61-1.36,2.88-3.36,4.89-4.53.41-.24.9-1,.78-1.35-.61-1.65-1.05-3.59-2.23-4.75-2.26-2.23-2.65-2.76-1.8-5.09-1.45-2.77-3-5-3.78-7.44-1.21-4,3-7.8,7-6.53,1.18.38,1.68-.06,1.77-1.14,0-.57-.31-1.27-.09-1.72a14.07,14.07,0,0,1,2.34-3.93c1-1,2.38-.63,3.54.35.25.21,1.3-.08,1.57-.45,1.54-2.12,4-2.67,5.95-1.11a27.16,27.16,0,0,1,2.17,2.31c-.26-4,2.06-5.59,5-6.63-5.33-.61-6.6-1.91-7.09-7.12a12.29,12.29,0,0,0-.55-2.76c-1.15-3.41-1.48-6.78.36-10.08-1.38-1.37-1.12-3,.33-4.86a7,7,0,0,0,1-3.25,16.66,16.66,0,0,0-.31-2.58c-.1-3,1.06-4.29,4.15-4.55-2.34-1-2.86-2.42-1.24-4.28a.88.88,0,0,0,.24-.5c0-3.58,2.15-5.06,5.72-4.13a1.68,1.68,0,0,0,1.43-.81c.8-3.95,2.22-4.79,6-3.4a2.65,2.65,0,0,0,.85.13c1.74,0,3.73.32,4.16,2a14.29,14.29,0,0,0,1.72,4.39c.13.2-.33.76-.47,1.16s-.26.88-.44,1.53c2.69-1.65,3-1.57,4.38.59h5.18l.21,2c.57.1,1.52.06,1.62.33.76,2.06,2.35,1.09,3,1.17L92,83.44c-1.69.09-3.22-3.1-6-1.64-.1.05-.37-.18-.53-.32-1.46-1.25-2.89-2.55-2.61-4.72s-.74-4.77,1.76-6.36a.76.76,0,0,0,.35-.52c-.2-3.23,2.63-4.8,4-7.15a3.25,3.25,0,0,1,2.4-1.31c1.18,0,2.37-1.39,3.7.18.54.64,2.16.37,3.29.51l.26.85a3.32,3.32,0,0,0,.35-.8c.45-3,2.74-3.71,5.23-4.3a3.42,3.42,0,0,0,1.86-1.52,7.69,7.69,0,0,1,6.23-3.88c2.76-.28,5.43-.25,8,1.15,1.49.82,2.69.62,3.24-1.41.84-3.06,6.56-6.21,9.76-5.56,2.78.57,3.86,2.93,2.46,5.36a1.77,1.77,0,0,0-.32,1c.24,2.06.18,4.25.92,6.12a10.5,10.5,0,0,0,3.51,4.41c.62.44,2.35-.66,3.26-1l-.62-3.09c-1-1.44-1.88-2.52-2.6-3.68-1.48-2.37-.7-4.66,1-6.33A16.66,16.66,0,0,1,147,45.24c1.92-.62,4.29.15,6.46.33.54,0,1.06.21,1.59.27,1.37.16,2.88,0,4.07.51a26.12,26.12,0,0,1,4.26,3l-.52.78.18-.38c1.11.24,2,.52,3,.62.71.08,1.45-.12,2.18-.11,3.21.07,3.88.65,4.62,3.73.57,2.38,1.21,4.73,2,7.71l12.92-2.25a18.73,18.73,0,0,1,4-.7c3.44.18,6.86.63,10.29.94a3.64,3.64,0,0,0,1.46-.19,8.44,8.44,0,0,1,7.75,2.09c.85,1,1.69,2.32,3.24,1.48s2.87-.58,3.49.68c1.47-.12,2.72-.53,3.76-.23s2.07,1.35,3.12,2,1.83,1.23.7,2.43c2.53,1.38,2.63,2.95.89,4.56l-1.3,5.81,2.73-.77-.21.57a33,33,0,0,1,3.62,2.16,4.28,4.28,0,0,1,1.74,2.28c.35,2.41,1.47,5.07-1.19,7-.05,0,0,.27.1.71a13,13,0,0,0,1.74.12c1.94-.11,2.71.76,2.17,2.59-.22.77-.71,1.46-.87,2.24-.64,3-.1,6.37,2.27,6.92a31.91,31.91,0,0,0,6.28.88c.58,0,1.26-1.17,1.76-1.9.36-.52.31-1.46.75-1.75,2.08-1.37,4.26-2.6,6.44-3.81a1.34,1.34,0,0,1,1.23.12,30.13,30.13,0,0,1,4.62,4.46c1.36,1.88-.59,3.1-1.56,4.17a15.78,15.78,0,0,1,2.4,2.83c.65,1.29,1.24,2.37,2.8,2.71a8.54,8.54,0,0,1,2.35,1.12c1.84,1.08,2.48,3.68,1.12,4.82-2,1.67-4.11,3.2-6.13,4.76,1.38.59,3,.89,4,1.81,1.3,1.12,2,2.9,3.26,4.11A14.28,14.28,0,0,0,270,128.4c.36.19.73.36,1.33.66l-2.07.74c1.09,1.61,2,3.14,3.07,4.46s2.66,2.51,3.84,3.9c.66.78,1.6,2.32,1.31,2.73-.84,1.17.08,1.33.57,1.82s1.36,1,1.61,1.66a21.92,21.92,0,0,1,1.74,6,17.75,17.75,0,0,1-.93,6.54c-.26.78-2,1.09-2.6,1.4-.23,1.62-.08,3.34-.75,4.62a7.83,7.83,0,0,1-3.37,3.12,13.15,13.15,0,0,1-4.78,1c-3.68.25-4.66-.35-5.81-3-.69.38-1.35.82-2.07,1.13-1.3.56-2.62,1.07-4,1.54a7.08,7.08,0,0,1-2.11.49c-1.38,0-1.71.55-1.08,1.77,1.37,2.63,2.66,5.3,4.1,7.89a2.58,2.58,0,0,0,1.64,1.16c3,.44,5-.84,4.73-5.62.66-.05,1.5-.39,2-.11a16.48,16.48,0,0,1,6.11,6.42c.15.28-.49,1.22-1,1.57a25.47,25.47,0,0,1-2.83,1.63l.86,5.56c1.25-2.67,1.55.62,2.55.05l.94-1.1c1.54.92,2.94,1.83,4.41,2.59a1.71,1.71,0,0,0,1.33-.31c.15-2.52,2.08-1.83,3.45-1.88l1.06-2.36.83-.07c.49,1.36,1,2.71,1.47,4.07a5.31,5.31,0,0,0,.51,1.57C287.65,191.94,289.25,193.73,290.82,195.54ZM145.41,254.2h0ZM131.53,119.81l.05,0,.1.25ZM43.39,156.67l0,.62h3.08l-.05-.92Z"/><path class="cls-1" d="M43.39,156.67l3.05-.3.05.92H43.41Z"/><path class="cls-1" d="M131.53,119.81l.14.23-.1-.25Z"/><path class="cls-1" d="M131.58,119.8l0,0Z"/><path class="cls-1" d="M145.4,254.21h0Z"/><path class="cls-1" d="M145.35,254.22h0Z"/><path class="cls-1" d="M243.85,111.17a20.6,20.6,0,0,1-2.79,3.1c4.51,1,7.13-1.31,9.76-3.74-1.3,2.94-1.89,6-4.78,8-1.95,1.3-1.6,2.08.63,3,.52.21,1.22.8,1.25,1.24a2.3,2.3,0,0,1-.82,1.84c-1.82,1-3.76,1.76-5.87,2.72.56.64.67.87.84.94,3.19,1.24,4.48,3.21,4.54,6.5,0,1.08.28,2.86.89,3.09,1.22.46.93,1.06.94,1.87a14.26,14.26,0,0,0,.35,2.17l1.09-.05c.08-.89.2-1.78.22-2.67,0-1.41-1.07-3,.88-4-1.71-1.09-2-2.54-1-4.06.54-.79,1.5-1.56,1.54-2.37a4.72,4.72,0,0,1,2.14-3.8,4.34,4.34,0,0,0,1.8-4.15,9.69,9.69,0,0,1,.59-2.6l.68.05,1.2,2.17c1.5-1.58,1.5-1.58,2.29-.63L258.29,121a37.08,37.08,0,0,1,4.59,3.09c1.27,1.16,1.82,1.51,2.71-.39a4.12,4.12,0,0,1,3-1.64,6.4,6.4,0,0,1,3.32.92c1.58.81,2.41,2.05,1.46,3.95a7.91,7.91,0,0,0-.77,2.65,28.36,28.36,0,0,0,0,3.27,19.12,19.12,0,0,1,1.28,3.92c.16,1.72-1.53,1.54-2.58,2-2.21,1-4.37,2.06-7.19,3.41a17.75,17.75,0,0,0,4,.2c1.55-.3,3.36-1.81,4.44-1.35,1.74.75,3-.13,4.5-.07a7.08,7.08,0,0,1,5.77,2.59,25,25,0,0,0,3,3c1.14,1,2.36,2,4,3.38,1.56-.06,4.06,1,4.67,2.21.82,1.71.28,3.87-1.65,5.72-1.35,1.29-2.88,2.4-4.33,3.59,2,.78,3.76,1.39,5.4,1.23,2-.19,3.14.78,2.88,2.28-.48,2.7,1.34,5.64-1.75,8.26-1.61,1.36-2.88,3.36-4.89,4.53-.41.24-.9,1-.78,1.35.61,1.65,1.05,3.59,2.23,4.75,2.26,2.23,2.65,2.76,1.8,5.09,1.45,2.77,3,5,3.78,7.44,1.21,4-3,7.8-7,6.53-1.18-.38-1.68.06-1.77,1.14,0,.57.31,1.27.09,1.72a14.07,14.07,0,0,1-2.34,3.93c-1,1-2.38.63-3.54-.35-.25-.21-1.3.08-1.57.45-1.54,2.12-4,2.67-5.95,1.11a27.16,27.16,0,0,1-2.17-2.31c.26,4-2.06,5.59-5,6.63,5.33.61,6.6,1.91,7.09,7.12a12.29,12.29,0,0,0,.55,2.76c1.15,3.41,1.48,6.78-.36,10.08,1.38,1.37,1.12,3-.33,4.86a7,7,0,0,0-1,3.25,16.66,16.66,0,0,0,.31,2.58c.1,3-1.06,4.29-4.15,4.55,2.34,1,2.86,2.42,1.24,4.28a.88.88,0,0,0-.24.5c0,3.58-2.15,5.06-5.72,4.13a1.68,1.68,0,0,0-1.43.81c-.8,3.95-2.22,4.79-6,3.4a2.65,2.65,0,0,0-.85-.13c-1.74,0-3.73-.32-4.16-2A14.29,14.29,0,0,0,251,257c-.13-.2.33-.76.47-1.16s.26-.88.44-1.53c-2.69,1.65-3,1.57-4.38-.59h-5.18l-.21-2c-.57-.1-1.52-.06-1.62-.33-.76-2.06-2.35-1.09-3-1.17L239.6,254c1.69-.09,3.22,3.1,6,1.64.1-.05.37.18.53.32,1.46,1.25,2.89,2.55,2.61,4.72s.74,4.77-1.76,6.36a.76.76,0,0,0-.35.52c.2,3.23-2.63,4.8-4,7.15a3.25,3.25,0,0,1-2.4,1.31c-1.18,0-2.37,1.39-3.7-.18-.54-.64-2.16-.37-3.29-.51l-.26-.85a3.32,3.32,0,0,0-.35.8c-.45,3-2.74,3.71-5.23,4.3a3.42,3.42,0,0,0-1.86,1.52,7.69,7.69,0,0,1-6.23,3.88c-2.76.28-5.43.25-8-1.15-1.49-.82-2.69-.62-3.24,1.41-.84,3.06-6.56,6.21-9.76,5.56-2.78-.57-3.86-2.93-2.46-5.36a1.77,1.77,0,0,0,.32-1c-.24-2.06-.18-4.25-.92-6.12a10.5,10.5,0,0,0-3.51-4.41c-.62-.44-2.35.66-3.26,1l.62,3.09c1,1.44,1.88,2.52,2.6,3.68,1.48,2.37.7,4.66-1,6.33a16.66,16.66,0,0,1-6.07,4.17c-1.92.62-4.29-.15-6.46-.33-.54,0-1.06-.21-1.59-.27-1.37-.16-2.88,0-4.07-.51a26.12,26.12,0,0,1-4.26-3l.52-.78-.18.38c-1.11-.24-2-.52-3-.62-.71-.08-1.45.12-2.18.11-3.21-.07-3.88-.65-4.62-3.73-.57-2.38-1.21-4.73-2-7.71L143.88,278a18.73,18.73,0,0,1-4,.7c-3.44-.18-6.86-.63-10.29-.94a3.64,3.64,0,0,0-1.46.19,8.44,8.44,0,0,1-7.75-2.09c-.85-1-1.69-2.32-3.24-1.48s-2.87.58-3.49-.68c-1.47.12-2.72.53-3.76.23s-2.07-1.35-3.12-2-1.83-1.23-.7-2.43c-2.53-1.38-2.63-2.95-.89-4.56l1.3-5.81-2.73.77.21-.57a33,33,0,0,1-3.62-2.16,4.28,4.28,0,0,1-1.74-2.28c-.35-2.41-1.47-5.07,1.19-7,.05,0,0-.27-.1-.71a13,13,0,0,0-1.74-.12c-1.94.11-2.71-.76-2.17-2.59.22-.77.71-1.46.87-2.24.64-3,.1-6.37-2.27-6.92m105.76-17.62-.05,0-.1-.25Zm88.14-36.86,0-.62h-3.08l.05.92Z"/><path class="cls-1" d="M288.25,180.76l-3.05.3-.05-.92h3.08Z"/><path class="cls-1" d="M200.11,217.62l-.14-.23.1.25Z"/><path class="cls-1" d="M200.06,217.63l0,0Z"/><path class="cls-1" d="M207.43,237.09a20.6,20.6,0,0,1-3.1-2.79c-1,4.51,1.31,7.13,3.74,9.76-2.94-1.3-6-1.89-8-4.78-1.3-1.95-2.08-1.6-3,.63-.21.52-.8,1.22-1.24,1.25a2.3,2.3,0,0,1-1.84-.82c-1-1.82-1.76-3.76-2.72-5.87-.64.56-.87.67-.94.84-1.24,3.19-3.21,4.48-6.5,4.54-1.08,0-2.86.28-3.09.89-.46,1.22-1.06.93-1.87.94a14.26,14.26,0,0,0-2.17.35l.05,1.09c.89.08,1.78.2,2.67.22,1.41,0,3-1.07,4,.88,1.09-1.71,2.54-2,4.06-1,.79.54,1.56,1.5,2.37,1.54a4.72,4.72,0,0,1,3.8,2.14,4.34,4.34,0,0,0,4.15,1.8,9.69,9.69,0,0,1,2.6.59l-.05.68-2.17,1.2c1.58,1.5,1.58,1.5.63,2.29l-1.31-1.94a37.08,37.08,0,0,1-3.09,4.59c-1.16,1.27-1.51,1.82.39,2.71a4.12,4.12,0,0,1,1.64,3,6.4,6.4,0,0,1-.92,3.32c-.81,1.58-2.05,2.41-3.95,1.46a7.91,7.91,0,0,0-2.65-.77,28.36,28.36,0,0,0-3.27,0,19.12,19.12,0,0,1-3.92,1.28c-1.72.16-1.54-1.53-2-2.58-1-2.21-2.06-4.37-3.41-7.19a17.75,17.75,0,0,0-.2,4c.3,1.55,1.81,3.36,1.35,4.44-.75,1.74.13,3,.07,4.5A7.08,7.08,0,0,1,175,276a25,25,0,0,0-3,3c-1,1.14-2,2.36-3.38,4,.06,1.56-1,4.06-2.21,4.67-1.71.82-3.87.28-5.72-1.65-1.29-1.35-2.4-2.88-3.59-4.33-.78,2-1.39,3.76-1.23,5.4.19,2-.78,3.14-2.28,2.88-2.7-.48-5.64,1.34-8.26-1.75-1.36-1.61-3.36-2.88-4.53-4.89-.24-.41-1-.9-1.35-.78-1.65.61-3.59,1.05-4.75,2.23-2.23,2.26-2.76,2.65-5.09,1.8-2.77,1.45-5,3-7.44,3.78-4,1.21-7.8-3-6.53-7,.38-1.18-.06-1.68-1.14-1.77-.57,0-1.27.31-1.72.09a14.07,14.07,0,0,1-3.93-2.34c-1-1-.63-2.38.35-3.54.21-.25-.08-1.3-.45-1.57-2.12-1.54-2.67-4-1.11-5.95A27.16,27.16,0,0,1,110,266c-4,.26-5.59-2.06-6.63-5-.61,5.33-1.91,6.6-7.12,7.09a12.29,12.29,0,0,0-2.76.55c-3.41,1.15-6.78,1.48-10.08-.36-1.37,1.38-3,1.12-4.86-.33a7,7,0,0,0-3.25-1,16.66,16.66,0,0,0-2.58.31c-3,.1-4.29-1.06-4.55-4.15-1,2.34-2.42,2.86-4.28,1.24a.88.88,0,0,0-.5-.24c-3.58,0-5.06-2.15-4.13-5.72a1.68,1.68,0,0,0-.81-1.43c-3.95-.8-4.79-2.22-3.4-6a2.65,2.65,0,0,0,.13-.85c0-1.74.32-3.73,2-4.16a14.29,14.29,0,0,0,4.39-1.72c.2-.13.76.33,1.16.47s.88.26,1.53.44c-1.65-2.69-1.57-3,.59-4.38v-5.18l2-.21c.1-.57.06-1.52.33-1.62,2.06-.76,1.09-2.35,1.17-3l-3.78,2.13c.09,1.69-3.1,3.22-1.64,6,.05.1-.18.37-.32.53-1.25,1.46-2.55,2.89-4.72,2.61s-4.77.74-6.36-1.76a.76.76,0,0,0-.52-.35c-3.23.2-4.8-2.63-7.15-4a3.25,3.25,0,0,1-1.31-2.4c0-1.18-1.39-2.37.18-3.7.64-.54.37-2.16.51-3.29l.85-.26a3.32,3.32,0,0,0-.8-.35c-3-.45-3.71-2.74-4.3-5.23a3.42,3.42,0,0,0-1.52-1.86,7.69,7.69,0,0,1-3.88-6.23c-.28-2.76-.25-5.43,1.15-8,.82-1.49.62-2.69-1.41-3.24-3.06-.84-6.21-6.56-5.56-9.76.57-2.78,2.93-3.86,5.36-2.46a1.77,1.77,0,0,0,1,.32c2.06-.24,4.25-.18,6.12-.92A10.5,10.5,0,0,0,44.65,185c.44-.62-.66-2.35-1-3.26l-3.09.62c-1.44,1-2.52,1.88-3.68,2.6-2.37,1.48-4.66.7-6.33-1a16.66,16.66,0,0,1-4.17-6.07c-.62-1.92.15-4.29.33-6.46,0-.54.21-1.06.27-1.59.16-1.37,0-2.88.51-4.07a26.12,26.12,0,0,1,3-4.26l.78.52-.38-.18c.24-1.11.52-2,.62-3,.08-.71-.12-1.45-.11-2.18.07-3.21.65-3.88,3.73-4.62,2.38-.57,4.73-1.21,7.71-2-.74-4.24-1.49-8.58-2.25-12.92a18.73,18.73,0,0,1-.7-4c.18-3.44.63-6.86.94-10.29a3.64,3.64,0,0,0-.19-1.46,8.44,8.44,0,0,1,2.09-7.75c1-.85,2.32-1.69,1.48-3.24s-.58-2.87.68-3.49c-.12-1.47-.53-2.72-.23-3.76s1.35-2.07,2-3.12,1.23-1.83,2.43-.7c1.38-2.53,2.95-2.63,4.56-.89l5.81,1.3L58.78,97l.57.21a33,33,0,0,1,2.16-3.62,4.28,4.28,0,0,1,2.28-1.74c2.41-.35,5.07-1.47,7,1.19,0,.05.27,0,.71-.1a13,13,0,0,0,.12-1.74c-.11-1.94.76-2.71,2.59-2.17.77.22,1.46.71,2.24.87,3,.64,6.37.1,6.92-2.27M101,193.35l0-.05.25-.1Zm36.86,88.14.62,0v-3.08l-.92.05Z"/><path class="cls-1" d="M137.84,281.49l-.3-3.05.92-.05v3.08Z"/><path class="cls-1" d="M101,193.35l.23-.14-.25.1Z"/><path class="cls-1" d="M101,193.3l0,0Z"/><path class="cls-1" d="M287.82,441.54v1.31l-3,4.41c1.7,2.24,2,3.17,1.1,5.1-1.34,3-4,3.12-7.45,2.92,3.93,3.16,1.6,6.12.37,8.75-1.88,4-5.34,2-7.9,1.3-.21,2.11-.08,4-.71,5.68a3.87,3.87,0,0,1-3,1.82c-.82,0-1.78-1.32-2.4-2.24a9.46,9.46,0,0,1-.81-2.66c.26,1.72-1.49,3.39-.09,5.21a1.65,1.65,0,0,1-.45,1.54c-2.49,1.25-1.6,4.07-3,5.65,1,1.46,3.93,1,3.31,3.4a2.73,2.73,0,0,1-3.75,2l-2.66,7.13c1.6,1.45.13,3.19-.22,4.8a3.49,3.49,0,0,1-6.18,1.68,34.6,34.6,0,0,1-3.12-5.13,6.53,6.53,0,0,0-1.08-1.8c-1.25-1-2.64-1.89-4-2.82-.61-.43-1.24-.75-1.8-1.17-.72-.55-1.32-1.26-2.07-1.75-2.16-1.44-4.45-2.69-6.49-4.27a4.56,4.56,0,0,1-1.29-2.86,23.3,23.3,0,0,1,.14-4.07h-9.33c1,2.33,4.91.28,5,2.87a30,30,0,0,1,2.45,2.5c.58.76.86,1.76,1.47,2.5,1,1.23,2.18,2.35,3.32,3.48a12,12,0,0,0,1.89,1.62c1.3.84,2.67,1.56,4,2.35a15.66,15.66,0,0,0,2.78,1.67c2,.65,2.8,2.4,1.74,4.22l.85.22c3,.77,3.8,3.19,2,5.58-.73,1-1.23,2.09-1.93,3.08-.84,1.19-1.76,2.33-2.69,3.45a16.75,16.75,0,0,0-2.15,2.44c-.78,1.46-1.43,2.53-3.41,2.85-1.6.26-2.94,1.88-4.52,2.67-1.75.88-2,4.18-5.26,2.77a6.58,6.58,0,0,1,.52,2.12,2.24,2.24,0,0,1-1,1.6c-2.58,1-5.11,1.32-7-1.46a30.92,30.92,0,0,0-2.34-3.19,6,6,0,0,0-2.09-1.67c-1.75-.71-3-2.71-2.52-4.27s1.08-3.16,1.46-4.77a6,6,0,0,0-.37-2.1c-3.9,1.62-7.58,2.2-11.33.51a1.81,1.81,0,0,0-1-.13c-1.17.25-2.31.68-3.49.83-2.68.34-3.79-.71-4.18-3.47a39.21,39.21,0,0,0-1.13-4.43l-.55.13c.17,1.27.27,2.56.51,3.82.43,2.22-1.51,2.74-2.75,3.38-.86.45-2.77.29-3.3-.35-1.3-1.57-3.43-2.66-3.37-5.27,0-.84-1.07-1.71-1.51-2.36-1.94,1.24-3.57,2.26-5.17,3.31a3.88,3.88,0,0,0-1,.85,5.28,5.28,0,0,1-6.69,1.22,2.93,2.93,0,0,0-1.63-.19c-.7,0-1.38.23-2.59.44.36,1.1.83,2.73,1.42,4.33.66,1.79.21,3.74-1.28,4.32a24.08,24.08,0,0,1-4.57,1.34c-2.49.44-3.36-.48-3.93-3.81-2.44,0-3.06-.6-3.13-2.84,0-.58,0-1.17,0-1.75,0-1.46,0-2.88,2.26-2.1.41.14,1.14-.35,1.58-.71a1.17,1.17,0,0,0,0-1.08c-1.35-.76-.93-1.65-.51-2.78a2.24,2.24,0,0,0-1.59-3.11c-1.35-.39-2.73-.32-3.25,1.58a7.52,7.52,0,0,1-1.58,2.51c-.14.17-.79-.07-1.59-.17.34,1.45.23,4,1.17,4.43,2.87,1.47,1.65,4.09,2.39,6.1.12.33,0,1.07-.27,1.18-1.69.83-1.3,2.4-1.58,3.79a5.73,5.73,0,0,1-1.32,2.78,11,11,0,0,1-2.74,1.6,18.31,18.31,0,0,1,.63,2.45c.21,2.07-1.74,4.35-3.49,3.8-2.45-.76-4.24.14-6,1.53-1.94,1.52-3.79,1.21-5.13-.86-.29-.45-.6-.9-1.07-1.61-1.84,2.51-3.59,2-5.47.34a26.92,26.92,0,0,0-3.91-2.68,2,2,0,0,0-1.56-.12c-2.5,1.11-5,2.24-7.4,3.54-1.45.79-2.44.61-3.3-.77-.37,2.52-.87,3.05-3.45,3.21a3.31,3.31,0,0,1-2.4-.63,55.12,55.12,0,0,1-3.52-5c-2.07,1-3.94-.2-5.79-1.86a3.32,3.32,0,0,0-2.5-.91c-3.24.85-6.21-.29-9.21-1-1.4-.34-3.35-.4-3.37-2.7,0-.2-.68-.54-1.05-.57-2-.14-3-1.6-4-3.08a3.57,3.57,0,0,0-1.67-1.4c-2.42-.77-4.41-4.21-3.56-6.59a3,3,0,0,1,1.35-1.26c1.74,1.38,1.69-.67,2.58-1.28-2.66-.23-3.6-2.19-5.09-3.88-2.09-2.38-1.94-4.63-1.45-7.26a5.37,5.37,0,0,0-.32-2.28c-.5-1.8-1.7-3.65-1.5-5.35.31-2.63,2.49-4.42,4.81-5.53.68-.33,2,.59,3,.92a3,3,0,0,0,.63.07l-.34-.52a32,32,0,0,1,4.2-3.22,9,9,0,0,1,4.37-1.22,3.11,3.11,0,0,0,3.23-1.87,20.6,20.6,0,0,1,2.79-3.1c-4.51-1-7.13,1.31-9.76,3.74,1.3-2.94,1.89-6,4.78-8,1.95-1.3,1.6-2.08-.63-3-.52-.21-1.22-.8-1.25-1.24a2.3,2.3,0,0,1,.82-1.84c1.82-1,3.76-1.76,5.87-2.72-.56-.64-.67-.87-.84-.94C83.39,454,82.09,452,82,448.73c0-1.08-.28-2.86-.89-3.09-1.22-.46-.93-1.06-.94-1.87a14.26,14.26,0,0,0-.35-2.17l-1.09.05c-.08.89-.2,1.78-.22,2.67,0,1.41,1.07,3-.88,4,1.71,1.09,2,2.54,1,4.06-.54.79-1.5,1.56-1.54,2.37a4.72,4.72,0,0,1-2.14,3.8,4.34,4.34,0,0,0-1.8,4.15,9.69,9.69,0,0,1-.59,2.6l-.68-.05-1.2-2.17c-1.5,1.58-1.5,1.58-2.29.63l1.94-1.31a37.08,37.08,0,0,1-4.59-3.09c-1.27-1.16-1.82-1.51-2.71.39a4.12,4.12,0,0,1-3,1.64,6.4,6.4,0,0,1-3.32-.92c-1.58-.81-2.41-2.05-1.46-3.95a7.91,7.91,0,0,0,.77-2.65,28.36,28.36,0,0,0,0-3.27,19.12,19.12,0,0,1-1.28-3.92c-.16-1.72,1.53-1.54,2.58-2,2.21-1,4.37-2.06,7.19-3.41a17.75,17.75,0,0,0-4-.2c-1.55.3-3.36,1.81-4.44,1.35-1.74-.75-3,.13-4.5.07a7.08,7.08,0,0,1-5.77-2.59,25,25,0,0,0-3-3c-1.14-1-2.36-2-4-3.38-1.56.06-4.06-1-4.67-2.21-.82-1.71-.28-3.87,1.65-5.72,1.35-1.29,2.88-2.4,4.33-3.59-2-.78-3.76-1.39-5.4-1.23-2,.19-3.14-.78-2.88-2.28.48-2.7-1.34-5.64,1.75-8.26,1.61-1.36,2.88-3.36,4.89-4.53.41-.24.9-1,.78-1.35-.61-1.65-1.05-3.59-2.23-4.75-2.26-2.23-2.65-2.76-1.8-5.09-1.45-2.77-3-5-3.78-7.44-1.21-4,3-7.8,7-6.53,1.18.38,1.68-.06,1.77-1.14,0-.57-.31-1.27-.09-1.72a14.07,14.07,0,0,1,2.34-3.93c1-1,2.38-.63,3.54.35.25.21,1.3-.08,1.57-.45,1.54-2.12,4-2.67,5.95-1.11a27.16,27.16,0,0,1,2.17,2.31c-.26-4,2.06-5.59,5-6.63-5.33-.61-6.6-1.91-7.09-7.12a12.29,12.29,0,0,0-.55-2.76c-1.15-3.41-1.48-6.78.36-10.08-1.38-1.37-1.12-3,.33-4.86a7,7,0,0,0,1-3.25,16.66,16.66,0,0,0-.31-2.58c-.1-3,1.06-4.29,4.15-4.55-2.34-1-2.86-2.42-1.24-4.28a.88.88,0,0,0,.24-.5c0-3.58,2.15-5.06,5.72-4.13a1.68,1.68,0,0,0,1.43-.81c.8-3.95,2.22-4.79,6-3.4a2.65,2.65,0,0,0,.85.13c1.74,0,3.73.32,4.16,2a14.29,14.29,0,0,0,1.72,4.39c.13.2-.33.76-.47,1.16s-.26.88-.44,1.53c2.69-1.65,3-1.57,4.38.59h5.18l.21,2c.57.1,1.52.06,1.62.33.76,2.06,2.35,1.09,3,1.17L89,329.44c-1.69.09-3.22-3.1-6-1.64-.1.05-.37-.18-.53-.32-1.46-1.25-2.89-2.55-2.61-4.72s-.74-4.77,1.76-6.36a.76.76,0,0,0,.35-.52c-.2-3.23,2.63-4.8,4-7.15a3.25,3.25,0,0,1,2.4-1.31c1.18,0,2.37-1.39,3.7.18.54.64,2.16.37,3.29.51l.26.85a3.32,3.32,0,0,0,.35-.8c.45-3,2.74-3.71,5.23-4.3a3.42,3.42,0,0,0,1.86-1.52,7.69,7.69,0,0,1,6.23-3.88c2.76-.28,5.43-.25,8,1.15,1.49.82,2.69.62,3.24-1.41.84-3.06,6.56-6.21,9.76-5.56,2.78.57,3.86,2.93,2.46,5.36a1.77,1.77,0,0,0-.32,1c.24,2.06.18,4.25.92,6.12a10.5,10.5,0,0,0,3.51,4.41c.62.44,2.35-.66,3.26-1l-.62-3.09c-1-1.44-1.88-2.52-2.6-3.68-1.48-2.37-.7-4.66,1-6.33a16.66,16.66,0,0,1,6.07-4.17c1.92-.62,4.29.15,6.46.33.54,0,1.06.21,1.59.27,1.37.16,2.88,0,4.07.51a26.12,26.12,0,0,1,4.26,3l-.52.78.18-.38c1.11.24,2,.52,3,.62.71.08,1.45-.12,2.18-.11,3.21.07,3.88.65,4.62,3.73.57,2.38,1.21,4.73,2,7.71l12.92-2.25a18.73,18.73,0,0,1,4-.7c3.44.18,6.86.63,10.29.94a3.64,3.64,0,0,0,1.46-.19,8.44,8.44,0,0,1,7.75,2.09c.85,1,1.69,2.32,3.24,1.48s2.87-.58,3.49.68c1.47-.12,2.72-.53,3.76-.23s2.07,1.35,3.12,2,1.83,1.23.7,2.43c2.53,1.38,2.63,2.95.89,4.56l-1.3,5.81,2.73-.77-.21.57a33,33,0,0,1,3.62,2.16,4.28,4.28,0,0,1,1.74,2.28c.35,2.41,1.47,5.07-1.19,7-.05,0,0,.27.1.71a13,13,0,0,0,1.74.12c1.94-.11,2.71.76,2.17,2.59-.22.77-.71,1.46-.87,2.24-.64,3-.1,6.37,2.27,6.92a31.91,31.91,0,0,0,6.28.88c.58,0,1.26-1.17,1.76-1.9.36-.52.31-1.46.75-1.75,2.08-1.37,4.26-2.6,6.44-3.81a1.34,1.34,0,0,1,1.23.12,30.13,30.13,0,0,1,4.62,4.46c1.36,1.88-.59,3.1-1.56,4.17a15.78,15.78,0,0,1,2.4,2.83c.65,1.29,1.24,2.37,2.8,2.71a8.54,8.54,0,0,1,2.35,1.12c1.84,1.08,2.48,3.68,1.12,4.82-2,1.67-4.11,3.2-6.13,4.76,1.38.59,3,.89,4,1.81,1.3,1.12,2,2.9,3.26,4.11A14.28,14.28,0,0,0,267,374.4c.36.19.73.36,1.33.66l-2.07.74c1.09,1.61,2,3.14,3.07,4.46s2.66,2.51,3.84,3.9c.66.78,1.6,2.32,1.31,2.73-.84,1.17.08,1.33.57,1.82s1.36,1,1.61,1.66a21.92,21.92,0,0,1,1.74,6,17.75,17.75,0,0,1-.93,6.54c-.26.78-2,1.09-2.6,1.4-.23,1.62-.08,3.34-.75,4.62a7.83,7.83,0,0,1-3.37,3.12,13.15,13.15,0,0,1-4.78,1c-3.68.25-4.66-.35-5.81-3-.69.38-1.35.82-2.07,1.13-1.3.56-2.62,1.07-4,1.54a7.08,7.08,0,0,1-2.11.49c-1.38,0-1.71.55-1.08,1.77,1.37,2.63,2.66,5.3,4.1,7.89a2.58,2.58,0,0,0,1.64,1.16c3,.44,5-.84,4.73-5.62.66-.05,1.5-.39,2-.11a16.48,16.48,0,0,1,6.11,6.42c.15.28-.49,1.22-1,1.57a25.47,25.47,0,0,1-2.83,1.63l.86,5.56c1.25-2.67,1.55.62,2.55.05l.94-1.1c1.54.92,2.94,1.83,4.41,2.59a1.71,1.71,0,0,0,1.33-.31c.15-2.52,2.08-1.83,3.45-1.88l1.06-2.36.83-.07c.49,1.36,1,2.71,1.47,4.07a5.31,5.31,0,0,0,.51,1.57C284.65,437.94,286.25,439.73,287.82,441.54ZM142.41,500.2h0ZM128.53,365.81l.05,0,.1.25ZM40.39,402.67l0,.62h3.08l-.05-.92Z"/><path class="cls-1" d="M40.39,402.67l3.05-.3.05.92H40.41Z"/><path class="cls-1" d="M128.53,365.81l.14.23-.1-.25Z"/><path class="cls-1" d="M128.58,365.8l0,0Z"/><path class="cls-1" d="M142.4,500.21h0Z"/><path class="cls-1" d="M142.35,500.22h0Z"/><path class="cls-1" d="M240.85,357.17a20.6,20.6,0,0,1-2.79,3.1c4.51,1,7.13-1.31,9.76-3.74-1.3,2.94-1.89,6-4.78,8-1.95,1.3-1.6,2.08.63,3,.52.21,1.22.8,1.25,1.24a2.3,2.3,0,0,1-.82,1.84c-1.82,1-3.76,1.76-5.87,2.72.56.64.67.87.84.94,3.19,1.24,4.48,3.21,4.54,6.5,0,1.08.28,2.86.89,3.09,1.22.46.93,1.06.94,1.87a14.26,14.26,0,0,0,.35,2.17l1.09-.05c.08-.89.2-1.78.22-2.67,0-1.41-1.07-3,.88-4-1.71-1.09-2-2.54-1-4.06.54-.79,1.5-1.56,1.54-2.37a4.72,4.72,0,0,1,2.14-3.8,4.34,4.34,0,0,0,1.8-4.15,9.69,9.69,0,0,1,.59-2.6l.68.05,1.2,2.17c1.5-1.58,1.5-1.58,2.29-.63L255.29,367a37.08,37.08,0,0,1,4.59,3.09c1.27,1.16,1.82,1.51,2.71-.39a4.12,4.12,0,0,1,3-1.64,6.4,6.4,0,0,1,3.32.92c1.58.81,2.41,2.05,1.46,3.95a7.91,7.91,0,0,0-.77,2.65,28.36,28.36,0,0,0,0,3.27,19.12,19.12,0,0,1,1.28,3.92c.16,1.72-1.53,1.54-2.58,2-2.21,1-4.37,2.06-7.19,3.41a17.75,17.75,0,0,0,4,.2c1.55-.3,3.36-1.81,4.44-1.35,1.74.75,3-.13,4.5-.07a7.08,7.08,0,0,1,5.77,2.59,25,25,0,0,0,3,3c1.14,1,2.36,2,4,3.38,1.56-.06,4.06,1,4.67,2.21.82,1.71.28,3.87-1.65,5.72-1.35,1.29-2.88,2.4-4.33,3.59,2,.78,3.76,1.39,5.4,1.23,2-.19,3.14.78,2.88,2.28-.48,2.7,1.34,5.64-1.75,8.26-1.61,1.36-2.88,3.36-4.89,4.53-.41.24-.9,1-.78,1.35.61,1.65,1.05,3.59,2.23,4.75,2.26,2.23,2.65,2.76,1.8,5.09,1.45,2.77,3,5,3.78,7.44,1.21,4-3,7.8-7,6.53-1.18-.38-1.68.06-1.77,1.14,0,.57.31,1.27.09,1.72a14.07,14.07,0,0,1-2.34,3.93c-1,1-2.38.63-3.54-.35-.25-.21-1.3.08-1.57.45-1.54,2.12-4,2.67-5.95,1.11a27.16,27.16,0,0,1-2.17-2.31c.26,4-2.06,5.59-5,6.63,5.33.61,6.6,1.91,7.09,7.12a12.29,12.29,0,0,0,.55,2.76c1.15,3.41,1.48,6.78-.36,10.08,1.38,1.37,1.12,3-.33,4.86a7,7,0,0,0-1,3.25,16.66,16.66,0,0,0,.31,2.58c.1,3-1.06,4.29-4.15,4.55,2.34,1,2.86,2.42,1.24,4.28a.88.88,0,0,0-.24.5c0,3.58-2.15,5.06-5.72,4.13a1.68,1.68,0,0,0-1.43.81c-.8,3.95-2.22,4.79-6,3.4a2.65,2.65,0,0,0-.85-.13c-1.74,0-3.73-.32-4.16-2A14.29,14.29,0,0,0,248,503c-.13-.2.33-.76.47-1.16s.26-.88.44-1.53c-2.69,1.65-3,1.57-4.38-.59h-5.18l-.21-2c-.57-.1-1.52-.06-1.62-.33-.76-2.06-2.35-1.09-3-1.17L236.6,500c1.69-.09,3.22,3.1,6,1.64.1-.05.37.18.53.32,1.46,1.25,2.89,2.55,2.61,4.72s.74,4.77-1.76,6.36a.76.76,0,0,0-.35.52c.2,3.23-2.63,4.8-4,7.15a3.25,3.25,0,0,1-2.4,1.31c-1.18,0-2.37,1.39-3.7-.18-.54-.64-2.16-.37-3.29-.51l-.26-.85a3.32,3.32,0,0,0-.35.8c-.45,3-2.74,3.71-5.23,4.3a3.42,3.42,0,0,0-1.86,1.52,7.69,7.69,0,0,1-6.23,3.88c-2.76.28-5.43.25-8-1.15-1.49-.82-2.69-.62-3.24,1.41-.84,3.06-6.56,6.21-9.76,5.56-2.78-.57-3.86-2.93-2.46-5.36a1.77,1.77,0,0,0,.32-1c-.24-2.06-.18-4.25-.92-6.12a10.5,10.5,0,0,0-3.51-4.41c-.62-.44-2.35.66-3.26,1l.62,3.09c1,1.44,1.88,2.52,2.6,3.68,1.48,2.37.7,4.66-1,6.33a16.66,16.66,0,0,1-6.07,4.17c-1.92.62-4.29-.15-6.46-.33-.54,0-1.06-.21-1.59-.27-1.37-.16-2.88,0-4.07-.51a26.12,26.12,0,0,1-4.26-3l.52-.78-.18.38c-1.11-.24-2-.52-3-.62-.71-.08-1.45.12-2.18.11-3.21-.07-3.88-.65-4.62-3.73-.57-2.38-1.21-4.73-2-7.71L140.88,524a18.73,18.73,0,0,1-4,.7c-3.44-.18-6.86-.63-10.29-.94a3.64,3.64,0,0,0-1.46.19,8.44,8.44,0,0,1-7.75-2.09c-.85-1-1.69-2.32-3.24-1.48s-2.87.58-3.49-.68c-1.47.12-2.72.53-3.76.23s-2.07-1.35-3.12-2-1.83-1.23-.7-2.43c-2.53-1.38-2.63-2.95-.89-4.56l1.3-5.81-2.73.77.21-.57a33,33,0,0,1-3.62-2.16,4.28,4.28,0,0,1-1.74-2.28c-.35-2.41-1.47-5.07,1.19-7,.05,0,0-.27-.1-.71a13,13,0,0,0-1.74-.12c-1.94.11-2.71-.76-2.17-2.59.22-.77.71-1.46.87-2.24.64-3,.1-6.37-2.27-6.92m105.76-17.62-.05,0-.1-.25Zm88.14-36.86,0-.62h-3.08l.05.92Z"/><path class="cls-1" d="M285.25,426.76l-3.05.3-.05-.92h3.08Z"/><path class="cls-1" d="M197.11,463.62l-.14-.23.1.25Z"/><path class="cls-1" d="M197.06,463.63l0,0Z"/><path class="cls-1" d="M204.43,483.09a20.6,20.6,0,0,1-3.1-2.79c-1,4.51,1.31,7.13,3.74,9.76-2.94-1.3-6-1.89-8-4.78-1.3-1.95-2.08-1.6-3,.63-.21.52-.8,1.22-1.24,1.25a2.3,2.3,0,0,1-1.84-.82c-1-1.82-1.76-3.76-2.72-5.87-.64.56-.87.67-.94.84-1.24,3.19-3.21,4.48-6.5,4.54-1.08,0-2.86.28-3.09.89-.46,1.22-1.06.93-1.87.94a14.26,14.26,0,0,0-2.17.35l.05,1.09c.89.08,1.78.2,2.67.22,1.41,0,3-1.07,4,.88,1.09-1.71,2.54-2,4.06-1,.79.54,1.56,1.5,2.37,1.54a4.72,4.72,0,0,1,3.8,2.14,4.34,4.34,0,0,0,4.15,1.8,9.69,9.69,0,0,1,2.6.59l-.05.68-2.17,1.2c1.58,1.5,1.58,1.5.63,2.29l-1.31-1.94a37.08,37.08,0,0,1-3.09,4.59c-1.16,1.27-1.51,1.82.39,2.71a4.12,4.12,0,0,1,1.64,3,6.4,6.4,0,0,1-.92,3.32c-.81,1.58-2.05,2.41-3.95,1.46a7.91,7.91,0,0,0-2.65-.77,28.36,28.36,0,0,0-3.27,0,19.12,19.12,0,0,1-3.92,1.28c-1.72.16-1.54-1.53-2-2.58-1-2.21-2.06-4.37-3.41-7.19a17.75,17.75,0,0,0-.2,4c.3,1.55,1.81,3.36,1.35,4.44-.75,1.74.13,3,.07,4.5A7.08,7.08,0,0,1,172,522a25,25,0,0,0-3,3c-1,1.14-2,2.36-3.38,4,.06,1.56-1,4.06-2.21,4.67-1.71.82-3.87.28-5.72-1.65-1.29-1.35-2.4-2.88-3.59-4.33-.78,2-1.39,3.76-1.23,5.4.19,2-.78,3.14-2.28,2.88-2.7-.48-5.64,1.34-8.26-1.75-1.36-1.61-3.36-2.88-4.53-4.89-.24-.41-1-.9-1.35-.78-1.65.61-3.59,1.05-4.75,2.23-2.23,2.26-2.76,2.65-5.09,1.8-2.77,1.45-5,3-7.44,3.78-4,1.21-7.8-3-6.53-7,.38-1.18-.06-1.68-1.14-1.77-.57,0-1.27.31-1.72.09a14.07,14.07,0,0,1-3.93-2.34c-1-1-.63-2.38.35-3.54.21-.25-.08-1.3-.45-1.57-2.12-1.54-2.67-4-1.11-5.95A27.16,27.16,0,0,1,107,512c-4,.26-5.59-2.06-6.63-5-.61,5.33-1.91,6.6-7.12,7.09a12.29,12.29,0,0,0-2.76.55c-3.41,1.15-6.78,1.48-10.08-.36-1.37,1.38-3,1.12-4.86-.33a7,7,0,0,0-3.25-1,16.66,16.66,0,0,0-2.58.31c-3,.1-4.29-1.06-4.55-4.15-1,2.34-2.42,2.86-4.28,1.24a.88.88,0,0,0-.5-.24c-3.58,0-5.06-2.15-4.13-5.72a1.68,1.68,0,0,0-.81-1.43c-3.95-.8-4.79-2.22-3.4-6a2.65,2.65,0,0,0,.13-.85c0-1.74.32-3.73,2-4.16a14.29,14.29,0,0,0,4.39-1.72c.2-.13.76.33,1.16.47s.88.26,1.53.44c-1.65-2.69-1.57-3,.59-4.38v-5.18l2-.21c.1-.57.06-1.52.33-1.62,2.06-.76,1.09-2.35,1.17-3l-3.78,2.13c.09,1.69-3.1,3.22-1.64,6,.05.1-.18.37-.32.53-1.25,1.46-2.55,2.89-4.72,2.61s-4.77.74-6.36-1.76a.76.76,0,0,0-.52-.35c-3.23.2-4.8-2.63-7.15-4a3.25,3.25,0,0,1-1.31-2.4c0-1.18-1.39-2.37.18-3.7.64-.54.37-2.16.51-3.29l.85-.26a3.32,3.32,0,0,0-.8-.35c-3-.45-3.71-2.74-4.3-5.23a3.42,3.42,0,0,0-1.52-1.86,7.69,7.69,0,0,1-3.88-6.23c-.28-2.76-.25-5.43,1.15-8,.82-1.49.62-2.69-1.41-3.24-3.06-.84-6.21-6.56-5.56-9.76.57-2.78,2.93-3.86,5.36-2.46a1.77,1.77,0,0,0,1,.32c2.06-.24,4.25-.18,6.12-.92A10.5,10.5,0,0,0,41.65,431c.44-.62-.66-2.35-1-3.26l-3.09.62c-1.44,1-2.52,1.88-3.68,2.6-2.37,1.48-4.66.7-6.33-1a16.66,16.66,0,0,1-4.17-6.07c-.62-1.92.15-4.29.33-6.46,0-.54.21-1.06.27-1.59.16-1.37,0-2.88.51-4.07a26.12,26.12,0,0,1,3-4.26l.78.52-.38-.18c.24-1.11.52-2,.62-3,.08-.71-.12-1.45-.11-2.18.07-3.21.65-3.88,3.73-4.62,2.38-.57,4.73-1.21,7.71-2-.74-4.24-1.49-8.58-2.25-12.92a18.73,18.73,0,0,1-.7-4c.18-3.44.63-6.86.94-10.29a3.64,3.64,0,0,0-.19-1.46,8.44,8.44,0,0,1,2.09-7.75c1-.85,2.32-1.69,1.48-3.24s-.58-2.87.68-3.49c-.12-1.47-.53-2.72-.23-3.76s1.35-2.07,2-3.12,1.23-1.83,2.43-.7c1.38-2.53,2.95-2.63,4.56-.89l5.81,1.3L55.78,343l.57.21a33,33,0,0,1,2.16-3.62,4.28,4.28,0,0,1,2.28-1.74c2.41-.35,5.07-1.47,7,1.19,0,.05.27,0,.71-.1a13,13,0,0,0,.12-1.74c-.11-1.94.76-2.71,2.59-2.17.77.22,1.46.71,2.24.87,3,.64,6.37.1,6.92-2.27M98,439.35l0-.05.25-.1Zm36.86,88.14.62,0v-3.08l-.92.05Z"/><path class="cls-1" d="M134.84,527.49l-.3-3.05.92-.05v3.08Z"/><path class="cls-1" d="M98,439.35l.23-.14-.25.1Z"/><path class="cls-1" d="M98,439.3l0,0Z"/><path class="cls-1" d="M150.62,161.62h1.31l4.41,3.05c2.24-1.7,3.18-2,5.1-1.1,3,1.34,3.12,4,2.92,7.45,3.17-3.93,6.12-1.6,8.75-.36,4,1.88,2,5.34,1.29,7.91,2.11.22,4,.08,5.68.71a3.87,3.87,0,0,1,1.82,3c0,.82-1.32,1.78-2.24,2.4a9.46,9.46,0,0,1-2.66.81c1.72-.26,3.39,1.49,5.21.09a1.65,1.65,0,0,1,1.54.45c1.25,2.49,4.06,1.6,5.65,3,1.46-1,1-3.93,3.4-3.31a2.73,2.73,0,0,1,2,3.75l7.13,2.66c1.45-1.6,3.19-.13,4.8.22a3.49,3.49,0,0,1,1.68,6.18,34.6,34.6,0,0,1-5.13,3.12,6.53,6.53,0,0,0-1.8,1.07c-1,1.25-1.89,2.63-2.82,4-.43.61-.75,1.24-1.18,1.8-.55.72-1.26,1.32-1.76,2.07-1.44,2.15-2.69,4.45-4.27,6.49a4.56,4.56,0,0,1-2.86,1.29,23.3,23.3,0,0,1-4.07-.14v9.33c2.33-1,.28-4.91,2.87-5a30,30,0,0,1,2.5-2.45c.76-.58,1.76-.86,2.5-1.47,1.23-1,2.35-2.18,3.48-3.31a12,12,0,0,0,1.62-1.89c.84-1.3,1.56-2.67,2.35-4a15.66,15.66,0,0,0,1.67-2.78c.65-2,2.4-2.8,4.22-1.74l.22-.85c.77-3,3.2-3.8,5.58-2,1,.73,2.09,1.23,3.08,1.93,1.19.84,2.32,1.76,3.45,2.69a16.75,16.75,0,0,0,2.43,2.15c1.46.78,2.53,1.43,2.85,3.41.26,1.6,1.88,2.95,2.67,4.52.88,1.75,4.18,2,2.77,5.26a6.58,6.58,0,0,1,2.12-.52,2.24,2.24,0,0,1,1.6,1c1,2.59,1.32,5.11-1.46,7a30.92,30.92,0,0,0-3.19,2.34,6,6,0,0,0-1.67,2.08c-.71,1.75-2.71,3-4.27,2.52s-3.16-1.08-4.77-1.46a6,6,0,0,0-2.1.37c1.62,3.9,2.19,7.58.51,11.33a1.81,1.81,0,0,0-.13,1c.24,1.17.68,2.31.83,3.49.34,2.69-.71,3.79-3.47,4.17a39.21,39.21,0,0,0-4.43,1.13l.13.55c1.27-.16,2.56-.26,3.82-.51,2.22-.43,2.74,1.51,3.38,2.75.44.86.29,2.77-.35,3.3-1.57,1.3-2.67,3.43-5.28,3.37-.84,0-1.71,1.07-2.36,1.51,1.24,1.94,2.26,3.57,3.31,5.17a3.88,3.88,0,0,0,.85,1,5.28,5.28,0,0,1,1.21,6.69,2.93,2.93,0,0,0-.19,1.63c0,.7.23,1.38.44,2.59,1.1-.36,2.73-.83,4.33-1.42,1.79-.66,3.74-.21,4.32,1.28a24.08,24.08,0,0,1,1.34,4.57c.44,2.49-.48,3.36-3.81,3.93,0,2.44-.6,3.06-2.84,3.13-.58,0-1.17,0-1.75,0-1.46,0-2.88,0-2.1-2.26.14-.41-.35-1.14-.71-1.58a1.17,1.17,0,0,0-1.08,0c-.76,1.35-1.65.93-2.78.51a2.24,2.24,0,0,0-3.11,1.59c-.39,1.35-.32,2.73,1.58,3.25a7.52,7.52,0,0,1,2.51,1.58c.17.14-.07.79-.17,1.59,1.45-.34,4-.23,4.43-1.16,1.48-2.87,4.09-1.64,6.1-2.39.33-.12,1.07,0,1.18.27.83,1.69,2.39,1.31,3.79,1.58a5.73,5.73,0,0,1,2.78,1.32,11,11,0,0,1,1.6,2.74,18.31,18.31,0,0,1,2.45-.63c2.07-.21,4.35,1.74,3.8,3.49-.76,2.45.14,4.24,1.53,6,1.52,1.94,1.21,3.79-.86,5.13L234.18,318c2.51,1.84,2,3.59.33,5.47a26.92,26.92,0,0,0-2.68,3.91,2,2,0,0,0-.12,1.56c1.11,2.5,2.23,5,3.54,7.4.79,1.45.61,2.44-.77,3.3,2.52.37,3.05.87,3.21,3.45a3.31,3.31,0,0,1-.63,2.4,55.12,55.12,0,0,1-5,3.51c1,2.07-.2,3.94-1.87,5.79a3.32,3.32,0,0,0-.91,2.5c.85,3.24-.3,6.21-1,9.21-.35,1.4-.4,3.35-2.71,3.37-.2,0-.54.67-.57,1.05-.14,2-1.6,3-3.08,4a3.57,3.57,0,0,0-1.4,1.67c-.77,2.42-4.21,4.41-6.6,3.56a3,3,0,0,1-1.25-1.36c1.39-1.74-.67-1.7-1.28-2.58-.23,2.66-2.19,3.6-3.88,5.09-2.38,2.09-4.63,1.94-7.27,1.45a5.37,5.37,0,0,0-2.28.32c-1.8.5-3.65,1.7-5.35,1.5-2.63-.31-4.41-2.49-5.53-4.82-.33-.68.59-2,.92-3a3,3,0,0,0,.07-.63l-.52.34a32,32,0,0,1-3.22-4.2,9,9,0,0,1-1.22-4.37,3.11,3.11,0,0,0-1.86-3.23,20.6,20.6,0,0,1-3.1-2.8c-1,4.51,1.31,7.13,3.73,9.77-2.94-1.3-6-1.89-8-4.79-1.3-1.95-2.08-1.6-3,.63-.21.52-.8,1.22-1.25,1.24a2.3,2.3,0,0,1-1.84-.82c-1-1.82-1.76-3.76-2.71-5.87-.64.56-.87.67-.94.84-1.24,3.19-3.21,4.48-6.5,4.54-1.08,0-2.86.28-3.09.89-.46,1.22-1.06.93-1.87.94a14.26,14.26,0,0,0-2.17.35l.05,1.09c.89.08,1.78.2,2.67.22,1.41,0,3-1.07,4,.88,1.09-1.71,2.54-2,4.06-1,.79.54,1.56,1.5,2.37,1.54a4.72,4.72,0,0,1,3.8,2.15,4.34,4.34,0,0,0,4.14,1.81,9.69,9.69,0,0,1,2.6.59l-.05.68-2.17,1.2c1.58,1.5,1.58,1.5.62,2.29l-1.3-1.95a37.08,37.08,0,0,1-3.09,4.59c-1.16,1.27-1.51,1.82.39,2.71a4.12,4.12,0,0,1,1.63,3,6.4,6.4,0,0,1-.92,3.32c-.81,1.58-2.05,2.41-4,1.46a7.91,7.91,0,0,0-2.65-.77,28.36,28.36,0,0,0-3.27,0,19.12,19.12,0,0,1-3.92,1.28c-1.72.16-1.54-1.53-2-2.58-1-2.21-2.06-4.38-3.4-7.2a17.75,17.75,0,0,0-.2,4c.3,1.55,1.81,3.37,1.35,4.44-.75,1.74.12,3,.06,4.5a7.08,7.08,0,0,1-2.59,5.77,25,25,0,0,0-3,3c-1,1.14-2,2.36-3.39,4,.06,1.56-1,4.06-2.21,4.66-1.71.82-3.87.28-5.71-1.66-1.29-1.35-2.4-2.88-3.59-4.33-.78,2-1.39,3.76-1.23,5.4.19,2-.78,3.14-2.28,2.88-2.7-.48-5.64,1.34-8.26-1.76-1.36-1.61-3.36-2.88-4.52-4.89-.24-.41-1-.9-1.35-.78-1.65.61-3.59,1.05-4.75,2.22-2.23,2.26-2.76,2.65-5.09,1.79-2.77,1.44-5,3-7.45,3.78-4,1.21-7.8-3-6.52-7,.38-1.18-.06-1.68-1.14-1.77-.57,0-1.27.31-1.72.09a14.07,14.07,0,0,1-3.93-2.34c-1-1-.63-2.38.35-3.54.21-.25-.08-1.3-.45-1.57-2.12-1.54-2.67-4-1.1-5.95a27.16,27.16,0,0,1,2.31-2.16c-4,.26-5.59-2.06-6.63-5-.61,5.33-1.91,6.6-7.12,7.09a12.29,12.29,0,0,0-2.76.55c-3.42,1.15-6.78,1.48-10.08-.36-1.37,1.38-3,1.12-4.86-.34a7,7,0,0,0-3.25-1,16.66,16.66,0,0,0-2.58.31c-3,.09-4.29-1.07-4.55-4.15-1,2.34-2.42,2.86-4.28,1.23a.88.88,0,0,0-.5-.24c-3.58,0-5.06-2.15-4.13-5.72a1.68,1.68,0,0,0-.81-1.43c-3.95-.8-4.78-2.23-3.4-6a2.65,2.65,0,0,0,.13-.85c0-1.74.32-3.73,2-4.16a14.29,14.29,0,0,0,4.39-1.71c.2-.13.76.33,1.16.47s.88.26,1.53.44c-1.65-2.69-1.56-3,.59-4.38v-5.18l2-.21c.1-.57.06-1.52.33-1.62,2.06-.76,1.09-2.35,1.17-3l-3.78,2.13c.09,1.69-3.1,3.22-1.64,6,.05.1-.18.37-.32.53-1.25,1.46-2.55,2.89-4.72,2.61s-4.77.74-6.36-1.76a.76.76,0,0,0-.52-.35c-3.23.2-4.8-2.63-7.15-4a3.25,3.25,0,0,1-1.31-2.4c0-1.18-1.39-2.37.18-3.7.64-.54.37-2.16.52-3.29l.85-.26a3.32,3.32,0,0,0-.8-.35c-3-.46-3.71-2.74-4.3-5.24a3.42,3.42,0,0,0-1.52-1.86A7.69,7.69,0,0,1,7.43,340c-.28-2.76-.25-5.43,1.16-8,.82-1.49.62-2.69-1.41-3.24C4.11,328,1,322.24,1.62,319c.57-2.78,2.94-3.86,5.36-2.46a1.77,1.77,0,0,0,1,.32c2.06-.24,4.25-.18,6.12-.91a10.5,10.5,0,0,0,4.41-3.51c.45-.62-.66-2.35-1-3.26l-3.09.62c-1.44,1-2.52,1.88-3.68,2.6-2.37,1.48-4.66.7-6.33-1a16.66,16.66,0,0,1-4.17-6.08c-.62-1.92.16-4.29.34-6.46,0-.54.21-1.06.27-1.59.16-1.37,0-2.88.51-4.07a26.12,26.12,0,0,1,3-4.26l.78.52-.38-.18c.24-1.11.52-2,.62-3,.08-.71-.12-1.45-.11-2.18.07-3.21.65-3.88,3.73-4.62,2.38-.57,4.74-1.21,7.71-2-.74-4.24-1.48-8.58-2.24-12.92a18.73,18.73,0,0,1-.7-4c.18-3.44.64-6.86.94-10.29a3.64,3.64,0,0,0-.19-1.46,8.44,8.44,0,0,1,2.1-7.75c1-.85,2.32-1.69,1.48-3.24s-.58-2.87.68-3.49c-.12-1.47-.53-2.72-.23-3.76s1.35-2.07,2-3.12,1.23-1.83,2.43-.7c1.38-2.53,2.95-2.62,4.56-.89l5.81,1.3-.76-2.73.57.21a33,33,0,0,1,2.16-3.62,4.28,4.28,0,0,1,2.28-1.73c2.41-.35,5.07-1.46,7,1.2,0,.05.27,0,.71-.1a13,13,0,0,0,.12-1.74c-.1-1.94.76-2.71,2.59-2.17.77.22,1.46.71,2.24.87,3,.64,6.37.11,6.92-2.27a31.91,31.91,0,0,0,.88-6.28c0-.58-1.17-1.26-1.9-1.76-.52-.36-1.46-.31-1.75-.75-1.37-2.08-2.6-4.26-3.81-6.44a1.34,1.34,0,0,1,.12-1.23A30.13,30.13,0,0,1,55.24,194c1.88-1.35,3.1.59,4.17,1.57a15.78,15.78,0,0,1,2.83-2.4c1.29-.65,2.37-1.24,2.71-2.8A8.54,8.54,0,0,1,66.08,188c1.08-1.84,3.68-2.48,4.82-1.12,1.67,2,3.2,4.11,4.75,6.14.59-1.38.9-3,1.81-4,1.12-1.3,2.9-2,4.11-3.26a14.28,14.28,0,0,0,1.89-3.37c.19-.36.36-.73.66-1.33l.73,2.07c1.61-1.09,3.14-2,4.46-3.07s2.51-2.66,3.9-3.84c.78-.66,2.32-1.6,2.73-1.31,1.17.84,1.33-.07,1.82-.57s1-1.36,1.66-1.61a21.92,21.92,0,0,1,6-1.73,17.75,17.75,0,0,1,6.54.93c.78.26,1.09,2,1.4,2.6,1.62.23,3.34.08,4.62.75a7.83,7.83,0,0,1,3.11,3.37,13.15,13.15,0,0,1,1,4.78c.25,3.68-.35,4.66-3,5.81.38.69.82,1.35,1.13,2.07.56,1.3,1.07,2.62,1.54,4a7.08,7.08,0,0,1,.48,2.11c0,1.38.55,1.71,1.77,1.08,2.63-1.37,5.3-2.66,7.89-4.1a2.58,2.58,0,0,0,1.16-1.64c.44-3-.83-5-5.62-4.74-.05-.66-.39-1.5-.11-2a16.48,16.48,0,0,1,6.43-6.11c.28-.15,1.22.5,1.57,1a25.47,25.47,0,0,1,1.62,2.83l5.56-.85c-2.67-1.26.63-1.55.06-2.55l-1.1-.95c.93-1.54,1.83-2.93,2.59-4.4a1.71,1.71,0,0,0-.31-1.33c-2.52-.15-1.83-2.08-1.88-3.45l-2.36-1.06-.07-.83c1.36-.49,2.71-1,4.08-1.47a5.31,5.31,0,0,0,1.57-.51C147,164.79,148.8,163.19,150.62,161.62ZM209.2,307.07v0ZM74.8,320.88l0-.05.25-.1ZM111.61,409l.62,0v-3.08l-.92.05Z"/><path class="cls-1" d="M111.61,409l-.3-3.05.92-.05V409Z"/><path class="cls-1" d="M74.8,320.88l.23-.14-.25.1Z"/><path class="cls-1" d="M74.79,320.83l0,0Z"/><path class="cls-1" d="M209.21,307.08v0Z"/><path class="cls-1" d="M209.22,307.12v0Z"/><path class="cls-1" d="M66.21,208.55a20.6,20.6,0,0,1,3.1,2.8c1-4.51-1.31-7.13-3.73-9.77,2.94,1.3,6,1.89,8,4.79,1.3,1.95,2.08,1.6,3-.63.21-.52.8-1.22,1.25-1.24a2.3,2.3,0,0,1,1.84.82c1,1.82,1.76,3.76,2.71,5.87.64-.56.87-.67.94-.84,1.24-3.19,3.21-4.48,6.5-4.54,1.08,0,2.86-.28,3.09-.89.46-1.22,1.06-.93,1.87-.94a14.26,14.26,0,0,0,2.17-.35l-.05-1.09c-.89-.08-1.78-.2-2.67-.22-1.41,0-3,1.07-4-.88-1.09,1.71-2.54,2-4.06,1-.79-.54-1.56-1.5-2.37-1.54a4.72,4.72,0,0,1-3.8-2.15,4.34,4.34,0,0,0-4.14-1.81,9.69,9.69,0,0,1-2.6-.59l.05-.68,2.17-1.2c-1.58-1.5-1.58-1.5-.62-2.29l1.3,1.95a37.08,37.08,0,0,1,3.09-4.59c1.16-1.27,1.51-1.82-.39-2.71a4.12,4.12,0,0,1-1.63-3,6.4,6.4,0,0,1,.92-3.32c.81-1.58,2.05-2.41,4-1.46a7.91,7.91,0,0,0,2.65.77,28.36,28.36,0,0,0,3.27,0,19.12,19.12,0,0,1,3.92-1.28c1.72-.16,1.54,1.53,2,2.58,1,2.21,2.06,4.38,3.4,7.2a17.75,17.75,0,0,0,.2-4c-.3-1.55-1.81-3.37-1.35-4.44.75-1.74-.12-3-.06-4.5a7.08,7.08,0,0,1,2.59-5.77,25,25,0,0,0,3-3c1-1.14,2-2.36,3.39-4-.06-1.56,1-4.06,2.21-4.66,1.71-.82,3.87-.28,5.71,1.66,1.29,1.35,2.4,2.88,3.59,4.33.78-2,1.39-3.76,1.23-5.4-.19-2,.78-3.14,2.28-2.88,2.7.48,5.64-1.34,8.26,1.76,1.36,1.61,3.36,2.88,4.52,4.89.24.41,1,.9,1.35.78,1.65-.61,3.59-1.05,4.75-2.22,2.23-2.26,2.76-2.65,5.09-1.79,2.77-1.44,5-3,7.45-3.78,4-1.21,7.8,3,6.52,7-.38,1.18.06,1.68,1.14,1.77.57,0,1.27-.31,1.72-.09a14.07,14.07,0,0,1,3.93,2.34c1,1,.63,2.38-.35,3.54-.21.25.08,1.3.45,1.57,2.12,1.54,2.67,4,1.1,5.95a27.16,27.16,0,0,1-2.31,2.16c4-.26,5.59,2.06,6.63,5,.61-5.33,1.91-6.6,7.12-7.09a12.29,12.29,0,0,0,2.76-.55c3.42-1.15,6.78-1.48,10.08.36,1.37-1.38,3-1.12,4.86.34a7,7,0,0,0,3.25,1,16.66,16.66,0,0,0,2.58-.31c3-.09,4.29,1.07,4.55,4.15,1-2.34,2.42-2.86,4.28-1.23a.88.88,0,0,0,.5.24c3.58,0,5.06,2.15,4.13,5.72a1.68,1.68,0,0,0,.81,1.43c3.95.8,4.78,2.23,3.4,6a2.65,2.65,0,0,0-.13.85c0,1.74-.32,3.73-2,4.16a14.29,14.29,0,0,0-4.39,1.71c-.2.13-.76-.33-1.16-.47s-.88-.26-1.53-.44c1.65,2.69,1.56,3-.59,4.38v5.18l-2,.21c-.1.57-.06,1.52-.33,1.62-2.06.76-1.09,2.35-1.17,3l3.78-2.13c-.09-1.69,3.1-3.22,1.64-6-.05-.1.18-.37.32-.53,1.25-1.46,2.55-2.89,4.72-2.61s4.77-.74,6.36,1.76a.76.76,0,0,0,.52.35c3.23-.2,4.8,2.63,7.15,4a3.25,3.25,0,0,1,1.31,2.4c0,1.18,1.39,2.37-.18,3.7-.64.54-.37,2.16-.52,3.29l-.85.26a3.32,3.32,0,0,0,.8.35c3,.46,3.71,2.74,4.3,5.24a3.42,3.42,0,0,0,1.52,1.86A7.69,7.69,0,0,1,240,233.2c.28,2.76.25,5.43-1.16,8-.82,1.49-.62,2.69,1.41,3.24,3.06.84,6.21,6.56,5.56,9.76-.57,2.78-2.94,3.86-5.36,2.46a1.77,1.77,0,0,0-1-.32c-2.06.24-4.25.18-6.12.91a10.5,10.5,0,0,0-4.41,3.51c-.45.62.66,2.35,1,3.26l3.09-.62c1.44-1,2.52-1.88,3.68-2.6,2.37-1.48,4.66-.7,6.33,1a16.66,16.66,0,0,1,4.17,6.08c.62,1.92-.16,4.29-.34,6.46,0,.54-.21,1.06-.27,1.59-.16,1.37,0,2.88-.51,4.07a26.12,26.12,0,0,1-3,4.26l-.78-.52.38.18c-.24,1.11-.52,2-.62,3-.08.71.12,1.45.11,2.18-.07,3.21-.65,3.88-3.73,4.62-2.38.57-4.74,1.21-7.71,2,.74,4.24,1.48,8.58,2.24,12.92a18.73,18.73,0,0,1,.7,4c-.18,3.44-.64,6.86-.94,10.29a3.64,3.64,0,0,0,.19,1.46,8.44,8.44,0,0,1-2.1,7.75c-1,.85-2.32,1.69-1.48,3.24s.58,2.87-.68,3.49c.12,1.47.53,2.72.23,3.76s-1.35,2.07-2,3.12-1.23,1.83-2.43.7c-1.38,2.53-2.95,2.62-4.56.89L214,346l.76,2.73-.57-.21a33,33,0,0,1-2.16,3.62,4.28,4.28,0,0,1-2.28,1.73c-2.41.35-5.07,1.46-7-1.2,0-.05-.27,0-.71.1a13,13,0,0,0-.12,1.74c.1,1.94-.76,2.71-2.59,2.17-.77-.22-1.46-.71-2.24-.87-3-.64-6.37-.11-6.92,2.27M172.64,252.35l0,.05-.25.1Zm-36.81-88.16-.62,0v3.08l.92-.05Z"/><path class="cls-1" d="M135.83,164.19l.3,3.05-.92.05v-3.08Z"/><path class="cls-1" d="M172.64,252.35l-.23.14.25-.1Z"/><path class="cls-1" d="M172.66,252.4l0,0Z"/><path class="cls-1" d="M192.13,245a20.6,20.6,0,0,1-2.8,3.1c4.51,1,7.13-1.31,9.77-3.73-1.3,2.94-1.89,6-4.79,8-1.95,1.3-1.6,2.08.63,3,.52.21,1.22.8,1.24,1.25a2.3,2.3,0,0,1-.82,1.84c-1.82,1-3.76,1.76-5.87,2.71.56.64.67.87.84.94,3.19,1.24,4.48,3.21,4.54,6.5,0,1.08.28,2.86.89,3.09,1.22.46.93,1.06.94,1.87a14.26,14.26,0,0,0,.35,2.17l1.09-.05c.08-.89.2-1.78.22-2.67,0-1.41-1.07-3,.88-4-1.71-1.09-2-2.54-1-4.06.54-.79,1.5-1.56,1.54-2.37a4.72,4.72,0,0,1,2.15-3.8,4.34,4.34,0,0,0,1.81-4.14,9.69,9.69,0,0,1,.59-2.6l.68.05,1.2,2.17c1.5-1.58,1.5-1.58,2.29-.62l-1.95,1.3a37.08,37.08,0,0,1,4.59,3.09c1.27,1.16,1.82,1.51,2.71-.39a4.12,4.12,0,0,1,3-1.63,6.4,6.4,0,0,1,3.32.92c1.58.81,2.41,2.05,1.46,4a7.91,7.91,0,0,0-.77,2.65,28.36,28.36,0,0,0,0,3.27,19.12,19.12,0,0,1,1.28,3.92c.16,1.72-1.53,1.54-2.58,2-2.21,1-4.38,2.06-7.2,3.4a17.75,17.75,0,0,0,4,.2c1.55-.3,3.37-1.81,4.44-1.35,1.74.75,3-.12,4.5-.06a7.08,7.08,0,0,1,5.77,2.59,25,25,0,0,0,3,3c1.14,1,2.36,2,4,3.39,1.56-.06,4.06,1,4.66,2.21.82,1.71.28,3.87-1.66,5.71-1.35,1.29-2.88,2.4-4.33,3.59,2,.78,3.76,1.39,5.4,1.23,2-.19,3.14.78,2.88,2.28-.48,2.7,1.34,5.64-1.76,8.26-1.61,1.36-2.88,3.36-4.89,4.52-.41.24-.9,1-.78,1.35.61,1.65,1.05,3.59,2.22,4.75,2.26,2.23,2.65,2.76,1.79,5.09,1.44,2.77,3,5,3.78,7.45,1.21,4-3,7.8-7,6.52-1.18-.38-1.68.06-1.77,1.14,0,.57.31,1.27.09,1.72a14.07,14.07,0,0,1-2.34,3.93c-1,1-2.38.63-3.54-.35-.25-.21-1.3.08-1.57.45-1.54,2.12-4,2.67-5.95,1.1a27.16,27.16,0,0,1-2.16-2.31c.26,4-2.06,5.59-5,6.63,5.33.61,6.6,1.91,7.09,7.12a12.29,12.29,0,0,0,.55,2.76c1.15,3.42,1.48,6.78-.36,10.08,1.38,1.37,1.12,3-.34,4.86a7,7,0,0,0-1,3.25,16.66,16.66,0,0,0,.31,2.58c.09,3-1.07,4.29-4.15,4.55,2.34,1,2.86,2.42,1.23,4.28a.88.88,0,0,0-.24.5c0,3.58-2.15,5.06-5.72,4.13a1.68,1.68,0,0,0-1.43.81c-.8,3.95-2.23,4.78-6,3.4a2.65,2.65,0,0,0-.85-.13c-1.74,0-3.73-.32-4.16-2a14.29,14.29,0,0,0-1.71-4.39c-.13-.2.33-.76.47-1.16s.26-.88.44-1.53c-2.69,1.65-3,1.56-4.38-.59h-5.18l-.21-2c-.57-.1-1.52-.06-1.62-.33-.76-2.06-2.35-1.09-3-1.17l2.13,3.78c1.69-.09,3.22,3.1,6,1.64.1-.05.37.18.53.32,1.46,1.25,2.89,2.55,2.61,4.72s.74,4.77-1.76,6.36a.76.76,0,0,0-.35.52c.2,3.23-2.63,4.8-4,7.15a3.25,3.25,0,0,1-2.4,1.31c-1.18,0-2.37,1.39-3.7-.18-.54-.64-2.16-.37-3.29-.52l-.26-.85a3.32,3.32,0,0,0-.35.8c-.46,3-2.74,3.71-5.24,4.3A3.42,3.42,0,0,0,173.7,415a7.69,7.69,0,0,1-6.23,3.88c-2.76.28-5.43.25-8-1.16-1.49-.82-2.69-.62-3.24,1.41-.84,3.06-6.56,6.21-9.76,5.56-2.78-.57-3.86-2.94-2.46-5.36a1.77,1.77,0,0,0,.32-1c-.24-2.06-.18-4.25-.91-6.12a10.5,10.5,0,0,0-3.51-4.41c-.62-.45-2.35.66-3.26,1l.62,3.09c1,1.44,1.88,2.52,2.6,3.68,1.48,2.37.7,4.66-1,6.33a16.66,16.66,0,0,1-6.08,4.17c-1.92.62-4.29-.16-6.46-.34-.54,0-1.06-.21-1.59-.27-1.37-.16-2.88,0-4.07-.51a26.12,26.12,0,0,1-4.26-3l.52-.78-.18.38c-1.11-.24-2-.52-3-.62-.71-.08-1.45.12-2.18.11-3.21-.07-3.88-.65-4.62-3.73-.57-2.38-1.21-4.74-2-7.71l-12.92,2.24a18.73,18.73,0,0,1-4,.7c-3.44-.18-6.86-.64-10.29-.94a3.64,3.64,0,0,0-1.46.19,8.44,8.44,0,0,1-7.75-2.1c-.85-1-1.69-2.32-3.24-1.48s-2.87.58-3.49-.68c-1.47.12-2.72.53-3.76.23s-2.07-1.35-3.12-2-1.83-1.23-.7-2.43c-2.53-1.38-2.62-2.95-.89-4.56l1.3-5.81-2.73.76.21-.57a33,33,0,0,1-3.62-2.16,4.28,4.28,0,0,1-1.73-2.28c-.35-2.41-1.46-5.07,1.2-7,.05,0,0-.27-.1-.71a13,13,0,0,0-1.74-.12c-1.94.1-2.71-.76-2.17-2.59.22-.77.71-1.46.87-2.24.64-3,.11-6.37-2.27-6.92m105.77-17.56-.05,0-.1-.25Zm88.16-36.81,0-.62h-3.08l.05.92Z"/><path class="cls-1" d="M236.48,314.65l-3.05.3-.05-.92h3.08Z"/><path class="cls-1" d="M148.32,351.46l-.14-.23.1.25Z"/><path class="cls-1" d="M148.28,351.47l0,0Z"/><path class="cls-1" d="M286.82,150.54v1.31l-3,4.41c1.7,2.24,2,3.17,1.1,5.1-1.34,3-4,3.12-7.45,2.92,3.93,3.16,1.6,6.12.37,8.75-1.88,4-5.34,2-7.9,1.3-.21,2.11-.08,4-.71,5.68a3.87,3.87,0,0,1-3,1.82c-.82,0-1.78-1.32-2.4-2.24a9.46,9.46,0,0,1-.81-2.66c.26,1.72-1.49,3.39-.09,5.21a1.65,1.65,0,0,1-.45,1.54c-2.49,1.25-1.6,4.07-3,5.65,1,1.46,3.93,1,3.31,3.4a2.73,2.73,0,0,1-3.75,2l-2.66,7.13c1.6,1.45.13,3.19-.22,4.8a3.49,3.49,0,0,1-6.18,1.68,34.6,34.6,0,0,1-3.12-5.13,6.53,6.53,0,0,0-1.08-1.8c-1.25-1-2.64-1.89-4-2.82-.61-.43-1.24-.75-1.8-1.17-.72-.55-1.32-1.26-2.07-1.75-2.16-1.44-4.45-2.69-6.49-4.27a4.56,4.56,0,0,1-1.29-2.86,23.3,23.3,0,0,1,.14-4.07h-9.33c1,2.33,4.91.28,5,2.87a30,30,0,0,1,2.45,2.5c.58.76.86,1.76,1.47,2.5,1,1.23,2.18,2.35,3.32,3.48a12,12,0,0,0,1.89,1.62c1.3.84,2.67,1.56,4,2.35a15.66,15.66,0,0,0,2.78,1.67c2,.65,2.8,2.4,1.74,4.22l.85.22c3,.77,3.8,3.19,2,5.58-.73,1-1.23,2.09-1.93,3.08-.84,1.19-1.76,2.33-2.69,3.45a16.75,16.75,0,0,0-2.15,2.44c-.78,1.46-1.43,2.53-3.41,2.85-1.6.26-2.94,1.88-4.52,2.67-1.75.88-2,4.18-5.26,2.77a6.58,6.58,0,0,1,.52,2.12,2.24,2.24,0,0,1-1,1.6c-2.58,1-5.11,1.32-7-1.46a30.92,30.92,0,0,0-2.34-3.19,6,6,0,0,0-2.09-1.67c-1.75-.71-3-2.71-2.52-4.27s1.08-3.16,1.46-4.77a6,6,0,0,0-.37-2.1c-3.9,1.62-7.58,2.2-11.33.51a1.81,1.81,0,0,0-1-.13c-1.17.25-2.31.68-3.49.83-2.68.34-3.79-.71-4.18-3.47a39.21,39.21,0,0,0-1.13-4.43l-.55.13c.17,1.27.27,2.56.51,3.82.43,2.22-1.51,2.74-2.75,3.38-.86.45-2.77.29-3.3-.35-1.3-1.57-3.43-2.66-3.37-5.27,0-.84-1.07-1.71-1.51-2.36-1.94,1.24-3.57,2.26-5.17,3.31a3.88,3.88,0,0,0-1,.85,5.28,5.28,0,0,1-6.69,1.22,2.93,2.93,0,0,0-1.63-.19c-.7,0-1.38.23-2.59.44.36,1.1.83,2.73,1.42,4.33.66,1.79.21,3.74-1.28,4.32a24.08,24.08,0,0,1-4.57,1.34c-2.49.44-3.36-.48-3.93-3.81-2.44,0-3.06-.6-3.13-2.84,0-.58,0-1.17,0-1.75,0-1.46,0-2.88,2.26-2.1.41.14,1.14-.35,1.58-.71a1.17,1.17,0,0,0,0-1.08c-1.35-.76-.93-1.65-.51-2.78a2.24,2.24,0,0,0-1.59-3.11c-1.35-.39-2.73-.32-3.25,1.58a7.52,7.52,0,0,1-1.58,2.51c-.14.17-.79-.07-1.59-.17.34,1.45.23,4,1.17,4.43,2.87,1.47,1.65,4.09,2.39,6.1.12.33,0,1.07-.27,1.18-1.69.83-1.3,2.4-1.58,3.79a5.73,5.73,0,0,1-1.32,2.78,11,11,0,0,1-2.74,1.6,18.31,18.31,0,0,1,.63,2.45c.21,2.07-1.74,4.35-3.49,3.8-2.45-.76-4.24.14-6,1.53-1.94,1.52-3.79,1.21-5.13-.86-.29-.45-.6-.9-1.07-1.61-1.84,2.51-3.59,2-5.47.34a26.92,26.92,0,0,0-3.91-2.68,2,2,0,0,0-1.56-.12c-2.5,1.11-5,2.24-7.4,3.54-1.45.79-2.44.61-3.3-.77-.37,2.52-.87,3.05-3.45,3.21a3.31,3.31,0,0,1-2.4-.63,55.12,55.12,0,0,1-3.52-5c-2.07,1-3.94-.2-5.79-1.86a3.32,3.32,0,0,0-2.5-.91c-3.24.85-6.21-.29-9.21-1-1.4-.34-3.35-.4-3.37-2.7,0-.2-.68-.54-1.05-.57-2-.14-3-1.6-4-3.08a3.57,3.57,0,0,0-1.67-1.4c-2.42-.77-4.41-4.21-3.56-6.59a3,3,0,0,1,1.35-1.26c1.74,1.38,1.69-.67,2.58-1.28-2.66-.23-3.6-2.19-5.09-3.88-2.09-2.38-1.94-4.63-1.45-7.26a5.37,5.37,0,0,0-.32-2.28c-.5-1.8-1.7-3.65-1.5-5.35.31-2.63,2.49-4.42,4.81-5.53.68-.33,2,.59,3,.92a3,3,0,0,0,.63.07l-.34-.52a32,32,0,0,1,4.2-3.22,9,9,0,0,1,4.37-1.22,3.11,3.11,0,0,0,3.23-1.87,20.6,20.6,0,0,1,2.79-3.1c-4.51-1-7.13,1.31-9.76,3.74,1.3-2.94,1.89-6,4.78-8,1.95-1.3,1.6-2.08-.63-3-.52-.21-1.22-.8-1.25-1.24a2.3,2.3,0,0,1,.82-1.84c1.82-1,3.76-1.76,5.87-2.72-.56-.64-.67-.87-.84-.94C82.39,163,81.09,161,81,157.73c0-1.08-.28-2.86-.89-3.09-1.22-.46-.93-1.06-.94-1.87a14.26,14.26,0,0,0-.35-2.17l-1.09.05c-.08.89-.2,1.78-.22,2.67,0,1.41,1.07,3-.88,4,1.71,1.09,2,2.54,1,4.06-.54.79-1.5,1.56-1.54,2.37a4.72,4.72,0,0,1-2.14,3.8,4.34,4.34,0,0,0-1.8,4.15,9.69,9.69,0,0,1-.59,2.6l-.68-.05-1.2-2.17c-1.5,1.58-1.5,1.58-2.29.63l1.94-1.31a37.08,37.08,0,0,1-4.59-3.09c-1.27-1.16-1.82-1.51-2.71.39a4.12,4.12,0,0,1-3,1.64,6.4,6.4,0,0,1-3.32-.92c-1.58-.81-2.41-2.05-1.46-3.95a7.91,7.91,0,0,0,.77-2.65,28.36,28.36,0,0,0,0-3.27,19.12,19.12,0,0,1-1.28-3.92c-.16-1.72,1.53-1.54,2.58-2,2.21-1,4.37-2.06,7.19-3.41a17.75,17.75,0,0,0-4-.2c-1.55.3-3.36,1.81-4.44,1.35-1.74-.75-3,.13-4.5.07a7.08,7.08,0,0,1-5.77-2.59,25,25,0,0,0-3-3c-1.14-1-2.36-2-4-3.38-1.56.06-4.06-1-4.67-2.21-.82-1.71-.28-3.87,1.65-5.72,1.35-1.29,2.88-2.4,4.33-3.59-2-.78-3.76-1.39-5.4-1.23-2,.19-3.14-.78-2.88-2.28.48-2.7-1.34-5.64,1.75-8.26,1.61-1.36,2.88-3.36,4.89-4.53.41-.24.9-1,.78-1.35-.61-1.65-1.05-3.59-2.23-4.75-2.26-2.23-2.65-2.76-1.8-5.09-1.45-2.77-3-5-3.78-7.44-1.21-4,3-7.8,7-6.53,1.18.38,1.68-.06,1.77-1.14,0-.57-.31-1.27-.09-1.72a14.07,14.07,0,0,1,2.34-3.93c1-1,2.38-.63,3.54.35.25.21,1.3-.08,1.57-.45,1.54-2.12,4-2.67,5.95-1.11a27.16,27.16,0,0,1,2.17,2.31c-.26-4,2.06-5.59,5-6.63-5.33-.61-6.6-1.91-7.09-7.12a12.29,12.29,0,0,0-.55-2.76c-1.15-3.41-1.48-6.78.36-10.08-1.38-1.37-1.12-3,.33-4.86a7,7,0,0,0,1-3.25,16.66,16.66,0,0,0-.31-2.58c-.1-3,1.06-4.29,4.15-4.55-2.34-1-2.86-2.42-1.24-4.28a.88.88,0,0,0,.24-.5c0-3.58,2.15-5.06,5.72-4.13a1.68,1.68,0,0,0,1.43-.81c.8-3.95,2.22-4.79,6-3.4a2.65,2.65,0,0,0,.85.13c1.74,0,3.73.32,4.16,2a14.29,14.29,0,0,0,1.72,4.39c.13.2-.33.76-.47,1.16s-.26.88-.44,1.53c2.69-1.65,3-1.57,4.38.59h5.18l.21,2c.57.1,1.52.06,1.62.33.76,2.06,2.35,1.09,3,1.17L88,38.44c-1.69.09-3.22-3.1-6-1.64-.1.05-.37-.18-.53-.32-1.46-1.25-2.89-2.55-2.61-4.72s-.74-4.77,1.76-6.36a.76.76,0,0,0,.35-.52c-.2-3.23,2.63-4.8,4-7.15a3.25,3.25,0,0,1,2.4-1.31c1.18,0,2.37-1.39,3.7.18.54.64,2.16.37,3.29.51l.26.85a3.32,3.32,0,0,0,.35-.8c.45-3,2.74-3.71,5.23-4.3a3.42,3.42,0,0,0,1.86-1.52,7.69,7.69,0,0,1,6.23-3.88c2.76-.28,5.43-.25,8,1.15,1.49.82,2.69.62,3.24-1.41.84-3.06,6.56-6.21,9.76-5.56,2.78.57,3.86,2.93,2.46,5.36a1.77,1.77,0,0,0-.32,1c.24,2.06.18,4.25.92,6.12a10.5,10.5,0,0,0,3.51,4.41c.62.44,2.35-.66,3.26-1l-.62-3.09c-1-1.44-1.88-2.52-2.6-3.68-1.48-2.37-.7-4.66,1-6.33A16.66,16.66,0,0,1,143,.24c1.92-.62,4.29.15,6.46.33.54,0,1.06.21,1.59.27,1.37.16,2.88,0,4.07.51a26.12,26.12,0,0,1,4.26,3l-.52.78.18-.38c1.11.24,2,.52,3,.62.71.08,1.45-.12,2.18-.11,3.21.07,3.88.65,4.62,3.73.57,2.38,1.21,4.73,2,7.71l12.92-2.25a18.73,18.73,0,0,1,4-.7c3.44.18,6.86.63,10.29.94a3.64,3.64,0,0,0,1.46-.19,8.44,8.44,0,0,1,7.75,2.09c.85,1,1.69,2.32,3.24,1.48s2.87-.58,3.49.68c1.47-.12,2.72-.53,3.76-.23s2.07,1.35,3.12,2,1.83,1.23.7,2.43c2.53,1.38,2.63,2.95.89,4.56l-1.3,5.81,2.73-.77-.21.57a33,33,0,0,1,3.62,2.16,4.28,4.28,0,0,1,1.74,2.28c.35,2.41,1.47,5.07-1.19,7-.05,0,0,.27.1.71a13,13,0,0,0,1.74.12c1.94-.11,2.71.76,2.17,2.59-.22.77-.71,1.46-.87,2.24-.64,3-.1,6.37,2.27,6.92a31.91,31.91,0,0,0,6.28.88c.58,0,1.26-1.17,1.76-1.9.36-.52.31-1.46.75-1.75,2.08-1.37,4.26-2.6,6.44-3.81a1.34,1.34,0,0,1,1.23.12,30.13,30.13,0,0,1,4.62,4.46c1.36,1.88-.59,3.1-1.56,4.17a15.78,15.78,0,0,1,2.4,2.83c.65,1.29,1.24,2.37,2.8,2.71A8.54,8.54,0,0,1,260.35,66c1.84,1.08,2.48,3.68,1.12,4.82-2,1.67-4.11,3.2-6.13,4.76,1.38.59,3,.89,4,1.81,1.3,1.12,2,2.9,3.26,4.11A14.28,14.28,0,0,0,266,83.4c.36.19.73.36,1.33.66l-2.07.74c1.09,1.61,2,3.14,3.07,4.46s2.66,2.51,3.84,3.9c.66.78,1.6,2.32,1.31,2.73-.84,1.17.08,1.33.57,1.82s1.36,1,1.61,1.66a21.92,21.92,0,0,1,1.74,6,17.75,17.75,0,0,1-.93,6.54c-.26.78-2,1.09-2.6,1.4-.23,1.62-.08,3.34-.75,4.62a7.83,7.83,0,0,1-3.37,3.12,13.15,13.15,0,0,1-4.78,1c-3.68.25-4.66-.35-5.81-3-.69.38-1.35.82-2.07,1.13-1.3.56-2.62,1.07-4,1.54a7.08,7.08,0,0,1-2.11.49c-1.38,0-1.71.55-1.08,1.77,1.37,2.63,2.66,5.3,4.1,7.89a2.58,2.58,0,0,0,1.64,1.16c3,.44,5-.84,4.73-5.62.66-.05,1.5-.39,2-.11a16.48,16.48,0,0,1,6.11,6.42c.15.28-.49,1.22-1,1.57a25.47,25.47,0,0,1-2.83,1.63l.86,5.56c1.25-2.67,1.55.62,2.55.05l.94-1.1c1.54.92,2.94,1.83,4.41,2.59a1.71,1.71,0,0,0,1.33-.31c.15-2.52,2.08-1.83,3.45-1.88l1.06-2.36.83-.07c.49,1.36,1,2.71,1.47,4.07a5.31,5.31,0,0,0,.51,1.57C283.65,146.94,285.25,148.73,286.82,150.54ZM141.41,209.2h0ZM127.53,74.81l.05,0,.1.25ZM39.39,111.67l0,.62h3.08l-.05-.92Z"/><path class="cls-1" d="M39.39,111.67l3.05-.3.05.92H39.41Z"/><path class="cls-1" d="M127.53,74.81l.14.23-.1-.25Z"/><path class="cls-1" d="M127.58,74.8l0,0Z"/><path class="cls-1" d="M141.4,209.21h0Z"/><path class="cls-1" d="M141.35,209.22h0Z"/><path class="cls-1" d="M239.85,66.17a20.6,20.6,0,0,1-2.79,3.1c4.51,1,7.13-1.31,9.76-3.74-1.3,2.94-1.89,6-4.78,8-1.95,1.3-1.6,2.08.63,3,.52.21,1.22.8,1.25,1.24a2.3,2.3,0,0,1-.82,1.84c-1.82,1-3.76,1.76-5.87,2.72.56.64.67.87.84.94,3.19,1.24,4.48,3.21,4.54,6.5,0,1.08.28,2.86.89,3.09,1.22.46.93,1.06.94,1.87a14.26,14.26,0,0,0,.35,2.17l1.09-.05c.08-.89.2-1.78.22-2.67,0-1.41-1.07-3,.88-4-1.71-1.09-2-2.54-1-4.06.54-.79,1.5-1.56,1.54-2.37a4.72,4.72,0,0,1,2.14-3.8,4.34,4.34,0,0,0,1.8-4.15,9.69,9.69,0,0,1,.59-2.6l.68.05,1.2,2.17c1.5-1.58,1.5-1.58,2.29-.63L254.29,76a37.08,37.08,0,0,1,4.59,3.09c1.27,1.16,1.82,1.51,2.71-.39a4.12,4.12,0,0,1,3-1.64,6.4,6.4,0,0,1,3.32.92c1.58.81,2.41,2.05,1.46,3.95a7.91,7.91,0,0,0-.77,2.65,28.36,28.36,0,0,0,0,3.27,19.12,19.12,0,0,1,1.28,3.92c.16,1.72-1.53,1.54-2.58,2-2.21,1-4.37,2.06-7.19,3.41a17.75,17.75,0,0,0,4,.2c1.55-.3,3.36-1.81,4.44-1.35,1.74.75,3-.13,4.5-.07a7.08,7.08,0,0,1,5.77,2.59,25,25,0,0,0,3,3c1.14,1,2.36,2,4,3.38,1.56-.06,4.06,1,4.67,2.21.82,1.71.28,3.87-1.65,5.72-1.35,1.29-2.88,2.4-4.33,3.59,2,.78,3.76,1.39,5.4,1.23,2-.19,3.14.78,2.88,2.28-.48,2.7,1.34,5.64-1.75,8.26-1.61,1.36-2.88,3.36-4.89,4.53-.41.24-.9,1-.78,1.35.61,1.65,1.05,3.59,2.23,4.75,2.26,2.23,2.65,2.76,1.8,5.09,1.45,2.77,3,5,3.78,7.44,1.21,4-3,7.8-7,6.53-1.18-.38-1.68.06-1.77,1.14,0,.57.31,1.27.09,1.72a14.07,14.07,0,0,1-2.34,3.93c-1,1-2.38.63-3.54-.35-.25-.21-1.3.08-1.57.45-1.54,2.12-4,2.67-5.95,1.11a27.16,27.16,0,0,1-2.17-2.31c.26,4-2.06,5.59-5,6.63,5.33.61,6.6,1.91,7.09,7.12a12.29,12.29,0,0,0,.55,2.76c1.15,3.41,1.48,6.78-.36,10.08,1.38,1.37,1.12,3-.33,4.86a7,7,0,0,0-1,3.25,16.66,16.66,0,0,0,.31,2.58c.1,3-1.06,4.29-4.15,4.55,2.34,1,2.86,2.42,1.24,4.28a.88.88,0,0,0-.24.5c0,3.58-2.15,5.06-5.72,4.13a1.68,1.68,0,0,0-1.43.81c-.8,3.95-2.22,4.79-6,3.4a2.65,2.65,0,0,0-.85-.13c-1.74,0-3.73-.32-4.16-2A14.29,14.29,0,0,0,247,212c-.13-.2.33-.76.47-1.16s.26-.88.44-1.53c-2.69,1.65-3,1.57-4.38-.59h-5.18l-.21-2c-.57-.1-1.52-.06-1.62-.33-.76-2.06-2.35-1.09-3-1.17L235.6,209c1.69-.09,3.22,3.1,6,1.64.1-.05.37.18.53.32,1.46,1.25,2.89,2.55,2.61,4.72s.74,4.77-1.76,6.36a.76.76,0,0,0-.35.52c.2,3.23-2.63,4.8-4,7.15a3.25,3.25,0,0,1-2.4,1.31c-1.18,0-2.37,1.39-3.7-.18-.54-.64-2.16-.37-3.29-.51l-.26-.85a3.32,3.32,0,0,0-.35.8c-.45,3-2.74,3.71-5.23,4.3a3.42,3.42,0,0,0-1.86,1.52,7.69,7.69,0,0,1-6.23,3.88c-2.76.28-5.43.25-8-1.15-1.49-.82-2.69-.62-3.24,1.41-.84,3.06-6.56,6.21-9.76,5.56-2.78-.57-3.86-2.93-2.46-5.36a1.77,1.77,0,0,0,.32-1c-.24-2.06-.18-4.25-.92-6.12a10.5,10.5,0,0,0-3.51-4.41c-.62-.44-2.35.66-3.26,1l.62,3.09c1,1.44,1.88,2.52,2.6,3.68,1.48,2.37.7,4.66-1,6.33a16.66,16.66,0,0,1-6.07,4.17c-1.92.62-4.29-.15-6.46-.33-.54,0-1.06-.21-1.59-.27-1.37-.16-2.88,0-4.07-.51a26.12,26.12,0,0,1-4.26-3l.52-.78-.18.38c-1.11-.24-2-.52-3-.62-.71-.08-1.45.12-2.18.11-3.21-.07-3.88-.65-4.62-3.73-.57-2.38-1.21-4.73-2-7.71L139.88,233a18.73,18.73,0,0,1-4,.7c-3.44-.18-6.86-.63-10.29-.94a3.64,3.64,0,0,0-1.46.19,8.44,8.44,0,0,1-7.75-2.09c-.85-1-1.69-2.32-3.24-1.48s-2.87.58-3.49-.68c-1.47.12-2.72.53-3.76.23s-2.07-1.35-3.12-2-1.83-1.23-.7-2.43c-2.53-1.38-2.63-2.95-.89-4.56l1.3-5.81-2.73.77.21-.57a33,33,0,0,1-3.62-2.16,4.28,4.28,0,0,1-1.74-2.28c-.35-2.41-1.47-5.07,1.19-7,.05,0,0-.27-.1-.71a13,13,0,0,0-1.74-.12c-1.94.11-2.71-.76-2.17-2.59.22-.77.71-1.46.87-2.24.64-3,.1-6.37-2.27-6.92m105.76-17.62-.05,0-.1-.25Zm88.14-36.86,0-.62h-3.08l.05.92Z"/><path class="cls-1" d="M284.25,135.76l-3.05.3-.05-.92h3.08Z"/><path class="cls-1" d="M196.11,172.62l-.14-.23.1.25Z"/><path class="cls-1" d="M196.06,172.63l0,0Z"/><path class="cls-1" d="M203.43,192.09a20.6,20.6,0,0,1-3.1-2.79c-1,4.51,1.31,7.13,3.74,9.76-2.94-1.3-6-1.89-8-4.78-1.3-1.95-2.08-1.6-3,.63-.21.52-.8,1.22-1.24,1.25a2.3,2.3,0,0,1-1.84-.82c-1-1.82-1.76-3.76-2.72-5.87-.64.56-.87.67-.94.84-1.24,3.19-3.21,4.48-6.5,4.54-1.08,0-2.86.28-3.09.89-.46,1.22-1.06.93-1.87.94a14.26,14.26,0,0,0-2.17.35l.05,1.09c.89.08,1.78.2,2.67.22,1.41,0,3-1.07,4,.88,1.09-1.71,2.54-2,4.06-1,.79.54,1.56,1.5,2.37,1.54a4.72,4.72,0,0,1,3.8,2.14,4.34,4.34,0,0,0,4.15,1.8,9.69,9.69,0,0,1,2.6.59l-.05.68-2.17,1.2c1.58,1.5,1.58,1.5.63,2.29l-1.31-1.94a37.08,37.08,0,0,1-3.09,4.59c-1.16,1.27-1.51,1.82.39,2.71a4.12,4.12,0,0,1,1.64,3,6.4,6.4,0,0,1-.92,3.32c-.81,1.58-2.05,2.41-3.95,1.46a7.91,7.91,0,0,0-2.65-.77,28.36,28.36,0,0,0-3.27,0,19.12,19.12,0,0,1-3.92,1.28c-1.72.16-1.54-1.53-2-2.58-1-2.21-2.06-4.37-3.41-7.19a17.75,17.75,0,0,0-.2,4c.3,1.55,1.81,3.36,1.35,4.44-.75,1.74.13,3,.07,4.5A7.08,7.08,0,0,1,171,231a25,25,0,0,0-3,3c-1,1.14-2,2.36-3.38,4,.06,1.56-1,4.06-2.21,4.67-1.71.82-3.87.28-5.72-1.65-1.29-1.35-2.4-2.88-3.59-4.33-.78,2-1.39,3.76-1.23,5.4.19,2-.78,3.14-2.28,2.88-2.7-.48-5.64,1.34-8.26-1.75-1.36-1.61-3.36-2.88-4.53-4.89-.24-.41-1-.9-1.35-.78-1.65.61-3.59,1.05-4.75,2.23-2.23,2.26-2.76,2.65-5.09,1.8-2.77,1.45-5,3-7.44,3.78-4,1.21-7.8-3-6.53-7,.38-1.18-.06-1.68-1.14-1.77-.57,0-1.27.31-1.72.09a14.07,14.07,0,0,1-3.93-2.34c-1-1-.63-2.38.35-3.54.21-.25-.08-1.3-.45-1.57-2.12-1.54-2.67-4-1.11-5.95A27.16,27.16,0,0,1,106,221c-4,.26-5.59-2.06-6.63-5-.61,5.33-1.91,6.6-7.12,7.09a12.29,12.29,0,0,0-2.76.55c-3.41,1.15-6.78,1.48-10.08-.36-1.37,1.38-3,1.12-4.86-.33a7,7,0,0,0-3.25-1,16.66,16.66,0,0,0-2.58.31c-3,.1-4.29-1.06-4.55-4.15-1,2.34-2.42,2.86-4.28,1.24a.88.88,0,0,0-.5-.24c-3.58,0-5.06-2.15-4.13-5.72a1.68,1.68,0,0,0-.81-1.43c-3.95-.8-4.79-2.22-3.4-6a2.65,2.65,0,0,0,.13-.85c0-1.74.32-3.73,2-4.16a14.29,14.29,0,0,0,4.39-1.72c.2-.13.76.33,1.16.47s.88.26,1.53.44c-1.65-2.69-1.57-3,.59-4.38v-5.18l2-.21c.1-.57.06-1.52.33-1.62,2.06-.76,1.09-2.35,1.17-3l-3.78,2.13c.09,1.69-3.1,3.22-1.64,6,.05.1-.18.37-.32.53-1.25,1.46-2.55,2.89-4.72,2.61s-4.77.74-6.36-1.76a.76.76,0,0,0-.52-.35c-3.23.2-4.8-2.63-7.15-4a3.25,3.25,0,0,1-1.31-2.4c0-1.18-1.39-2.37.18-3.7.64-.54.37-2.16.51-3.29l.85-.26a3.32,3.32,0,0,0-.8-.35c-3-.45-3.71-2.74-4.3-5.23a3.42,3.42,0,0,0-1.52-1.86,7.69,7.69,0,0,1-3.88-6.23c-.28-2.76-.25-5.43,1.15-8,.82-1.49.62-2.69-1.41-3.24-3.06-.84-6.21-6.56-5.56-9.76.57-2.78,2.93-3.86,5.36-2.46a1.77,1.77,0,0,0,1,.32c2.06-.24,4.25-.18,6.12-.92A10.5,10.5,0,0,0,40.65,140c.44-.62-.66-2.35-1-3.26l-3.09.62c-1.44,1-2.52,1.88-3.68,2.6-2.37,1.48-4.66.7-6.33-1a16.66,16.66,0,0,1-4.17-6.07c-.62-1.92.15-4.29.33-6.46,0-.54.21-1.06.27-1.59.16-1.37,0-2.88.51-4.07a26.12,26.12,0,0,1,3-4.26l.78.52-.38-.18c.24-1.11.52-2,.62-3,.08-.71-.12-1.45-.11-2.18.07-3.21.65-3.88,3.73-4.62,2.38-.57,4.73-1.21,7.71-2-.74-4.24-1.49-8.58-2.25-12.92a18.73,18.73,0,0,1-.7-4c.18-3.44.63-6.86.94-10.29a3.64,3.64,0,0,0-.19-1.46,8.44,8.44,0,0,1,2.09-7.75c1-.85,2.32-1.69,1.48-3.24s-.58-2.87.68-3.49c-.12-1.47-.53-2.72-.23-3.76s1.35-2.07,2-3.12,1.23-1.83,2.43-.7c1.38-2.53,2.95-2.63,4.56-.89l5.81,1.3L54.78,52l.57.21a33,33,0,0,1,2.16-3.62,4.28,4.28,0,0,1,2.28-1.74c2.41-.35,5.07-1.47,7,1.19,0,.05.27,0,.71-.1a13,13,0,0,0,.12-1.74c-.11-1.94.76-2.71,2.59-2.17.77.22,1.46.71,2.24.87,3,.64,6.37.1,6.92-2.27M97,148.35l0-.05.25-.1Zm36.86,88.14.62,0v-3.08l-.92.05Z"/><path class="cls-1" d="M133.84,236.49l-.3-3.05.92-.05v3.08Z"/><path class="cls-1" d="M97,148.35l.23-.14-.25.1Z"/><path class="cls-1" d="M97,148.3l0,0Z"/></g></g></svg>