<svg xmlns="http://www.w3.org/2000/svg" viewBox="0 0 169.37 176.45"><defs><style>.cls-1{fill:#c1dbd6;}.cls-2{fill:#fff;}</style></defs><title>Asset 1</title><g id="Layer_2" data-name="Layer 2"><g id="Lager_1" data-name="Lager 1"><path class="cls-1" d="M165.35,115.92v.82l-1.9,2.76c1.06,1.4,1.23,2,.69,3.19-.84,1.85-2.52,1.95-4.65,1.82,2.46,2,1,3.82.23,5.47-1.17,2.51-3.33,1.28-4.94.81a14.45,14.45,0,0,1-.44,3.55,2.42,2.42,0,0,1-1.9,1.14c-.51,0-1.11-.82-1.5-1.4a5.91,5.91,0,0,1-.51-1.66c.17,1.08-.93,2.12-.06,3.25a1,1,0,0,1-.28,1c-1.56.78-1,2.54-1.85,3.53.65.91,2.45.63,2.07,2.12a1.71,1.71,0,0,1-2.34,1.24L146.3,148c1,.91.08,2-.14,3A2.18,2.18,0,0,1,142.3,152a21.62,21.62,0,0,1-1.95-3.21,4.08,4.08,0,0,0-.67-1.12c-.78-.64-1.65-1.18-2.48-1.76-.38-.27-.78-.47-1.13-.73s-.83-.78-1.29-1.1c-1.35-.9-2.78-1.68-4.06-2.67a2.85,2.85,0,0,1-.8-1.78,14.55,14.55,0,0,1,.09-2.54h-5.83c.6,1.46,3.07.17,3.12,1.79a18.73,18.73,0,0,1,1.53,1.56c.36.48.54,1.1.92,1.56.64.77,1.36,1.47,2.07,2.17a7.48,7.48,0,0,0,1.18,1c.81.52,1.67,1,2.5,1.47a9.78,9.78,0,0,0,1.74,1,1.72,1.72,0,0,1,1.09,2.64l.53.14c1.85.48,2.38,2,1.24,3.48-.46.6-.77,1.31-1.2,1.93s-1.1,1.45-1.68,2.15a10.47,10.47,0,0,0-1.34,1.52,2.69,2.69,0,0,1-2.13,1.78c-1,.16-1.84,1.18-2.82,1.67s-1.26,2.61-3.29,1.73a4.11,4.11,0,0,1,.33,1.33,1.4,1.4,0,0,1-.59,1c-1.61.62-3.19.83-4.35-.91a19.32,19.32,0,0,0-1.46-2,3.71,3.71,0,0,0-1.3-1,2.43,2.43,0,0,1-1.58-2.67c.32-1,.68-2,.91-3a3.72,3.72,0,0,0-.23-1.31c-2.44,1-4.73,1.37-7.08.32a1.13,1.13,0,0,0-.65-.08c-.73.15-1.44.42-2.18.52-1.68.22-2.37-.44-2.61-2.16a24.5,24.5,0,0,0-.71-2.77l-.34.08c.1.8.17,1.6.32,2.39.27,1.39-.94,1.71-1.72,2.11a2.19,2.19,0,0,1-2.06-.22c-.81-1-2.15-1.66-2.11-3.3,0-.53-.67-1.07-.95-1.48-1.21.77-2.23,1.41-3.23,2.07a2.42,2.42,0,0,0-.6.53,3.3,3.3,0,0,1-4.18.76,1.83,1.83,0,0,0-1-.12c-.43,0-.86.14-1.62.28.22.68.52,1.71.89,2.7a2,2,0,0,1-.8,2.7,15,15,0,0,1-2.85.84c-1.56.28-2.1-.3-2.45-2.38-1.53,0-1.91-.38-2-1.77,0-.36,0-.73,0-1.09,0-.91,0-1.8,1.41-1.31.26.09.71-.22,1-.44a.73.73,0,0,0,0-.68c-.84-.47-.58-1-.32-1.74a1.4,1.4,0,0,0-1-1.94c-.84-.25-1.71-.2-2,1a4.7,4.7,0,0,1-1,1.57c-.09.11-.49,0-1-.1.21.91.15,2.47.73,2.77,1.8.92,1,2.55,1.49,3.81.08.21,0,.67-.17.74-1.06.52-.81,1.5-1,2.37a3.58,3.58,0,0,1-.82,1.74,6.89,6.89,0,0,1-1.71,1,11.44,11.44,0,0,1,.4,1.53c.13,1.29-1.09,2.72-2.18,2.37a3.83,3.83,0,0,0-3.76,1,2,2,0,0,1-3.2-.54l-.67-1c-1.15,1.57-2.24,1.24-3.42.21a16.82,16.82,0,0,0-2.44-1.67,1.22,1.22,0,0,0-1-.08c-1.56.7-3.12,1.4-4.62,2.21a1.32,1.32,0,0,1-2.06-.48c-.23,1.57-.54,1.91-2.16,2a2.07,2.07,0,0,1-1.5-.39,34.44,34.44,0,0,1-2.2-3.12c-1.29.63-2.46-.13-3.62-1.16a2.07,2.07,0,0,0-1.56-.57c-2,.53-3.88-.18-5.75-.64-.87-.22-2.09-.25-2.11-1.69,0-.13-.42-.34-.66-.36-1.27-.09-1.85-1-2.47-1.92a2.23,2.23,0,0,0-1-.87,3.63,3.63,0,0,1-2.22-4.12,1.89,1.89,0,0,1,.85-.78c1.09.86,1.06-.42,1.61-.8-1.66-.14-2.25-1.37-3.18-2.42-1.31-1.49-1.21-2.89-.91-4.54a3.35,3.35,0,0,0-.2-1.43c-.32-1.12-1.06-2.28-.94-3.34a4.75,4.75,0,0,1,3-3.46c.43-.21,1.23.37,1.86.58a1.86,1.86,0,0,0,.39,0l-.21-.32a20,20,0,0,1,2.62-2,5.65,5.65,0,0,1,2.73-.76,1.94,1.94,0,0,0,2-1.17,12.87,12.87,0,0,1,1.75-1.94c-2.82-.65-4.45.82-6.1,2.33.81-1.84,1.18-3.77,3-5,1.22-.81,1-1.3-.39-1.85-.33-.13-.76-.5-.78-.78a1.44,1.44,0,0,1,.51-1.15c1.14-.62,2.35-1.1,3.66-1.7-.35-.4-.42-.54-.52-.59a3.94,3.94,0,0,1-2.84-4.06c0-.68-.17-1.79-.56-1.93-.76-.29-.58-.66-.59-1.17a8.91,8.91,0,0,0-.22-1.36l-.68,0c0,.56-.12,1.11-.14,1.67,0,.88.67,1.88-.55,2.51a1.64,1.64,0,0,1,.62,2.54c-.34.49-.94,1-1,1.48a3,3,0,0,1-1.34,2.37,2.71,2.71,0,0,0-1.13,2.59,6.05,6.05,0,0,1-.37,1.62l-.42,0-.75-1.35c-.94,1-.94,1-1.43.39l1.22-.82A23.16,23.16,0,0,1,26.6,127c-.79-.73-1.14-.94-1.69.25a2.57,2.57,0,0,1-1.85,1,4,4,0,0,1-2.08-.57,1.66,1.66,0,0,1-.91-2.47,4.94,4.94,0,0,0,.48-1.66,17.72,17.72,0,0,0,0-2,12,12,0,0,1-.8-2.45c-.1-1.08,1-1,1.61-1.26,1.38-.62,2.73-1.29,4.49-2.13a11.09,11.09,0,0,0-2.49-.13c-1,.19-2.1,1.13-2.77.84-1.09-.47-1.89.08-2.81,0a4.42,4.42,0,0,1-3.61-1.62A15.61,15.61,0,0,0,12.32,113c-.71-.66-1.47-1.26-2.48-2.11a3.66,3.66,0,0,1-2.91-1.38c-.51-1.07-.17-2.42,1-3.57.84-.81,1.8-1.5,2.7-2.24a7.79,7.79,0,0,0-3.38-.77c-1.24.12-2-.49-1.8-1.42.3-1.69-.84-3.53,1.1-5.16,1-.85,1.8-2.1,3.05-2.83.25-.15.56-.64.49-.84a8.1,8.1,0,0,0-1.39-3C7.33,88.29,7.08,88,7.62,86.5a29.87,29.87,0,0,1-2.36-4.65,3.44,3.44,0,0,1,4.37-4.08c.74.24,1,0,1.11-.71,0-.36-.19-.79-.06-1.07a8.79,8.79,0,0,1,1.46-2.46c.64-.65,1.49-.4,2.21.22.15.13.81-.05,1-.28A2.5,2.5,0,0,1,19,72.77a17,17,0,0,1,1.35,1.45c-.16-2.53,1.29-3.49,3.13-4.14-3.33-.38-4.12-1.19-4.43-4.45a7.68,7.68,0,0,0-.35-1.72A7.42,7.42,0,0,1,19,57.61c-.86-.85-.7-1.85.21-3a4.38,4.38,0,0,0,.64-2,10.41,10.41,0,0,0-.19-1.61c-.06-1.85.66-2.68,2.59-2.84-1.46-.65-1.79-1.51-.77-2.67a.55.55,0,0,0,.15-.31c0-2.23,1.34-3.16,3.57-2.58a1,1,0,0,0,.89-.51c.5-2.47,1.39-3,3.77-2.13a1.65,1.65,0,0,0,.53.08c1.09,0,2.33.2,2.6,1.28A8.93,8.93,0,0,0,34,44c.08.13-.2.47-.29.73s-.16.55-.28,1c1.68-1,1.9-1,2.74.37h3.23l.13,1.27c.36.06,1,0,1,.2.48,1.29,1.47.68,1.9.73l-1.33-2.36c-1.06.05-2-1.93-3.74-1-.06,0-.23-.11-.33-.2-.91-.78-1.8-1.59-1.63-3s-.46-3,1.1-4a.47.47,0,0,0,.22-.33c-.12-2,1.64-3,2.5-4.47a2,2,0,0,1,1.5-.82c.74,0,1.48-.87,2.31.11.34.4,1.35.23,2.05.32l.16.53a2.08,2.08,0,0,0,.22-.5c.28-1.89,1.71-2.32,3.27-2.69a2.13,2.13,0,0,0,1.16-1,4.8,4.8,0,0,1,3.89-2.43,8.2,8.2,0,0,1,5,.72c.93.51,1.68.39,2-.88.53-1.91,4.1-3.88,6.1-3.48a2.12,2.12,0,0,1,1.54,3.35,1.11,1.11,0,0,0-.2.6,15.27,15.27,0,0,0,.57,3.82A6.56,6.56,0,0,0,71,33.41c.39.28,1.47-.41,2-.6l-.39-1.93c-.64-.9-1.17-1.57-1.63-2.3a3,3,0,0,1,.63-4A10.41,10.41,0,0,1,75.49,22c1.2-.39,2.68.1,4,.21.33,0,.66.13,1,.17a8.76,8.76,0,0,1,2.54.32,16.32,16.32,0,0,1,2.66,1.88l-.32.48.12-.23c.7.15,1.28.32,1.87.39s.91-.08,1.36-.07c2,0,2.43.41,2.89,2.33.36,1.48.76,3,1.24,4.82l8.07-1.4a11.7,11.7,0,0,1,2.51-.44c2.15.11,4.28.39,6.43.59a2.28,2.28,0,0,0,.91-.12,5.27,5.27,0,0,1,4.85,1.31c.53.6,1.06,1.45,2,.92s1.79-.36,2.18.43a7.39,7.39,0,0,1,2.35-.14,8.59,8.59,0,0,1,2,1.27c.6.39,1.15.77.44,1.52,1.58.86,1.64,1.84.56,2.85l-.81,3.63,1.71-.48-.13.35a20.62,20.62,0,0,1,2.26,1.35,2.68,2.68,0,0,1,1.08,1.42c.22,1.51.92,3.17-.74,4.38,0,0,0,.17.06.44a8.12,8.12,0,0,0,1.09.08c1.21-.07,1.69.47,1.36,1.62-.14.48-.44.91-.54,1.4-.4,1.88-.06,4,1.42,4.32a19.94,19.94,0,0,0,3.93.55c.36,0,.79-.73,1.1-1.19s.19-.91.47-1.09c1.3-.86,2.66-1.63,4-2.38a.84.84,0,0,1,.77.07,18.82,18.82,0,0,1,2.89,2.79c.85,1.17-.37,1.94-1,2.61a9.86,9.86,0,0,1,1.5,1.77c.41.81.78,1.48,1.75,1.69a5.33,5.33,0,0,1,1.47.7c1.15.67,1.55,2.3.7,3-1.25,1-2.57,2-3.83,3a9.52,9.52,0,0,1,2.52,1.13c.81.7,1.26,1.81,2,2.57A8.92,8.92,0,0,0,152.34,74l.83.41-1.29.46c.68,1,1.22,2,1.92,2.79s1.66,1.57,2.4,2.44c.41.49,1,1.45.82,1.71-.52.73,0,.83.35,1.14s.85.63,1,1a13.69,13.69,0,0,1,1.09,3.75,11.09,11.09,0,0,1-.58,4.09c-.16.49-1.24.68-1.63.87a9.2,9.2,0,0,1-.47,2.89,4.89,4.89,0,0,1-2.1,1.95,8.22,8.22,0,0,1-3,.62c-2.3.16-2.91-.22-3.63-1.85-.43.24-.84.51-1.29.71-.81.35-1.64.67-2.47,1a4.43,4.43,0,0,1-1.32.3c-.86,0-1.07.34-.67,1.11.85,1.64,1.66,3.31,2.56,4.93a1.61,1.61,0,0,0,1,.72c1.87.27,3.1-.52,3-3.51.41,0,.94-.24,1.24-.07a10.3,10.3,0,0,1,3.82,4c.1.17-.31.76-.61,1a15.92,15.92,0,0,1-1.77,1l.53,3.47c.78-1.67,1,.39,1.59,0l.59-.69c1,.58,1.83,1.14,2.75,1.62a1.07,1.07,0,0,0,.83-.19c.09-1.57,1.3-1.14,2.15-1.18l.66-1.47.52,0c.31.85.62,1.7.92,2.55a3.32,3.32,0,0,0,.32,1C163.37,113.67,164.37,114.79,165.35,115.92ZM74.49,152.57h0Zm-8.67-84h0l.06.16Zm-55.07,23V92h1.92l0-.58Z"/><path class="cls-1" d="M10.76,91.63l1.91-.19,0,.58H10.77Z"/><path class="cls-1" d="M65.82,68.6l.09.15-.06-.16Z"/><path class="cls-1" d="M65.85,68.59h0Z"/><path class="cls-1" d="M74.49,152.57h0Z"/><path class="cls-1" d="M74.46,152.58h0Z"/><path class="cls-1" d="M136,63.2a12.87,12.87,0,0,1-1.75,1.94c2.82.65,4.45-.82,6.1-2.33-.81,1.84-1.18,3.77-3,5-1.22.81-1,1.3.39,1.85.33.13.76.5.78.78a1.44,1.44,0,0,1-.51,1.15c-1.14.62-2.35,1.1-3.66,1.7.35.4.42.54.52.59a3.94,3.94,0,0,1,2.84,4.06c0,.68.17,1.79.56,1.93.76.29.58.66.59,1.17a8.91,8.91,0,0,0,.22,1.36l.68,0c0-.56.12-1.11.14-1.67,0-.88-.67-1.88.55-2.51a1.64,1.64,0,0,1-.62-2.54c.34-.49.94-1,1-1.48a3,3,0,0,1,1.34-2.37,2.71,2.71,0,0,0,1.13-2.59,6.05,6.05,0,0,1,.37-1.62l.42,0,.75,1.35c.94-1,.94-1,1.43-.39l-1.22.82a23.16,23.16,0,0,1,2.87,1.93c.79.73,1.14.94,1.69-.25a2.57,2.57,0,0,1,1.85-1,4,4,0,0,1,2.08.57,1.66,1.66,0,0,1,.91,2.47,4.94,4.94,0,0,0-.48,1.66,17.72,17.72,0,0,0,0,2,12,12,0,0,1,.8,2.45c.1,1.08-1,1-1.61,1.26-1.38.62-2.73,1.29-4.49,2.13a11.09,11.09,0,0,0,2.49.13c1-.19,2.1-1.13,2.77-.84,1.09.47,1.89-.08,2.81,0a4.42,4.42,0,0,1,3.61,1.62,15.61,15.61,0,0,0,1.87,1.89c.71.66,1.47,1.26,2.48,2.11a3.66,3.66,0,0,1,2.91,1.38c.51,1.07.17,2.42-1,3.57-.84.81-1.8,1.5-2.7,2.24a7.79,7.79,0,0,0,3.38.77c1.24-.12,2,.49,1.8,1.42-.3,1.69.84,3.53-1.1,5.16-1,.85-1.8,2.1-3.05,2.83-.25.15-.56.64-.49.84a8.1,8.1,0,0,0,1.39,3c1.41,1.39,1.65,1.73,1.12,3.18a29.87,29.87,0,0,1,2.36,4.65,3.44,3.44,0,0,1-4.37,4.08c-.74-.24-1,0-1.11.71,0,.36.19.79.06,1.07a8.79,8.79,0,0,1-1.46,2.46c-.64.65-1.49.4-2.21-.22-.15-.13-.81.05-1,.28a2.5,2.5,0,0,1-3.72.69,17,17,0,0,1-1.35-1.45c.16,2.53-1.29,3.49-3.13,4.14,3.33.38,4.12,1.19,4.43,4.45a7.68,7.68,0,0,0,.35,1.72,7.42,7.42,0,0,1-.22,6.29c.86.85.7,1.85-.21,3a4.38,4.38,0,0,0-.64,2,10.41,10.41,0,0,0,.19,1.61c.06,1.85-.66,2.68-2.59,2.84,1.46.65,1.79,1.51.77,2.67a.55.55,0,0,0-.15.31c0,2.23-1.34,3.16-3.57,2.58a1,1,0,0,0-.89.51c-.5,2.47-1.39,3-3.77,2.13a1.65,1.65,0,0,0-.53-.08c-1.09,0-2.33-.2-2.6-1.28a8.93,8.93,0,0,0-1.07-2.74c-.08-.13.2-.47.29-.73s.16-.55.28-1c-1.68,1-1.9,1-2.74-.37h-3.23l-.13-1.27c-.36-.06-1,0-1-.2-.48-1.29-1.47-.68-1.9-.73l1.33,2.36c1.06-.05,2,1.93,3.74,1,.06,0,.23.11.33.2.91.78,1.8,1.59,1.63,3s.46,3-1.1,4a.47.47,0,0,0-.22.33c.12,2-1.64,3-2.5,4.47a2,2,0,0,1-1.5.82c-.74,0-1.48.87-2.31-.11-.34-.4-1.35-.23-2.05-.32l-.16-.53a2.08,2.08,0,0,0-.22.5c-.28,1.89-1.71,2.32-3.27,2.69a2.13,2.13,0,0,0-1.16,1,4.8,4.8,0,0,1-3.89,2.43,8.2,8.2,0,0,1-5-.72c-.93-.51-1.68-.39-2,.88-.53,1.91-4.1,3.88-6.1,3.48a2.12,2.12,0,0,1-1.54-3.35,1.11,1.11,0,0,0,.2-.6,15.27,15.27,0,0,0-.57-3.82,6.56,6.56,0,0,0-2.19-2.75c-.39-.28-1.47.41-2,.6l.39,1.93c.64.9,1.17,1.57,1.63,2.3a3,3,0,0,1-.63,4A10.41,10.41,0,0,1,99,176.3c-1.2.39-2.68-.1-4-.21-.33,0-.66-.13-1-.17a8.76,8.76,0,0,1-2.54-.32,16.32,16.32,0,0,1-2.66-1.88l.32-.48-.12.23c-.7-.15-1.28-.32-1.87-.39s-.91.08-1.36.07c-2,0-2.43-.41-2.89-2.33-.36-1.48-.76-3-1.24-4.82l-8.07,1.4a11.7,11.7,0,0,1-2.51.44c-2.15-.11-4.28-.39-6.43-.59a2.28,2.28,0,0,0-.91.12,5.27,5.27,0,0,1-4.85-1.31c-.53-.6-1.06-1.45-2-.92s-1.79.36-2.18-.43a7.39,7.39,0,0,1-2.35.14,8.59,8.59,0,0,1-2-1.27c-.6-.39-1.15-.77-.44-1.52-1.58-.86-1.64-1.84-.56-2.85l.81-3.63-1.71.48.13-.35a20.62,20.62,0,0,1-2.26-1.35A2.68,2.68,0,0,1,45.23,153c-.22-1.51-.92-3.17.74-4.38,0,0,0-.17-.06-.44a8.12,8.12,0,0,0-1.09-.08c-1.21.07-1.69-.47-1.36-1.62.14-.48.44-.91.54-1.4.4-1.88.06-4-1.42-4.32m66.08-11h0l-.06-.16Zm55.07-23v-.39H161.8l0,.58Z"/><path class="cls-1" d="M163.74,106.68l-1.91.19,0-.58h1.92Z"/><path class="cls-1" d="M108.67,129.71l-.09-.15.06.16Z"/><path class="cls-1" d="M108.64,129.72h0Z"/><path class="cls-1" d="M113.25,141.88a12.87,12.87,0,0,1-1.94-1.75c-.65,2.82.82,4.45,2.33,6.1-1.84-.81-3.77-1.18-5-3-.81-1.22-1.3-1-1.85.39-.13.33-.5.76-.78.78a1.44,1.44,0,0,1-1.15-.51c-.62-1.14-1.1-2.35-1.7-3.66-.4.35-.54.42-.59.52a3.94,3.94,0,0,1-4.06,2.84c-.68,0-1.79.17-1.93.56-.29.76-.66.58-1.17.59a8.91,8.91,0,0,0-1.36.22l0,.68c.56,0,1.11.12,1.67.14.88,0,1.88-.67,2.51.55a1.64,1.64,0,0,1,2.54-.62c.49.34,1,.94,1.48,1a3,3,0,0,1,2.37,1.34,2.71,2.71,0,0,0,2.59,1.13,6.05,6.05,0,0,1,1.62.37l0,.42-1.35.75c1,.94,1,.94.39,1.43l-.82-1.22a23.16,23.16,0,0,1-1.93,2.87c-.73.79-.94,1.14.25,1.69a2.57,2.57,0,0,1,1,1.85,4,4,0,0,1-.57,2.08,1.66,1.66,0,0,1-2.47.91,4.94,4.94,0,0,0-1.66-.48,17.72,17.72,0,0,0-2,0,12,12,0,0,1-2.45.8c-1.08.1-1-1-1.26-1.61-.62-1.38-1.29-2.73-2.13-4.49a11.09,11.09,0,0,0-.13,2.49c.19,1,1.13,2.1.84,2.77-.47,1.09.08,1.89,0,2.81A4.42,4.42,0,0,1,93,166.18,15.61,15.61,0,0,0,91.11,168c-.66.71-1.26,1.47-2.11,2.48a3.66,3.66,0,0,1-1.38,2.91c-1.07.51-2.42.17-3.57-1-.81-.84-1.5-1.8-2.24-2.7a7.79,7.79,0,0,0-.77,3.38c.12,1.24-.49,2-1.42,1.8-1.69-.3-3.53.84-5.16-1.1-.85-1-2.1-1.8-2.83-3.05-.15-.25-.64-.56-.84-.49a8.1,8.1,0,0,0-3,1.39c-1.39,1.41-1.73,1.65-3.18,1.12A29.87,29.87,0,0,1,60,175.12a3.44,3.44,0,0,1-4.08-4.37c.24-.74,0-1-.71-1.11-.36,0-.79.19-1.07.06a8.79,8.79,0,0,1-2.46-1.46c-.65-.64-.4-1.49.22-2.21.13-.15-.05-.81-.28-1a2.5,2.5,0,0,1-.69-3.72A17,17,0,0,1,52.36,160c-2.53.16-3.49-1.29-4.14-3.13-.38,3.33-1.19,4.12-4.45,4.43a7.68,7.68,0,0,0-1.72.35,7.42,7.42,0,0,1-6.29-.22c-.85.86-1.85.7-3-.21a4.38,4.38,0,0,0-2-.64,10.41,10.41,0,0,0-1.61.19c-1.85.06-2.68-.66-2.84-2.59-.65,1.46-1.51,1.79-2.67.77a.55.55,0,0,0-.31-.15c-2.23,0-3.16-1.34-2.58-3.57a1,1,0,0,0-.51-.89c-2.47-.5-3-1.39-2.13-3.77a1.65,1.65,0,0,0,.08-.53c0-1.09.2-2.33,1.28-2.6a8.93,8.93,0,0,0,2.74-1.07c.13-.08.47.2.73.29s.55.16,1,.28c-1-1.68-1-1.9.37-2.74v-3.23l1.27-.13c.06-.36,0-1,.2-1,1.29-.48.68-1.47.73-1.9L24,139.22c.05,1.06-1.93,2-1,3.74,0,.06-.11.23-.2.33-.78.91-1.59,1.8-3,1.63s-3,.46-4-1.1a.47.47,0,0,0-.33-.22c-2,.12-3-1.64-4.47-2.5a2,2,0,0,1-.82-1.5c0-.74-.87-1.48.11-2.31.4-.34.23-1.35.32-2.05l.53-.16a2.08,2.08,0,0,0-.5-.22c-1.89-.28-2.32-1.71-2.69-3.27a2.13,2.13,0,0,0-1-1.16,4.8,4.8,0,0,1-2.43-3.89,8.2,8.2,0,0,1,.72-5c.51-.93.39-1.68-.88-2-1.91-.53-3.88-4.1-3.48-6.1a2.12,2.12,0,0,1,3.35-1.54,1.11,1.11,0,0,0,.6.2,15.27,15.27,0,0,0,3.82-.57,6.56,6.56,0,0,0,2.75-2.19c.28-.39-.41-1.47-.6-2L9,107.68c-.9.64-1.57,1.17-2.3,1.63a3,3,0,0,1-4-.63,10.41,10.41,0,0,1-2.61-3.8c-.39-1.2.1-2.68.21-4,0-.33.13-.66.17-1a8.76,8.76,0,0,1,.32-2.54,16.32,16.32,0,0,1,1.88-2.66l.48.32L3,94.85c.15-.7.32-1.28.39-1.87s-.08-.91-.07-1.36c0-2,.41-2.43,2.33-2.89,1.48-.36,3-.76,4.82-1.24C10,84.84,9.51,82.13,9,79.42a11.7,11.7,0,0,1-.44-2.51c.11-2.15.39-4.28.59-6.43a2.28,2.28,0,0,0-.12-.91,5.27,5.27,0,0,1,1.31-4.85c.6-.53,1.45-1.06.92-2s-.36-1.79.43-2.18a7.39,7.39,0,0,1-.14-2.35,8.59,8.59,0,0,1,1.27-2c.39-.6.77-1.15,1.52-.44.86-1.58,1.84-1.64,2.85-.56l3.63.81-.48-1.71.35.13a20.62,20.62,0,0,1,1.35-2.26,2.68,2.68,0,0,1,1.42-1.08c1.51-.22,3.17-.92,4.38.74,0,0,.17,0,.44-.06a8.12,8.12,0,0,0,.08-1.09c-.07-1.21.47-1.69,1.62-1.36.48.14.91.44,1.4.54,1.88.4,4,.06,4.32-1.42m11,66.08v0l.16-.06Zm23,55.07h.39v-1.92l-.58,0Z"/><path class="cls-1" d="M69.77,169.62l-.19-1.91.58,0v1.92Z"/><path class="cls-1" d="M46.74,114.55l.15-.09-.16.06Z"/><path class="cls-1" d="M46.73,114.52v0Z"/><path class="cls-1" d="M156,80.68v.7l-1.63,2.37c.91,1.2,1.06,1.7.59,2.73-.72,1.59-2.16,1.67-4,1.56,2.11,1.7.86,3.28.2,4.69-1,2.15-2.86,1.1-4.24.7a12.4,12.4,0,0,1-.38,3,2.07,2.07,0,0,1-1.63,1c-.44,0-1-.71-1.29-1.2a5.07,5.07,0,0,1-.44-1.43c.14.92-.8,1.82,0,2.79a.89.89,0,0,1-.24.82c-1.34.67-.86,2.18-1.59,3,.55.78,2.1.54,1.77,1.82a1.46,1.46,0,0,1-2,1.06l-1.42,3.82c.86.78.07,1.71-.12,2.57a1.87,1.87,0,0,1-3.31.9,18.54,18.54,0,0,1-1.67-2.75,3.5,3.5,0,0,0-.58-1c-.67-.55-1.41-1-2.13-1.51-.33-.23-.67-.4-1-.63s-.71-.67-1.11-.94c-1.16-.77-2.39-1.44-3.48-2.29a2.45,2.45,0,0,1-.69-1.53,12.49,12.49,0,0,1,.08-2.18h-5c.51,1.25,2.63.15,2.68,1.54a16.07,16.07,0,0,1,1.31,1.34c.31.41.46.95.79,1.34.55.66,1.17,1.26,1.78,1.86a6.42,6.42,0,0,0,1,.87c.7.45,1.43.84,2.15,1.26a8.39,8.39,0,0,0,1.49.89,1.47,1.47,0,0,1,.93,2.26l.45.12a1.75,1.75,0,0,1,1.06,3c-.39.51-.66,1.12-1,1.65s-.94,1.25-1.44,1.85a9,9,0,0,0-1.15,1.31,2.31,2.31,0,0,1-1.83,1.53c-.86.14-1.58,1-2.42,1.43s-1.08,2.24-2.82,1.48a3.53,3.53,0,0,1,.28,1.14,1.2,1.2,0,0,1-.51.86c-1.39.53-2.74.71-3.73-.78a16.57,16.57,0,0,0-1.25-1.71,3.19,3.19,0,0,0-1.12-.89,2.08,2.08,0,0,1-1.35-2.29c.28-.85.58-1.69.78-2.56a3.19,3.19,0,0,0-.2-1.12,7.3,7.3,0,0,1-6.07.28,1,1,0,0,0-.56-.07c-.63.13-1.24.36-1.87.44-1.44.18-2-.38-2.24-1.86a21,21,0,0,0-.61-2.37l-.3.07c.09.68.14,1.37.27,2,.23,1.19-.81,1.47-1.47,1.81a1.88,1.88,0,0,1-1.77-.19c-.7-.84-1.84-1.43-1.81-2.83,0-.45-.57-.92-.81-1.27-1,.66-1.91,1.21-2.77,1.78a2.08,2.08,0,0,0-.51.45,2.83,2.83,0,0,1-3.58.65,1.57,1.57,0,0,0-.88-.1c-.37,0-.74.12-1.39.24.19.59.45,1.46.76,2.32a1.74,1.74,0,0,1-.69,2.32,12.91,12.91,0,0,1-2.45.72c-1.34.24-1.8-.26-2.11-2-1.31,0-1.64-.32-1.68-1.52,0-.31,0-.63,0-.94,0-.78,0-1.55,1.21-1.13.22.08.61-.19.85-.38a.62.62,0,0,0,0-.58c-.72-.41-.5-.89-.27-1.49a1.2,1.2,0,0,0-.85-1.67c-.72-.21-1.46-.17-1.74.85a4,4,0,0,1-.85,1.35c-.08.09-.42,0-.85-.09.18.78.12,2.12.62,2.37,1.54.79.88,2.19,1.28,3.27.07.18,0,.57-.14.63-.91.44-.7,1.28-.85,2a3.07,3.07,0,0,1-.71,1.49,5.91,5.91,0,0,1-1.47.86,9.82,9.82,0,0,1,.34,1.31c.11,1.11-.93,2.33-1.87,2a3.29,3.29,0,0,0-3.23.82,1.69,1.69,0,0,1-2.75-.46l-.57-.86c-1,1.35-1.92,1.06-2.93.18a14.43,14.43,0,0,0-2.1-1.44,1,1,0,0,0-.84-.07c-1.34.6-2.68,1.2-4,1.9a1.14,1.14,0,0,1-1.77-.41c-.2,1.35-.47,1.64-1.85,1.72a1.77,1.77,0,0,1-1.29-.34,29.54,29.54,0,0,1-1.88-2.68c-1.11.54-2.11-.11-3.1-1a1.78,1.78,0,0,0-1.34-.49c-1.74.46-3.33-.16-4.94-.55-.75-.18-1.79-.21-1.81-1.45,0-.11-.36-.29-.56-.31-1.09-.07-1.59-.86-2.12-1.65a1.91,1.91,0,0,0-.89-.75,3.12,3.12,0,0,1-1.91-3.53,1.62,1.62,0,0,1,.73-.67c.94.74.91-.36,1.38-.68-1.42-.12-1.93-1.17-2.73-2.08a4.06,4.06,0,0,1-.78-3.89,2.88,2.88,0,0,0-.17-1.22c-.27-1-.91-2-.8-2.87a4.08,4.08,0,0,1,2.58-3c.37-.18,1.05.32,1.6.49a1.6,1.6,0,0,0,.34,0l-.18-.28a17.13,17.13,0,0,1,2.25-1.73,4.84,4.84,0,0,1,2.34-.66,1.66,1.66,0,0,0,1.73-1,11,11,0,0,1,1.5-1.66c-2.42-.56-3.82.7-5.23,2,.7-1.58,1-3.23,2.56-4.27,1-.7.86-1.11-.34-1.59-.28-.11-.66-.43-.67-.67a1.23,1.23,0,0,1,.44-1c1-.53,2-.95,3.14-1.46-.3-.34-.36-.47-.45-.5a3.38,3.38,0,0,1-2.43-3.48c0-.58-.15-1.53-.48-1.66-.66-.25-.5-.57-.51-1a7.64,7.64,0,0,0-.19-1.16l-.59,0c0,.48-.1,1-.12,1.43,0,.76.57,1.61-.47,2.15a1.4,1.4,0,0,1,.53,2.18c-.29.42-.81.83-.83,1.27a2.53,2.53,0,0,1-1.15,2,2.32,2.32,0,0,0-1,2.22,5.19,5.19,0,0,1-.32,1.39l-.36,0-.64-1.16c-.8.85-.8.85-1.23.34l1-.7a19.87,19.87,0,0,1-2.46-1.65c-.68-.62-1-.81-1.45.21a2.21,2.21,0,0,1-1.58.88,3.43,3.43,0,0,1-1.78-.49,1.43,1.43,0,0,1-.78-2.12,4.24,4.24,0,0,0,.41-1.42,15.2,15.2,0,0,0,0-1.75,10.25,10.25,0,0,1-.69-2.1c-.09-.92.82-.83,1.38-1.08,1.18-.53,2.34-1.11,3.86-1.83a9.51,9.51,0,0,0-2.14-.11c-.83.16-1.8,1-2.38.72-.93-.4-1.62.07-2.41,0a3.79,3.79,0,0,1-3.09-1.39,13.39,13.39,0,0,0-1.6-1.62c-.61-.56-1.26-1.08-2.13-1.81a3.14,3.14,0,0,1-2.5-1.18,2.66,2.66,0,0,1,.89-3.06c.72-.69,1.54-1.29,2.32-1.92a6.68,6.68,0,0,0-2.9-.66c-1.07.1-1.68-.42-1.54-1.22.26-1.45-.72-3,.94-4.43a19.21,19.21,0,0,1,2.62-2.43c.22-.13.48-.55.42-.72a6.94,6.94,0,0,0-1.19-2.54c-1.21-1.2-1.42-1.48-1-2.73a25.62,25.62,0,0,1-2-4A3,3,0,0,1,22.37,48c.64.2.9,0,.95-.61,0-.31-.16-.68,0-.92a7.54,7.54,0,0,1,1.26-2.11c.55-.55,1.27-.34,1.9.18.13.11.7,0,.84-.24a2.14,2.14,0,0,1,3.19-.59,14.56,14.56,0,0,1,1.16,1.24c-.14-2.17,1.1-3,2.68-3.55-2.86-.33-3.54-1-3.8-3.81a6.59,6.59,0,0,0-.3-1.48,6.36,6.36,0,0,1,.19-5.4c-.74-.73-.6-1.59.18-2.61a3.76,3.76,0,0,0,.55-1.74A8.93,8.93,0,0,0,31,24.93c-.05-1.59.57-2.3,2.22-2.44-1.26-.56-1.53-1.3-.66-2.29a.47.47,0,0,0,.13-.27c0-1.92,1.15-2.71,3.06-2.21a.9.9,0,0,0,.76-.44c.43-2.12,1.19-2.56,3.23-1.82a1.42,1.42,0,0,0,.46.07c.93,0,2,.17,2.23,1.1A7.66,7.66,0,0,0,43.31,19c.07.11-.17.41-.25.62s-.14.47-.24.82c1.44-.88,1.63-.84,2.35.31h2.77l.11,1.09c.3.06.82,0,.87.18.41,1.11,1.26.59,1.63.63l-1.14-2c-.91,0-1.73-1.66-3.21-.88-.05,0-.2-.1-.28-.17-.78-.67-1.55-1.37-1.4-2.53s-.4-2.56.94-3.41a.41.41,0,0,0,.19-.28c-.11-1.73,1.41-2.57,2.15-3.83a1.74,1.74,0,0,1,1.29-.7c.63,0,1.27-.75,2,.1.29.34,1.16.2,1.76.28l.14.46a1.78,1.78,0,0,0,.19-.43c.24-1.62,1.47-2,2.81-2.31a1.83,1.83,0,0,0,1-.82A4.12,4.12,0,0,1,60.3,4a7,7,0,0,1,4.28.62c.8.44,1.44.33,1.74-.76.45-1.64,3.51-3.33,5.23-3a1.82,1.82,0,0,1,1.32,2.87,1,1,0,0,0-.17.51,13.1,13.1,0,0,0,.49,3.28A5.63,5.63,0,0,0,75.06,9.9c.33.24,1.26-.35,1.75-.51l-.33-1.66c-.55-.77-1-1.35-1.39-2a2.59,2.59,0,0,1,.54-3.39A8.93,8.93,0,0,1,78.87.13c1-.33,2.3.08,3.46.18.29,0,.57.11.85.15a7.52,7.52,0,0,1,2.18.27,14,14,0,0,1,2.28,1.61l-.28.42.1-.2c.6.13,1.1.28,1.61.33s.78-.07,1.17-.06c1.72,0,2.08.35,2.48,2C93,6.1,93.37,7.36,93.79,9l6.92-1.2a10,10,0,0,1,2.15-.38c1.84.1,3.68.34,5.51.5a2,2,0,0,0,.78-.1,4.52,4.52,0,0,1,4.16,1.12c.45.51.91,1.24,1.74.79s1.54-.31,1.87.37a6.34,6.34,0,0,1,2-.12A7.37,7.37,0,0,1,120.62,11c.52.33,1,.66.37,1.3,1.36.74,1.41,1.58.48,2.44l-.7,3.11,1.47-.41-.11.3a17.69,17.69,0,0,1,1.94,1.16,2.3,2.3,0,0,1,.93,1.22c.19,1.29.79,2.72-.64,3.76,0,0,0,.14.05.38a7,7,0,0,0,.93.07c1-.06,1.45.41,1.16,1.39-.12.41-.38.78-.47,1.2-.34,1.61-.06,3.42,1.22,3.71a17.1,17.1,0,0,0,3.37.47c.31,0,.67-.63.94-1s.17-.78.4-.94c1.12-.73,2.28-1.4,3.45-2a.72.72,0,0,1,.66.06,16.15,16.15,0,0,1,2.48,2.39c.73,1-.31,1.66-.84,2.24A8.46,8.46,0,0,1,139,33.33c.35.69.67,1.27,1.5,1.45a4.58,4.58,0,0,1,1.26.6c1,.58,1.33,2,.6,2.58-1.07.89-2.2,1.71-3.29,2.55a8.17,8.17,0,0,1,2.16,1c.7.6,1.08,1.55,1.75,2.2a7.66,7.66,0,0,0,1.81,1l.71.35-1.11.39c.58.86,1,1.68,1.64,2.39s1.43,1.35,2.06,2.09c.35.42.86,1.25.7,1.46-.45.62,0,.71.3,1s.73.54.86.89a11.75,11.75,0,0,1,.93,3.22,9.51,9.51,0,0,1-.5,3.51c-.14.42-1.06.58-1.4.75a7.89,7.89,0,0,1-.4,2.48,4.2,4.2,0,0,1-1.8,1.67,7,7,0,0,1-2.56.54c-2,.14-2.5-.19-3.11-1.59-.37.2-.72.44-1.11.61-.7.3-1.4.57-2.12.83a3.8,3.8,0,0,1-1.13.26c-.74,0-.92.29-.58.95.73,1.41,1.43,2.84,2.2,4.23a1.38,1.38,0,0,0,.88.62c1.61.23,2.66-.45,2.54-3,.35,0,.8-.21,1.06-.06a8.83,8.83,0,0,1,3.28,3.44c.08.15-.27.65-.52.84a13.65,13.65,0,0,1-1.52.87l.46,3c.67-1.43.83.33,1.37,0l.51-.59c.83.5,1.57,1,2.36,1.39a.92.92,0,0,0,.71-.16c.08-1.35,1.11-1,1.85-1l.57-1.26.45,0c.26.73.53,1.45.79,2.18a2.85,2.85,0,0,0,.28.84C154.25,78.75,155.11,79.71,156,80.68ZM78,112.12h0Zm-7.44-72h0l.05.13ZM23.34,59.85v.33H25l0-.49Z"/><path class="cls-1" d="M23.34,59.85,25,59.69l0,.49H23.35Z"/><path class="cls-1" d="M70.58,40.09l.08.13-.05-.13Z"/><path class="cls-1" d="M70.6,40.09h0Z"/><path class="cls-1" d="M78,112.13h0Z"/><path class="cls-1" d="M78,112.13h0Z"/><path class="cls-1" d="M130.78,35.46a11,11,0,0,1-1.5,1.66c2.42.56,3.82-.7,5.23-2-.7,1.58-1,3.23-2.56,4.27-1,.7-.86,1.11.34,1.59.28.11.66.43.67.67a1.23,1.23,0,0,1-.44,1c-1,.53-2,.95-3.14,1.46.3.34.36.47.45.5a3.38,3.38,0,0,1,2.43,3.48c0,.58.15,1.53.48,1.66.66.25.5.57.51,1a7.64,7.64,0,0,0,.19,1.16l.59,0c0-.48.1-1,.12-1.43,0-.76-.57-1.61.47-2.15a1.4,1.4,0,0,1-.53-2.18c.29-.42.81-.83.83-1.27a2.53,2.53,0,0,1,1.15-2,2.32,2.32,0,0,0,1-2.22,5.19,5.19,0,0,1,.32-1.39l.36,0,.64,1.16c.8-.85.8-.85,1.23-.34l-1,.7A19.87,19.87,0,0,1,141,42.39c.68.62,1,.81,1.45-.21a2.21,2.21,0,0,1,1.58-.88,3.43,3.43,0,0,1,1.78.49,1.43,1.43,0,0,1,.78,2.12,4.24,4.24,0,0,0-.41,1.42,15.2,15.2,0,0,0,0,1.75,10.25,10.25,0,0,1,.69,2.1c.09.92-.82.83-1.38,1.08-1.18.53-2.34,1.11-3.86,1.83a9.51,9.51,0,0,0,2.14.11c.83-.16,1.8-1,2.38-.72.93.4,1.62-.07,2.41,0a3.79,3.79,0,0,1,3.09,1.39,13.39,13.39,0,0,0,1.6,1.62c.61.56,1.26,1.08,2.13,1.81a3.14,3.14,0,0,1,2.5,1.18,2.66,2.66,0,0,1-.89,3.06c-.72.69-1.54,1.29-2.32,1.92a6.68,6.68,0,0,0,2.9.66c1.07-.1,1.68.42,1.54,1.22-.26,1.45.72,3-.94,4.43a19.21,19.21,0,0,1-2.62,2.43c-.22.13-.48.55-.42.72a6.94,6.94,0,0,0,1.19,2.54c1.21,1.2,1.42,1.48,1,2.73a25.62,25.62,0,0,1,2,4,3,3,0,0,1-3.75,3.5c-.64-.2-.9,0-.95.61,0,.31.16.68,0,.92a7.54,7.54,0,0,1-1.26,2.11c-.55.55-1.27.34-1.9-.18-.13-.11-.7,0-.84.24a2.14,2.14,0,0,1-3.19.59,14.56,14.56,0,0,1-1.16-1.24c.14,2.17-1.1,3-2.68,3.55,2.86.33,3.54,1,3.8,3.81a6.59,6.59,0,0,0,.3,1.48,6.36,6.36,0,0,1-.19,5.4c.74.73.6,1.59-.18,2.61a3.76,3.76,0,0,0-.55,1.74,8.93,8.93,0,0,0,.17,1.38c.05,1.59-.57,2.3-2.22,2.44,1.26.56,1.53,1.3.66,2.29a.47.47,0,0,0-.13.27c0,1.92-1.15,2.71-3.06,2.21a.9.9,0,0,0-.76.44c-.43,2.12-1.19,2.56-3.23,1.82a1.42,1.42,0,0,0-.46-.07c-.93,0-2-.17-2.23-1.1a7.66,7.66,0,0,0-.92-2.35c-.07-.11.17-.41.25-.62s.14-.47.24-.82c-1.44.88-1.63.84-2.35-.31H130l-.11-1.09c-.3-.06-.82,0-.87-.18-.41-1.11-1.26-.59-1.63-.63l1.14,2c.91,0,1.73,1.66,3.21.88.05,0,.2.1.28.17.78.67,1.55,1.37,1.4,2.53s.4,2.56-.94,3.41a.41.41,0,0,0-.19.28c.11,1.73-1.41,2.57-2.15,3.83a1.74,1.74,0,0,1-1.29.7c-.63,0-1.27.75-2-.1-.29-.34-1.16-.2-1.76-.28l-.14-.46a1.78,1.78,0,0,0-.19.43c-.24,1.62-1.47,2-2.81,2.31a1.83,1.83,0,0,0-1,.82,4.12,4.12,0,0,1-3.34,2.08,7,7,0,0,1-4.28-.62c-.8-.44-1.44-.33-1.74.76-.45,1.64-3.51,3.33-5.23,3a1.82,1.82,0,0,1-1.32-2.87,1,1,0,0,0,.17-.51,13.1,13.1,0,0,0-.49-3.28,5.63,5.63,0,0,0-1.88-2.36c-.33-.24-1.26.35-1.75.51l.33,1.66c.55.77,1,1.35,1.39,2a2.59,2.59,0,0,1-.54,3.39A8.93,8.93,0,0,1,99,132.48c-1,.33-2.3-.08-3.46-.18-.29,0-.57-.11-.85-.15a7.52,7.52,0,0,1-2.18-.27,14,14,0,0,1-2.28-1.61l.28-.42-.1.2c-.6-.13-1.1-.28-1.61-.33s-.78.07-1.17.06c-1.72,0-2.08-.35-2.48-2-.31-1.27-.65-2.54-1.06-4.13l-6.92,1.2a10,10,0,0,1-2.15.38c-1.84-.1-3.68-.34-5.51-.5a2,2,0,0,0-.78.1,4.52,4.52,0,0,1-4.16-1.12c-.45-.51-.91-1.24-1.74-.79s-1.54.31-1.87-.37a6.34,6.34,0,0,1-2,.12,7.37,7.37,0,0,1-1.67-1.09c-.52-.33-1-.66-.37-1.3-1.36-.74-1.41-1.58-.48-2.44l.7-3.11-1.47.41.11-.3a17.69,17.69,0,0,1-1.94-1.16,2.3,2.3,0,0,1-.93-1.22c-.19-1.29-.79-2.72.64-3.76,0,0,0-.14-.05-.38a7,7,0,0,0-.93-.07c-1,.06-1.45-.41-1.16-1.39.12-.41.38-.78.47-1.2.34-1.61.06-3.42-1.22-3.71m56.68-9.44h0l-.05-.13Zm47.24-19.75v-.33h-1.65l0,.49Z"/><path class="cls-1" d="M154.57,72.76l-1.64.16,0-.49h1.65Z"/><path class="cls-1" d="M107.33,92.51l-.08-.13.05.13Z"/><path class="cls-1" d="M107.31,92.52h0Z"/><path class="cls-1" d="M111.26,103a11,11,0,0,1-1.66-1.5c-.56,2.42.7,3.82,2,5.23-1.58-.7-3.23-1-4.27-2.56-.7-1-1.11-.86-1.59.34-.11.28-.43.66-.67.67a1.23,1.23,0,0,1-1-.44c-.53-1-.95-2-1.46-3.14-.34.3-.47.36-.5.45a3.38,3.38,0,0,1-3.48,2.43c-.58,0-1.53.15-1.66.48-.25.66-.57.5-1,.51a7.64,7.64,0,0,0-1.16.19l0,.59c.48,0,1,.1,1.43.12.76,0,1.61-.57,2.15.47a1.4,1.4,0,0,1,2.18-.53c.42.29.83.81,1.27.83a2.53,2.53,0,0,1,2,1.15,2.32,2.32,0,0,0,2.22,1,5.19,5.19,0,0,1,1.39.32l0,.36-1.16.64c.85.8.85.8.34,1.23l-.7-1a19.87,19.87,0,0,1-1.65,2.46c-.62.68-.81,1,.21,1.45a2.21,2.21,0,0,1,.88,1.58,3.43,3.43,0,0,1-.49,1.78,1.43,1.43,0,0,1-2.12.78,4.24,4.24,0,0,0-1.42-.41,15.2,15.2,0,0,0-1.75,0,10.25,10.25,0,0,1-2.1.69c-.92.09-.83-.82-1.08-1.38-.53-1.18-1.11-2.34-1.83-3.86a9.51,9.51,0,0,0-.11,2.14c.16.83,1,1.8.72,2.38-.4.93.07,1.62,0,2.41a3.79,3.79,0,0,1-1.39,3.09,13.39,13.39,0,0,0-1.62,1.6c-.56.61-1.08,1.26-1.81,2.13a3.14,3.14,0,0,1-1.18,2.5,2.66,2.66,0,0,1-3.06-.89c-.69-.72-1.29-1.54-1.92-2.32a6.68,6.68,0,0,0-.66,2.9c.1,1.07-.42,1.68-1.22,1.54-1.45-.26-3,.72-4.43-.94a19.21,19.21,0,0,1-2.43-2.62c-.13-.22-.55-.48-.72-.42a6.94,6.94,0,0,0-2.54,1.19c-1.2,1.21-1.48,1.42-2.73,1a25.62,25.62,0,0,1-4,2,3,3,0,0,1-3.5-3.75c.2-.64,0-.9-.61-.95-.31,0-.68.16-.92,0a7.54,7.54,0,0,1-2.11-1.26c-.55-.55-.34-1.27.18-1.9.11-.13,0-.7-.24-.84a2.14,2.14,0,0,1-.59-3.19A14.56,14.56,0,0,1,59,118.47c-2.17.14-3-1.1-3.55-2.68-.33,2.86-1,3.54-3.81,3.8a6.59,6.59,0,0,0-1.48.3,6.36,6.36,0,0,1-5.4-.19c-.73.74-1.59.6-2.61-.18a3.76,3.76,0,0,0-1.74-.55,8.93,8.93,0,0,0-1.38.17c-1.59.05-2.3-.57-2.44-2.22-.56,1.26-1.3,1.53-2.29.66a.47.47,0,0,0-.27-.13c-1.92,0-2.71-1.15-2.21-3.06a.9.9,0,0,0-.44-.76c-2.12-.43-2.56-1.19-1.82-3.23a1.42,1.42,0,0,0,.07-.46c0-.93.17-2,1.1-2.23a7.66,7.66,0,0,0,2.35-.92c.11-.07.41.17.62.25s.47.14.82.24c-.88-1.44-.84-1.63.31-2.35v-2.77l1.09-.11c.06-.3,0-.82.18-.87,1.11-.41.59-1.26.63-1.63l-2,1.14c0,.91-1.66,1.73-.88,3.21,0,.05-.1.2-.17.28-.67.78-1.37,1.55-2.53,1.4s-2.56.4-3.41-.94a.41.41,0,0,0-.28-.19c-1.73.11-2.57-1.41-3.83-2.15a1.74,1.74,0,0,1-.7-1.29c0-.63-.75-1.27.1-2,.34-.29.2-1.16.28-1.76l.46-.14a1.78,1.78,0,0,0-.43-.19c-1.62-.24-2-1.47-2.31-2.81a1.83,1.83,0,0,0-.82-1,4.12,4.12,0,0,1-2.08-3.34,7,7,0,0,1,.62-4.28c.44-.8.33-1.44-.76-1.74-1.64-.45-3.33-3.51-3-5.23a1.82,1.82,0,0,1,2.87-1.32,1,1,0,0,0,.51.17,13.1,13.1,0,0,0,3.28-.49A5.63,5.63,0,0,0,24,75c.24-.33-.35-1.26-.51-1.75l-1.66.33c-.77.55-1.35,1-2,1.39a2.59,2.59,0,0,1-3.39-.54,8.93,8.93,0,0,1-2.24-3.26c-.33-1,.08-2.3.18-3.46,0-.29.11-.57.15-.85a7.52,7.52,0,0,1,.27-2.18,14,14,0,0,1,1.61-2.28l.42.28-.2-.1c.13-.6.28-1.1.33-1.61s-.07-.78-.06-1.17c0-1.72.35-2.08,2-2.48,1.27-.31,2.54-.65,4.13-1.06-.4-2.27-.8-4.6-1.2-6.92a10,10,0,0,1-.38-2.15c.1-1.84.34-3.68.5-5.51a2,2,0,0,0-.1-.78A4.52,4.52,0,0,1,23,36.77c.51-.45,1.24-.91.79-1.74s-.31-1.54.37-1.87a6.34,6.34,0,0,1-.12-2,7.37,7.37,0,0,1,1.09-1.67c.33-.52.66-1,1.3-.37.74-1.36,1.58-1.41,2.44-.48l3.11.7-.41-1.47.3.11A17.69,17.69,0,0,1,33,26a2.3,2.3,0,0,1,1.22-.93c1.29-.19,2.72-.79,3.76.64,0,0,.14,0,.38-.05a7,7,0,0,0,.07-.93c-.06-1,.41-1.45,1.39-1.16.41.12.78.38,1.2.47,1.61.34,3.42.06,3.71-1.22m9.44,56.68v0l.13-.05ZM74,126.75h.33v-1.65l-.49,0Z"/><path class="cls-1" d="M74,126.75l-.16-1.64.49,0v1.65Z"/><path class="cls-1" d="M54.21,79.51l.13-.08-.13.05Z"/><path class="cls-1" d="M54.2,79.48v0Z"/><path class="cls-2" d="M39.6,52.71c.13-.32.3-.63.45-1,.33-.75.65-1.49,1-2.24s.66-1.66,1-2.49a1.24,1.24,0,0,1,.17-.33.52.52,0,0,1,.65-.1.69.69,0,0,1,.3.95c-.33.76-.58,1.56-.91,2.32-.6,1.33-1.23,2.62-1.83,4-.12.25-.23.5-.33.75,0,0,0,0,0,.07.22.51.46,1,.7,1.56a8.81,8.81,0,0,1,.35.83c.2.55.38,1.1.56,1.64.33,1.06.66,2.12,1,3.19A3.73,3.73,0,0,1,42.8,63a.78.78,0,0,1-.56.7c-.43.1-.66-.35-.71-.55-.22-.85-.41-2-.63-2.85-.1-.37-.25-.71-.35-1.1a9.49,9.49,0,0,0-1-2.52c0,.17,0,.33,0,.48,0,.47,0,.93,0,1.39,0,1.46,0,2.92.08,4.38a.74.74,0,0,1-.8.86.7.7,0,0,1-.51-.63c0-.78.05-1.56.05-2.34,0-1.39,0-2.79,0-4.18,0-1.18,0-2.36.07-3.54,0-1,.15-1.92.2-2.89s0-1.81,0-2.72a.53.53,0,0,1,0-.15.46.46,0,0,1,.15-.51.53.53,0,0,1,.55-.28c.41,0,.6,1.49.56,2.09-.08,1.33-.22,2.64-.28,4Z"/><path class="cls-2" d="M47.5,56.88c.07-1.24.13-2.16.17-3.09,0-.58,0-1.18,0-1.76s.07-1.28.1-1.91c0-.88.07-1.76.08-2.64,0-.35.08-.78.68-.73s.63.53.61.83c-.07.88-.1,1.74-.15,2.62-.07,1.29-.13,2.59-.18,3.87-.07,1.53-.12,3.05-.2,4.58,0,.61-.1,1.23-.18,1.86s-.12,1-.23,1.54a8.27,8.27,0,0,1-.41,1.23,1.16,1.16,0,0,1-1.83.1A5.15,5.15,0,0,1,45.28,61q-.22-1.67-.3-3.34c0-1,.07-2,.1-3.05s0-1.79,0-2.67c0-.28,0-.56,0-.85l0-3.1c0-.12,0-.23,0-.35a4.07,4.07,0,0,1,0-.45v-.1a.57.57,0,0,1,0-.22.52.52,0,0,1,.51-.38c.51,0,.58.45.58.7,0,1.46,0,2.92,0,4.38,0,.81,0,1.63,0,2.44,0,1.23-.12,2.47,0,3.7a19.6,19.6,0,0,0,.46,3.93,5,5,0,0,1,.08.5c0,.07,0,.12,0,.17.08-.25.15-.48.23-.73a5.61,5.61,0,0,0,.22-.95c.15-1.16.22-2.34.32-3.52a1.4,1.4,0,0,0,0-.27Z"/><path class="cls-2" d="M52.33,62.44c.25,0,.53,0,.76,0,.48,0,1,.18.88.78s-1.91.66-2.46.53A.65.65,0,0,1,51,63c0-.4,0-.8,0-1.21,0-1.91.07-3.83.12-5.76,0-1.06.08-2.14.08-3.22s0-2.39-.08-3.58c0-.63,0-1.26,0-1.89a.72.72,0,0,1,.55-.78.52.52,0,0,1,.58.38,1,1,0,0,1,0,.38c0,1.54,0,3.09.07,4.63,0,1.21,0,2.42,0,3.63s-.12,2.31-.12,3.47.07,2.22.08,3.34c0,0,0,0,0,0Z"/><path class="cls-2" d="M55.32,47.7c-.56,0-.81-.2-.78-.68,0-.15.5-.45,1.18-.46.48,0,1,0,1.43,0s.75,0,1.13,0,.78,0,.8.61-.56.68-.78.68l-.81,0c0,1.54,0,3.05,0,4.56,0,.93,0,1.86.08,2.77s.08,1.54.1,2.32c0,1.44,0,2.9,0,4.35,0,.45,0,.88,0,1.31a.8.8,0,0,1-.51.65.6.6,0,0,1-.78-.63c0-.53,0-1.06,0-1.58,0-1.44,0-2.87,0-4.31,0-1.23-.12-2.46-.17-3.69,0-.7-.07-1.41-.07-2.11,0-1,0-1.94,0-2.92a4.31,4.31,0,0,0-.08-.78A7.34,7.34,0,0,0,55.32,47.7Z"/><path class="cls-2" d="M63.37,56.88c.07-1.24.13-2.16.17-3.09,0-.58,0-1.18,0-1.76s.07-1.28.1-1.91c0-.88.07-1.76.08-2.64,0-.35.08-.78.68-.73s.63.53.61.83c-.07.88-.1,1.74-.15,2.62-.07,1.29-.13,2.59-.18,3.87-.07,1.53-.12,3.05-.2,4.58,0,.61-.1,1.23-.18,1.86s-.12,1-.23,1.54a8.23,8.23,0,0,1-.42,1.23,1.16,1.16,0,0,1-1.83.1A5.14,5.14,0,0,1,61.14,61q-.22-1.67-.3-3.34c0-1,.07-2,.1-3.05s0-1.79,0-2.67c0-.28,0-.56,0-.85l0-3.1c0-.12,0-.23,0-.35a4.07,4.07,0,0,1,0-.45v-.1a.57.57,0,0,1,0-.22.52.52,0,0,1,.51-.38c.51,0,.58.45.58.7,0,1.46,0,2.92-.05,4.38,0,.81,0,1.63,0,2.44,0,1.23-.12,2.47,0,3.7a19.62,19.62,0,0,0,.46,3.93c0,.17,0,.33.08.5s0,.12,0,.17c.08-.25.15-.48.23-.73a5.57,5.57,0,0,0,.22-.95c.15-1.16.22-2.34.32-3.52a1.4,1.4,0,0,0,0-.27Z"/><path class="cls-2" d="M70.24,63.17a15.29,15.29,0,0,0-.3-1.71c-.27-1.06-.58-2.12-.86-3.17s-.61-2.21-.93-3.3c0-.1-.07-.2-.1-.28v1.25c0,.75,0,1.49,0,2.24,0,.33.07.66.07,1,0,.51-.07,1,0,1.56,0,.75.08,1.48.15,2.22a.81.81,0,0,1,0,.2.6.6,0,0,1,0,.23.54.54,0,0,1-.55.35A.66.66,0,0,1,67,63c0-.88,0-1.76,0-2.66s0-1.58,0-2.37c0-1,0-2,0-3s-.07-2,0-2.94c0-.61.12-1.21.15-1.81,0-1,0-2,.07-3a.65.65,0,0,1,.08-.3c0-.07,0-.12.2-.5l.68.32.3.2,1.08.85a1.65,1.65,0,0,1,.51.73,5.34,5.34,0,0,1,.22.73,3.46,3.46,0,0,1-1,3.22.82.82,0,0,1-.2.17l-.13.07c.12.41.25.83.37,1.23.3,1.08.63,2.16.93,3.24s.51,2.11.78,3.15c.2.8.4,1.58.6,2.36a2.65,2.65,0,0,1,0,.33c0,.22.1.73-.48.8A.65.65,0,0,1,70.24,63.17ZM68.1,51.61A2.49,2.49,0,0,0,69,50.19a1.94,1.94,0,0,0-.75-1.88Z"/><path class="cls-2" d="M75.15,56.1c0,.43-.07.86-.07,1.29,0,.65.08,1.31.1,2,0,1,0,1.93,0,2.89a4.29,4.29,0,0,1,0,.93.81.81,0,0,1-.55.58c-.58.13-.7-.4-.68-.66.05-.8.13-1.61.17-2.41,0-.53,0-1.06,0-1.58s0-1.29,0-1.93a24.53,24.53,0,0,1,0-2.47c.13-1.13,0-2.24,0-3.37s.15-2.12.2-3.19a5.5,5.5,0,0,0,0-.73.68.68,0,0,1,.63-.76c.25,0,.51-.12.76-.13a6.58,6.58,0,0,1,1.14,0,.78.78,0,0,1,.61.6.66.66,0,0,1-.66.73,2.41,2.41,0,0,1-.35,0l-.28,0a4.7,4.7,0,0,0-.68,0L75.25,52l.53.1a1.43,1.43,0,0,1,.38.08.53.53,0,0,1,.32.6c-.08.58-.65.56-.93.5a1.47,1.47,0,0,0-.28,0C75.23,54.22,75.18,55.15,75.15,56.1Z"/><path class="cls-2" d="M82.43,57.76c-.07.93-.12,1.84-.23,2.76a18.26,18.26,0,0,1-.43,2.11,1.37,1.37,0,0,1-1.08,1.15A1.63,1.63,0,0,1,79.08,63a2.54,2.54,0,0,1-.3-.81c-.13-.7-.25-1.41-.45-2.44h.07c-.08-.51-.18-1-.22-1.53-.07-1.08-.1-2.17-.1-3.25s0-2,.12-3.05a16,16,0,0,1,.32-2A10.76,10.76,0,0,1,79,48.18a6.06,6.06,0,0,1,.78-1.36c.33-.46,1.39-.33,1.71,0a2.51,2.51,0,0,1,.95,1.84c0,.55.2,1.1.22,1.66,0,.91,0,1.83,0,2.74,0,.55,0,1.11,0,1.68C82.57,55.71,82.5,56.74,82.43,57.76Zm-1.61-9.83-.12-.1a.59.59,0,0,1-.12-.15s0,0,0,0a2.78,2.78,0,0,0-.73,1.63c-.25,1.44-.45,2.89-.56,4.35-.08,1.23,0,2.46,0,3.67.2,1.31.38,2.61.58,3.9a3.14,3.14,0,0,0,.32,1,.74.74,0,0,0,.42.27s0,0,0,0,.08-.17.12-.22a2.34,2.34,0,0,0,.12-.37,3.65,3.65,0,0,0,.12-.4,10.27,10.27,0,0,0,.35-2.37c.07-.81.08-1.64.18-2.46s0-1.91.07-2.87.07-1.86,0-2.79c0-.73-.18-1.46-.23-2.19A1.18,1.18,0,0,0,80.82,47.93Z"/><path class="cls-2" d="M87.84,63.17a15.29,15.29,0,0,0-.3-1.71c-.27-1.06-.58-2.12-.86-3.17s-.61-2.21-.93-3.3c0-.1-.07-.2-.1-.28v1.25c0,.75,0,1.49,0,2.24,0,.33.07.66.07,1,0,.51-.07,1,0,1.56,0,.75.08,1.48.15,2.22a.81.81,0,0,1,0,.2.6.6,0,0,1,0,.23.54.54,0,0,1-.55.35.66.66,0,0,1-.71-.75c0-.88,0-1.76,0-2.66s0-1.58,0-2.37c0-1,0-2,0-3s-.07-2,0-2.94c0-.61.12-1.21.15-1.81,0-1,0-2,.07-3a.65.65,0,0,1,.08-.3c0-.07,0-.12.2-.5l.68.32.3.2,1.08.85a1.65,1.65,0,0,1,.51.73,5.34,5.34,0,0,1,.22.73,3.46,3.46,0,0,1-1,3.22.82.82,0,0,1-.2.17l-.13.07c.12.41.25.83.37,1.23.3,1.08.63,2.16.93,3.24s.51,2.11.78,3.15c.2.8.4,1.58.6,2.36a2.65,2.65,0,0,1,0,.33c0,.22.1.73-.48.8A.65.65,0,0,1,87.84,63.17ZM85.7,51.61a2.49,2.49,0,0,0,.88-1.43,1.94,1.94,0,0,0-.75-1.88Z"/><path class="cls-2" d="M93.29,62.59a.65.65,0,0,1,.35.28.49.49,0,0,0,.07.13s0,0,.23.35c-.33.22-.38.27-.43.3a.77.77,0,0,1-.37.13,9.5,9.5,0,0,1-1-.08l-.28,0a2.83,2.83,0,0,1-.5-.07.66.66,0,0,1-.58-.68c0-.13,0-.3,0-.53,0-.75,0-1.49.07-2.22s.07-1.51.07-2.26c0-1.13,0-2.26,0-3.39s.1-2.17.12-3.27,0-2.36,0-3.54c0-.08,0-.18,0-.27a.66.66,0,0,1,.1-.46,1.25,1.25,0,0,1,.78-.42c.6,0,1.21,0,1.81,0a.65.65,0,0,1,.75.61.67.67,0,0,1-.73.7H92.24v3.8a7.4,7.4,0,0,0,.88-.12.6.6,0,0,1,.76.48.63.63,0,0,1-.6.78c-.37,0-.73.05-1.1.05,0,1,0,2.09-.07,3.14,0,1.66,0,3.32-.08,5v1.44A5,5,0,0,1,93.29,62.59Z"/><path class="cls-2" d="M99.73,57.26c0-.45-.07-.9-.07-1.33,0-1,0-2,0-2.94,0-1.28,0-2.56,0-3.82,0-.66,0-1.33.07-2a.76.76,0,0,1,.28-.48s.05,0,.35-.42a4.21,4.21,0,0,0,.3.43.75.75,0,0,1,.22.46c0,1.24-.07,2.49-.07,3.73s0,2.56,0,3.82c0,.85.07,1.69.08,2.54v5.66c0,.6-.37.9-.78.85a1,1,0,0,1-.83-.85c-.1-.9-.18-1.81-.33-2.71s-.4-2.09-.61-3.14c-.08-.35-.22-.7-.3-1s-.18-.86-.27-1.29c-.23-1.1-.45-2.17-.71-3.25-.18-.78-.43-1.54-.65-2.32a3.39,3.39,0,0,0-.18-.43l.3-.15a1.68,1.68,0,0,1,.15.65c0,.23,0,.46,0,.71,0,.65,0,1.29,0,2,0,.33,0,.66,0,1,0,1.26,0,2.52,0,3.77,0,.91.1,1.81.13,2.72,0,1.08,0,2.17.1,3.25a.66.66,0,0,1-.68.75c-.18,0-.68-.27-.61-.63a6.25,6.25,0,0,0,.07-1.48c0-.51-.08-1-.08-1.53,0-.68,0-3.55-.07-4,0-1.08,0-2.14,0-3.22,0-.53,0-1.06,0-1.59s-.08-.81-.1-1.21c0-.63,0-1.26,0-1.89,0,0,0-.17,0-.22a.64.64,0,0,1,.43-.9.76.76,0,0,1,1,.46A18.94,18.94,0,0,1,97.55,49c.32,1.13.56,2.29.85,3.44.38,1.59.78,3.17,1.13,4.78l.15.73C99.69,57.72,99.73,57.49,99.73,57.26Z"/><path class="cls-2" d="M103.73,48.79l.76-.8c-.08,1.76-.15,3.05-.18,4.37,0,1.1,0,2.19,0,3.3s-.07,2-.08,2.94c0,.43,0,.86.07,1.31,0,1.06,0,2.12,0,3.2a.75.75,0,0,1-.63.66A.66.66,0,0,1,103,63c0-1.11,0-2.24,0-3.35s0-2.49,0-3.72c0-.9,0-1.79,0-2.69s.12-2,.13-3.05,0-1.94-.07-2.91c0-.27,0-.8.66-.8a.55.55,0,0,1,.55.35,3.11,3.11,0,0,1,0,.38c0,.38.07.76.13,1.48Z"/><path class="cls-2" d="M110.81,57.26c0-.45-.07-.9-.07-1.33,0-1,0-2,0-2.94,0-1.28,0-2.56,0-3.82,0-.66,0-1.33.07-2a.76.76,0,0,1,.28-.48s.05,0,.35-.42a4.21,4.21,0,0,0,.3.43.75.75,0,0,1,.22.46c0,1.24-.07,2.49-.07,3.73s0,2.56,0,3.82c0,.85.07,1.69.08,2.54v5.66c0,.6-.37.9-.78.85a1,1,0,0,1-.83-.85c-.1-.9-.18-1.81-.33-2.71s-.4-2.09-.61-3.14c-.08-.35-.22-.7-.3-1s-.18-.86-.27-1.29c-.23-1.1-.45-2.17-.71-3.25-.18-.78-.43-1.54-.65-2.32a3.39,3.39,0,0,0-.18-.43l.3-.15a1.68,1.68,0,0,1,.15.65c0,.23,0,.46,0,.71,0,.65,0,1.29,0,2,0,.33,0,.66,0,1,0,1.26,0,2.52,0,3.77,0,.91.1,1.81.13,2.72,0,1.08,0,2.17.1,3.25a.66.66,0,0,1-.68.75c-.18,0-.68-.27-.61-.63a6.25,6.25,0,0,0,.07-1.48c0-.51-.08-1-.08-1.53,0-.68,0-3.55-.07-4,0-1.08,0-2.14,0-3.22,0-.53,0-1.06,0-1.59s-.08-.81-.1-1.21c0-.63,0-1.26,0-1.89,0,0,0-.17,0-.22a.64.64,0,0,1,.43-.9.76.76,0,0,1,1,.46,18.94,18.94,0,0,1,.68,1.84c.32,1.13.56,2.29.85,3.44.38,1.59.78,3.17,1.13,4.78l.15.73C110.78,57.72,110.81,57.49,110.81,57.26Z"/><path class="cls-2" d="M117.78,62.24a2.75,2.75,0,0,1-.4,1,1.37,1.37,0,0,1-2.27,0,2.16,2.16,0,0,1-.38-.88c-.12-.48-.13-1-.27-1.46a12.32,12.32,0,0,1-.33-2.71,27.19,27.19,0,0,1,0-3.29c0-1,.1-2.06.22-3.09a29.61,29.61,0,0,1,.48-3,11.12,11.12,0,0,1,.51-1.48,1.53,1.53,0,0,1,2.19-.51c.37.2,1.24,1,1,1.49a.5.5,0,0,1-.32.27.69.69,0,0,1-.7-.17l-.17-.17,0,0a1,1,0,0,1-.23-.13l-.13-.1c-.38-.23-.55-.18-.66.27-.25.95-.46,1.88-.65,2.84a18.51,18.51,0,0,0-.22,1.93c-.08.86-.17,1.73-.2,2.59,0,.65.07,1.28,0,1.93a16.45,16.45,0,0,0,.37,3.6,4.92,4.92,0,0,0,.43,1.26c0,.07.12.17.15.17s.12,0,.15-.17c.25-1.11.55-2.22.75-3.34.13-.76.15-1.54.22-2.36a3.45,3.45,0,0,1-.73,0c-.22,0-.75-.35-.73-.6a.73.73,0,0,1,.86-.73c.43.07.85,0,1.26.13a.84.84,0,0,1,.6.73c-.07,1-.15,1.94-.28,2.89S118,61.18,117.78,62.24Z"/><path class="cls-2" d="M122.84,62.59a.65.65,0,0,1,.35.28.49.49,0,0,0,.07.13s0,0,.23.35c-.33.22-.38.27-.43.3a.77.77,0,0,1-.37.13,9.5,9.5,0,0,1-1-.08l-.28,0a2.83,2.83,0,0,1-.5-.07.67.67,0,0,1-.58-.68c0-.13,0-.3,0-.53,0-.75,0-1.49.07-2.22s.07-1.51.07-2.26c0-1.13,0-2.26,0-3.39s.1-2.17.12-3.27,0-2.36,0-3.54c0-.08,0-.18,0-.27a.66.66,0,0,1,.1-.46,1.25,1.25,0,0,1,.78-.42c.6,0,1.21,0,1.81,0a.65.65,0,0,1,.75.61.67.67,0,0,1-.73.7H121.8v3.8a7.39,7.39,0,0,0,.88-.12.6.6,0,0,1,.76.48.63.63,0,0,1-.6.78c-.37,0-.73.05-1.1.05,0,1-.05,2.09-.07,3.14,0,1.66,0,3.32-.08,5v1.44A5,5,0,0,1,122.84,62.59Z"/><path class="cls-2" d="M129.12,57.26c0-.45-.07-.9-.07-1.33,0-1,0-2,0-2.94,0-1.28,0-2.56,0-3.82,0-.66,0-1.33.07-2a.76.76,0,0,1,.28-.48s.05,0,.35-.42a4.21,4.21,0,0,0,.3.43.75.75,0,0,1,.22.46c0,1.24-.07,2.49-.07,3.73s0,2.56,0,3.82c0,.85.07,1.69.08,2.54v5.66c0,.6-.37.9-.78.85a1,1,0,0,1-.83-.85c-.1-.9-.18-1.81-.33-2.71s-.4-2.09-.61-3.14c-.08-.35-.22-.7-.3-1s-.18-.86-.27-1.29c-.23-1.1-.45-2.17-.71-3.25-.18-.78-.43-1.54-.65-2.32a3.39,3.39,0,0,0-.18-.43l.3-.15a1.68,1.68,0,0,1,.15.65c0,.23,0,.46,0,.71,0,.65,0,1.29,0,2,0,.33,0,.66,0,1,0,1.26,0,2.52,0,3.77,0,.91.1,1.81.13,2.72,0,1.08,0,2.17.1,3.25a.66.66,0,0,1-.68.75c-.18,0-.68-.27-.61-.63a6.25,6.25,0,0,0,.07-1.48c0-.51-.08-1-.08-1.53,0-.68,0-3.55-.07-4,0-1.08,0-2.14,0-3.22,0-.53,0-1.06,0-1.59s-.08-.81-.1-1.21c0-.63,0-1.26,0-1.89,0,0,0-.17,0-.22a.64.64,0,0,1,.43-.9.76.76,0,0,1,1,.46,18.94,18.94,0,0,1,.68,1.84c.32,1.13.56,2.29.85,3.44.38,1.59.78,3.17,1.13,4.78l.15.73C129.08,57.72,129.12,57.49,129.12,57.26Z"/><path class="cls-2" d="M43.47,135.28c1-.07,2.1-.2,3-.2,1.91,0,3.88.72,3.48,3.09-.33,2-7.55,2.63-9.72,2.1a2.55,2.55,0,0,1-2.1-2.89c.07-1.58.13-3.15.13-4.8.13-7.55.26-15.17.46-22.79.07-4.2.33-8.47.33-12.74,0-4.73-.2-9.46-.33-14.19-.07-2.5-.2-5-.13-7.49,0-.79.2-2.76,2.17-3.09a2.07,2.07,0,0,1,2.3,1.51,3.83,3.83,0,0,1,.2,1.51c.13,6.11.2,12.22.26,18.33,0,4.8.13,9.59,0,14.39-.07,4.6-.46,9.13-.46,13.73,0,4.4.26,8.8.33,13.2,0,.07.07.13.07.2Z"/><path class="cls-2" d="M78.82,139.88c-.26.2-.53.33-1.84,1.25-.85-1.31-1.05-1.51-1.18-1.71a2.22,2.22,0,0,1-.59-1.31c-.2-2.17-.26-4.33-.53-6.5-.39-3.94-.92-7.88-1.45-11.76,0-.07-.13-.07-.2-.13a19.37,19.37,0,0,0-9.07-.53c-.07,1.05-.2,2.17-.26,3.28-.13,3.35-.26,6.63-.33,10-.07,1.64,0,3.28-.07,5-.07,1.45-.92,3.35-4.53,2.5,0-2.89-.07-4.73,0-6.57.13-4.47.26-9,.59-13.47.26-3.42.79-6.77,1.18-10.18.53-4.4.92-8.74,1.45-13.14.53-4,1.18-8,1.77-12,.2-1.58.26-3.22.46-4.86a43,43,0,0,1,1-5.06,2.8,2.8,0,0,1,1.05-1.31c.26-.2.59-.46,2.23-1.84,1,2,1.25,2.43,1.51,2.89a4.43,4.43,0,0,1,.66,1.71c.72,3.74,1.25,7.49,1.77,11.23s.79,7.36,1.38,11c.66,4.07,1.58,8.08,2.3,12.15.79,4.53,1.58,9.13,2.23,13.66.46,3.15.79,6.24,1.18,9.33.2,1.25.39,2.43.59,3.61,0,.2.07.46.07.72a1.7,1.7,0,0,1-.53,1.31A2.77,2.77,0,0,1,78.82,139.88ZM64.3,114.53l8.15.39c-2.23-9.52-2.82-19.31-4.53-28.9Z"/><path class="cls-2" d="M100.83,73.73a2.05,2.05,0,0,1,2-1.45,2,2,0,0,1,2.23,1.51,4.35,4.35,0,0,1,.07.85c0,.13-.07.26-.07.39-.13,2.43-.46,4.8-.79,7.16-.79,6.17-1.71,12.35-2.5,18.46-1.12,8.21-2.23,16.42-3.28,24.63-.53,4.07-1,8.21-1.38,12.35a3.12,3.12,0,0,1-3.22,3c-1.91-.06-2.37-1.64-2.5-3-.39-5.58-.79-11.23-1.38-16.82-.46-4.2-1.18-8.41-1.64-12.68-.39-4.07-.59-8.15-.85-12.28-.07-.53-.07-1.12-.13-1.71l-1.58-15c-.13-1.25-.53-2.5-.72-3.74a2.74,2.74,0,0,1,.13-1.12,7.45,7.45,0,0,1,.33-1.38c2.76-.59,4.07.39,4.34,2.23.39,3.22,1,6.44,1.25,9.66.53,5.45.72,10.9,1.25,16.36.46,4.66,1.12,9.26,1.64,13.93.2,1.71.33,3.42.53,5.12l.33-2.69c.39-3.42,1.05-6.77,1.51-10.12.59-3.88,1.18-7.75,1.71-11.69.53-3.55,1-7.16,1.44-10.71.39-3.22.66-6.44,1-9.59a1.85,1.85,0,0,1,.13-1.18A1.22,1.22,0,0,1,100.83,73.73Z"/><path class="cls-2" d="M128.94,139.88c-.26.2-.53.33-1.84,1.25-.85-1.31-1.05-1.51-1.18-1.71a2.23,2.23,0,0,1-.59-1.31c-.2-2.17-.26-4.33-.53-6.5-.39-3.94-.92-7.88-1.44-11.76,0-.07-.13-.07-.2-.13a19.37,19.37,0,0,0-9.07-.53c-.07,1.05-.2,2.17-.26,3.28-.13,3.35-.26,6.63-.33,10-.07,1.64,0,3.28-.07,5-.07,1.45-.92,3.35-4.53,2.5,0-2.89-.07-4.73,0-6.57.13-4.47.26-9,.59-13.47.26-3.42.79-6.77,1.18-10.18.53-4.4.92-8.74,1.45-13.14.53-4,1.18-8,1.77-12,.2-1.58.26-3.22.46-4.86a43.05,43.05,0,0,1,1-5.06,2.8,2.8,0,0,1,1.05-1.31c.26-.2.59-.46,2.23-1.84,1,2,1.25,2.43,1.51,2.89a4.43,4.43,0,0,1,.66,1.71c.72,3.74,1.25,7.49,1.77,11.23s.79,7.36,1.38,11c.66,4.07,1.58,8.08,2.3,12.15.79,4.53,1.58,9.13,2.23,13.66.46,3.15.79,6.24,1.18,9.33.2,1.25.39,2.43.59,3.61,0,.2.07.46.07.72a1.7,1.7,0,0,1-.53,1.31A2.78,2.78,0,0,1,128.94,139.88Zm-14.52-25.36,8.15.39c-2.23-9.52-2.82-19.31-4.53-28.9Z"/><path class="cls-2" d="M79.32,44.57a.45.45,0,0,0,.76-.31.51.51,0,0,0-.8-.38.5.5,0,0,0,.12.87c.53.18.77-.42.69-.83a.21.21,0,0,0-.2-.15.58.58,0,0,0-.44.12c-.21.15,0,.51.21.35l.23-.06L79.7,44l-.08.24c-.2-.17-.49.12-.29.29Z"/><path class="cls-2" d="M81.65,44.26c-.1.24-.23.7.15.76a.56.56,0,0,0,.63-.5c0-.74-1.21,0-.56.46a.2.2,0,0,0,.21,0c.34-.19.16-.65-.12-.8s-.44.23-.21.35l.12.09h.21c-.07,0-.36,0-.18,0s.09.05.08-.06a.63.63,0,0,1,.07-.23c.1-.24-.3-.35-.4-.11Z"/></g></g></svg>